<?xml version="1.0" encoding="utf-8"?>
<!-- Generator: Adobe Illustrator 22.0.0, SVG Export Plug-In . SVG Version: 6.00 Build 0)  -->
<svg version="1.1" xmlns="http://www.w3.org/2000/svg" xmlns:xlink="http://www.w3.org/1999/xlink" x="0px" y="0px"
	 viewBox="0 0 125.7 61.3" style="enable-background:new 0 0 125.7 61.3;" xml:space="preserve">
<style type="text/css">
	.afxlogost0{stroke:#FFFFFF;stroke-width:0.6042;stroke-linecap:round;stroke-linejoin:round;stroke-miterlimit:10;}
	.afxlogost1{fill:#575757;}
	.afxlogost2{fill:#737373;}
	.afxlogost3{fill:#595959;}
	.afxlogost4{fill:#808080;}
	.afxlogost5{fill:#333333;}
	.afxlogost6{fill:#FFFFFF;}
	.afxlogost7{fill:#FF0000;}
	.afxlogost8{fill:#999999;}
	.afxlogost9{fill:#666666;}
	.afxlogost10{fill:url(#SVGID_1_);}
	.afxlogost11{fill:url(#SVGID_2_);}
	.afxlogost12{fill:url(#SVGID_3_);}
	.afxlogost13{fill:url(#SVGID_4_);}
	.afxlogost14{fill:url(#SVGID_5_);}
	.afxlogost15{fill:url(#SVGID_6_);}
	.afxlogost16{fill:url(#SVGID_7_);}
	.afxlogost17{fill:url(#SVGID_8_);}
	.afxlogost18{fill:url(#SVGID_9_);}
	.afxlogost19{fill:url(#SVGID_10_);}
	.afxlogost20{stroke:#FFFFFF;stroke-width:2;stroke-linecap:square;stroke-linejoin:round;stroke-miterlimit:10;}
	.afxlogost21{fill:none;stroke:#000000;stroke-width:2.1113;stroke-miterlimit:10;}
	.afxlogost22{fill:none;stroke:#C3000E;stroke-width:1.0557;stroke-miterlimit:10;}
	.afxlogost23{fill:url(#SVGID_11_);}
	.afxlogost24{fill:url(#SVGID_12_);}
	.afxlogost25{fill:url(#SVGID_13_);}
	.afxlogost26{fill:url(#SVGID_14_);}
	.afxlogost27{fill:url(#SVGID_15_);}
	.afxlogost28{fill:url(#SVGID_16_);}
	.afxlogost29{fill:url(#SVGID_17_);}
	.afxlogost30{fill:#BC2E02;}
	.afxlogost31{fill-rule:evenodd;clip-rule:evenodd;}
	.afxlogost32{fill-rule:evenodd;clip-rule:evenodd;fill:#E57B33;}
	.afxlogost33{fill-rule:evenodd;clip-rule:evenodd;fill:#2D2D2D;}
	.afxlogost34{fill-rule:evenodd;clip-rule:evenodd;fill:none;}
	.afxlogost35{fill:#2D2D2D;}
	.afxlogost36{fill-rule:evenodd;clip-rule:evenodd;fill:#FFFFFF;}
	.afxlogost37{fill-rule:evenodd;clip-rule:evenodd;fill:#8C8C8C;}
	.afxlogost38{fill:#8C8C8C;}
	.afxlogost39{fill:none;}
</style>
<g>
	<polygon points="23.4,60.3 33.9,43.3 38.6,60.3 	"/>
	<polygon points="105.6,29.7 123.2,1 109.1,1 98.5,18.2 87.9,1 37.7,1 1.3,60.3 15.4,60.3 36.9,25.2 46.7,60.3 59.5,60.3 45.7,10.9 
		45.7,10.9 45.7,10.9 45.7,10.9 80,10.9 86,20.8 61.7,20.8 64.5,30.7 90.9,30.7 84.9,40.6 67.2,40.6 72.7,60.3 72.7,60.3 72.7,60.3 
		86.8,60.3 98.5,41.2 110.3,60.3 124.4,60.3 	"/>
</g>
</svg>
