<?xml version="1.0" encoding="utf-8"?>
<!-- Generator: Adobe Illustrator 25.3.0, SVG Export Plug-In . SVG Version: 6.00 Build 0)  -->
<svg version="1.1" xmlns="http://www.w3.org/2000/svg" xmlns:xlink="http://www.w3.org/1999/xlink" x="0px" y="0px"
	 viewBox="0 0 395.52 495.92" xml:space="preserve">
<g>
	<path d="M329.11,203.14c0.11,28.85-8.32,57.33-22.26,84.39c-11.9,23.09-24.03,46.06-35.61,69.3c-3.62,7.26-6.02,15.16-8.49,22.93
		c-1.14,3.57-2.8,5.1-6.56,5.34c-29.1,1.82-58.19,3.8-87.28,5.73c-9.64,0.64-19.29,1.24-28.93,1.94c-2.4,0.17-4.04-0.07-4.75-2.95
		c-7.88-31.92-24.16-60.06-39.87-88.46c-12.55-22.7-23.06-46.19-27.26-72.06c-9.57-58.94,16.57-112.36,68.23-139.43
		c67.3-35.27,152.02-5.57,182.28,63.89C324.96,168.29,328.65,185.09,329.11,203.14z M170.13,364.82c0-0.12,0-0.25-0.01-0.37
		c22.27-1.47,44.53-3,66.81-4.32c3.25-0.19,4.92-1.26,6.34-4.29c8.28-17.61,16.44-35.3,25.4-52.57
		c10.35-19.94,21.99-39.23,28.28-61.05c7.85-27.23,8.87-54.17-3.53-80.43C263.29,97.97,178.9,81.02,126.6,128.37
		c-28.82,26.09-38.81,59.09-32.72,96.84c3.44,21.35,12.46,40.93,22.57,60.04c11.67,22.06,22.68,44.46,33.86,66.78
		c2.07,4.13,2.5,10.33,5.71,12.32C159.49,366.48,165.33,364.82,170.13,364.82z"/>
	<path d="M158.17,425.92c-1.99,0.11-3.99,0.3-5.98,0.31c-7.49,0.04-13.21-5.12-13.74-12.32c-0.54-7.36,4.17-13.38,11.82-14.04
		c16.73-1.43,33.5-2.5,50.26-3.64c14.6-0.99,29.21-1.96,43.82-2.76c6.5-0.36,11.56,2.89,13.58,8.13c2,5.21,0.82,11.77-3.58,15
		c-2.52,1.85-5.96,3.16-9.08,3.39c-29.02,2.16-58.07,4.03-87.11,5.98C158.17,425.95,158.17,425.93,158.17,425.92z"/>
	<path d="M156.33,460.08c-6.94,0.37-13.2-3.99-13.8-12.03c-0.61-8.21,4.99-14.28,13.94-14.91c25.08-1.76,50.16-3.46,75.24-5.2
		c3.49-0.24,6.97-0.77,10.46-0.76c7.43,0.02,13.06,5.56,13.3,12.79c0.24,7.27-5.02,13.34-12.22,13.86
		C215.34,455.88,187.44,457.85,156.33,460.08z"/>
	<path d="M160.51,467.31c14.13-1.1,27.38-2.11,40.63-3.17c10.12-0.81,20.26-1.46,30.34-2.62c4.73-0.54,5.69,1.41,4.94,5.31
		c-2.38,12.26-9.78,20.6-20.96,25.53c-19.77,8.7-43.19,0.88-52.07-17.21C162.31,472.96,161.68,470.54,160.51,467.31z"/>
	<path d="M197.76,55.21c-4.42,0-8-3.58-8-8V8c0-4.42,3.58-8,8-8s8,3.58,8,8v39.21C205.76,51.63,202.18,55.21,197.76,55.21z"/>
	<path d="M103.53,85.83c-2.47,0-4.91-1.14-6.48-3.3L74.01,50.81c-2.6-3.57-1.8-8.58,1.77-11.17c3.57-2.6,8.58-1.8,11.17,1.77
		L110,73.12c2.6,3.57,1.8,8.58-1.77,11.17C106.81,85.33,105.17,85.83,103.53,85.83z"/>
	<path d="M45.29,165.98c-0.82,0-1.65-0.13-2.47-0.39L5.53,153.47c-4.2-1.37-6.5-5.88-5.14-10.08c1.36-4.2,5.88-6.5,10.08-5.14
		l37.29,12.12c4.2,1.37,6.5,5.88,5.14,10.08C51.8,163.83,48.66,165.98,45.29,165.98z"/>
	<path d="M8,277.18c-3.37,0-6.51-2.15-7.61-5.53c-1.37-4.2,0.93-8.72,5.14-10.08l37.29-12.12c4.2-1.37,8.72,0.93,10.08,5.14
		c1.37,4.2-0.93,8.72-5.14,10.08l-37.29,12.12C9.65,277.05,8.82,277.18,8,277.18z"/>
	<path d="M291.98,85.83c-1.63,0-3.28-0.5-4.7-1.53c-3.57-2.6-4.37-7.6-1.77-11.17l23.05-31.72c2.6-3.58,7.6-4.37,11.17-1.77
		c3.57,2.6,4.37,7.6,1.77,11.17l-23.05,31.72C296.9,84.68,294.46,85.83,291.98,85.83z"/>
	<path d="M350.22,165.98c-3.37,0-6.51-2.15-7.61-5.53c-1.37-4.2,0.93-8.72,5.14-10.08l37.29-12.12c4.2-1.37,8.72,0.93,10.08,5.14
		c1.37,4.2-0.93,8.72-5.14,10.08l-37.29,12.12C351.88,165.86,351.04,165.98,350.22,165.98z"/>
	<path d="M387.52,277.18c-0.82,0-1.65-0.13-2.47-0.39l-37.29-12.12c-4.2-1.37-6.5-5.88-5.14-10.08s5.88-6.5,10.08-5.14l37.29,12.12
		c4.2,1.37,6.5,5.88,5.14,10.08C394.03,275.03,390.89,277.18,387.52,277.18z"/>
</g>
</svg>
