<?xml version="1.0" encoding="utf-8"?>
<!-- Generator: Adobe Illustrator 25.3.0, SVG Export Plug-In . SVG Version: 6.00 Build 0)  -->
<svg version="1.1" xmlns="http://www.w3.org/2000/svg" xmlns:xlink="http://www.w3.org/1999/xlink" x="0px" y="0px"
	 viewBox="0 0 1080 1080" xml:space="preserve">
<path d="M540,0C241.77,0,0,241.77,0,540s241.77,540,540,540s540-241.77,540-540S838.23,0,540,0z M864.16,780.71
	c23.05,23.05,23.05,60.41,0,83.46l0,0c-23.05,23.05-60.41,23.05-83.46,0L540,623.46L299.29,864.16c-23.05,23.05-60.41,23.05-83.46,0
	l0,0c-23.05-23.05-23.05-60.41,0-83.46L456.54,540L215.84,299.29c-23.05-23.05-23.05-60.41,0-83.46l0,0
	c23.05-23.05,60.41-23.05,83.46,0L540,456.54l240.71-240.71c23.05-23.05,60.41-23.05,83.46,0l0,0c23.05,23.05,23.05,60.41,0,83.46
	L623.46,540L864.16,780.71z"/>
</svg>
