<?xml version="1.0" encoding="utf-8"?>
<!-- Generator: Adobe Illustrator 25.3.0, SVG Export Plug-In . SVG Version: 6.00 Build 0)  -->
<svg version="1.1" xmlns="http://www.w3.org/2000/svg" xmlns:xlink="http://www.w3.org/1999/xlink" x="0px" y="0px"
	 viewBox="0 0 348.24 234.75" xml:space="preserve">
<g>
	<circle cx="273.26" cy="116.35" r="5.86"/>
	<circle cx="319.84" cy="119.55" r="5.86"/>
	<path d="M346.45,91.87c-1-18.5-15.97-55.36-15.97-55.36s-10.65,25.29-17.57,38.33c-6.17,11.63-8.52,10.11-13.31,8.52
		c-4.79-1.6-38.86-46.84-38.86-46.84c0.53,34.33-25.02,105.67-25.02,105.67l-10.65-0.53c0,0,2.4-32.47-0.53-70.27
		c-2.93-37.79-13.84-67.34-53.23-69.47C85.71-2.72,75.5,106.51,75.5,106.51s-39.92,1.33-49.77-22.09
		c-9.85-23.42-2.66-54.56,19.43-53.5c22.09,1.06,25.82,23.16,16.77,38.06c-9.05,14.9-25.02,0.8-25.02,0.8
		c-2.13,13.84,18.1,23.42,30.61,11.44c12.51-11.98,19.7-50.3-7.45-60.42C32.92,10.69,17.48,21.07,7.63,39.17
		c-9.85,18.1-7.72,59.35,9.05,80.65c17.31,21.98,58.52,31,66.54,33c9.58,2.4,37.79,4.26,36.73,11.98s-25.29,7.98-44.45-0.27
		c-19.16-8.25-31.67,6.92-31.67,6.92c6.65-3.73,23.95,2.66,20.76,5.06c-3.19,2.4-10.91,13.57-10.91,13.57s25.02-4.26,23.16,2.66
		c-1.86,6.92-14.11,12.24-14.11,12.24c24.75,9.58,27.68-12.51,32.74-15.17c5.06-2.66,33-5.32,43.65-14.64
		c8.22-7.19,3.46-23.16,0.27-31.14c-3.19-7.98-22.62-16.24-22.62-16.24s-9.85-63.88,39.13-65.21c48.97-1.33,35.93,88.36,35.93,88.36
		c-11.18,1.06-28.21,15.17-30.61,32.21c-3.34,23.75,17.57,27.15,29.54,27.68c11.98,0.53,23.16,22.36,23.16,22.36l-4.79-21.29
		l22.09,13.84l-11.98-23.16l20.76,12.24c-5.86-30.34-29.54-30.87-38.86-26.62c-4.14,1.89-20.23,10.65-21.83-2.66
		s36.2-11.18,36.2-11.18C346.98,261.68,347,102.02,346.45,91.87z M273.26,102.78c7.5,0,13.57,6.08,13.57,13.57
		c0,7.5-6.08,13.57-13.57,13.57c-7.5,0-13.57-6.08-13.57-13.57C259.68,108.86,265.76,102.78,273.26,102.78z M301.07,169.05
		l-0.8-6.12h-9.32v6.15h-7.45v-5.35h-10.91l0.27,5.35c0,0-25.95,6.63-26.22-8.01c0,0-1.33-9.32,6.12-9.32s8.52,6.39,8.52,6.39
		l7.19,0.27v-7.72h8.52v7.19l9.85-0.27v-6.92h8.25v6.92h11.44v-6.92c0,0,16.24-0.8,16.24,5.06
		C322.76,161.6,318.37,169.59,301.07,169.05z M319.84,132.85c-7.35,0-13.31-5.96-13.31-13.31c0-7.35,5.96-13.31,13.31-13.31
		c7.35,0,13.31,5.96,13.31,13.31C333.14,126.9,327.19,132.85,319.84,132.85z"/>
</g>
</svg>
