<?xml version="1.0" encoding="utf-8"?>
<!-- Generator: Adobe Illustrator 22.0.0, SVG Export Plug-In . SVG Version: 6.00 Build 0)  -->
<svg version="1.1" id="Capa_1" xmlns="http://www.w3.org/2000/svg" xmlns:xlink="http://www.w3.org/1999/xlink" x="0px" y="0px"
	 viewBox="0 0 151.6 152.5" xml:space="preserve">
<g>
	<path d="M12.6,140.4c0-0.1,0.1-0.2,0.3-0.2h1.7c0.1,0,0.1,0,0.1,0.1c0,0,0,0.1,0,0.2l-3.1,11.8c0,0.2-0.1,0.2-0.3,0.2H9.4
		c-0.1,0-0.1,0-0.2-0.1c-0.1,0-0.1-0.1-0.1-0.2L6,140.4c0-0.1,0-0.1,0-0.2c0,0,0.1-0.1,0.2-0.1h1.6c0.1,0,0.2,0.1,0.3,0.2l2.2,9.3
		L12.6,140.4z"/>
	<path d="M15.6,152.5c-0.2,0-0.2-0.1-0.2-0.2v-11.8c0-0.1,0.1-0.2,0.2-0.2h1.6c0.2,0,0.2,0.1,0.2,0.2v11.8c0,0.1-0.1,0.2-0.2,0.2
		H15.6z"/>
	<path d="M19,152.5c-0.1,0-0.1,0-0.2-0.1c0-0.1-0.1-0.1-0.1-0.2v-1.6c0-0.1,0.1-0.2,0.2-0.2c0.3,0,0.5-0.1,0.7-0.2
		c0.2-0.1,0.4-0.3,0.6-0.4c0.2-0.2,0.3-0.4,0.4-0.6c0.1-0.2,0.1-0.5,0.1-0.7v-4.1c0-0.5,0.1-1.1,0.3-1.5c0.2-0.5,0.5-0.9,0.8-1.3
		c0.3-0.4,0.8-0.7,1.2-0.9c0.5-0.2,1-0.4,1.5-0.4c0.2,0,0.2,0.1,0.2,0.2v1.6c0,0.1,0,0.1-0.1,0.2c0,0.1-0.1,0.1-0.2,0.1
		c-0.5,0.1-0.9,0.3-1.3,0.7c-0.3,0.4-0.5,0.8-0.5,1.4v4.1c0,0.5-0.1,1-0.3,1.5c-0.2,0.5-0.5,0.9-0.8,1.3c-0.3,0.4-0.8,0.7-1.2,0.9
		C20.1,152.3,19.6,152.5,19,152.5z"/>
	<path d="M28.1,140.2c0.1,0,0.2,0.1,0.2,0.2v8.5c0,0.4,0.1,0.8,0.4,1.1s0.7,0.4,1.1,0.4s0.8-0.1,1.1-0.4c0.3-0.3,0.4-0.7,0.4-1.1
		v-8.5c0-0.1,0.1-0.2,0.2-0.2h1.6c0.2,0,0.2,0.1,0.2,0.2v8.5c0,0.5-0.1,1-0.3,1.4s-0.4,0.8-0.8,1.1c-0.3,0.3-0.7,0.6-1.1,0.8
		s-0.9,0.3-1.4,0.3s-1-0.1-1.4-0.3s-0.8-0.4-1.1-0.8c-0.3-0.3-0.6-0.7-0.8-1.1c-0.2-0.4-0.3-0.9-0.3-1.4v-8.5c0-0.1,0-0.1,0.1-0.2
		c0.1,0,0.1-0.1,0.2-0.1h1.7V140.2z"/>
	<path d="M37.2,152.5h-1.6c-0.1,0-0.1,0-0.2-0.1c0-0.1-0.1-0.1-0.1-0.2v-8.5c0-0.5,0.1-1,0.3-1.4s0.4-0.8,0.8-1.1
		c0.3-0.3,0.7-0.6,1.1-0.8c0.4-0.2,0.9-0.3,1.4-0.3s1,0.1,1.4,0.3s0.8,0.4,1.1,0.8c0.3,0.3,0.6,0.7,0.8,1.1c0.2,0.4,0.3,0.9,0.3,1.4
		v8.5c0,0.1,0,0.1-0.1,0.2c0,0.1-0.1,0.1-0.2,0.1h-1.6c-0.1,0-0.1,0-0.2-0.1s-0.1-0.1-0.1-0.2v-3.9h-3.1v3.9c0,0.1,0,0.1-0.1,0.2
		S37.3,152.5,37.2,152.5z M40.5,146.4v-2.6c0-0.4-0.1-0.8-0.4-1.1c-0.3-0.3-0.7-0.4-1.1-0.4c-0.4,0-0.8,0.1-1.1,0.4
		c-0.3,0.3-0.4,0.7-0.4,1.1v2.6H40.5z"/>
	<path d="M44.7,140.2h1.6c0.1,0,0.1,0,0.2,0.1c0,0.1,0.1,0.1,0.1,0.2v10h2.8c0.2,0,0.2,0.1,0.2,0.2v1.6c0,0.1-0.1,0.2-0.2,0.2h-4.6
		c-0.1,0-0.1,0-0.2-0.1c-0.1,0-0.1-0.1-0.1-0.2v-11.8c0-0.1,0-0.1,0.1-0.2C44.6,140.2,44.6,140.2,44.7,140.2z"/>
	<path d="M56.1,152.5c-0.1,0-0.1,0-0.2-0.1c0-0.1-0.1-0.1-0.1-0.2v-1.6c0-0.1,0.1-0.2,0.2-0.2c0.3,0,0.5-0.1,0.7-0.2
		c0.2-0.1,0.4-0.3,0.6-0.4c0.2-0.2,0.3-0.4,0.4-0.6c0.1-0.2,0.1-0.5,0.1-0.7v-4.1c0-0.5,0.1-1.1,0.3-1.5c0.2-0.5,0.5-0.9,0.8-1.3
		s0.8-0.7,1.2-0.9c0.5-0.2,1-0.4,1.5-0.4c0.2,0,0.2,0.1,0.2,0.2v1.6c0,0.1,0,0.1-0.1,0.2c0,0.1-0.1,0.1-0.2,0.1
		c-0.5,0.1-0.9,0.3-1.3,0.7c-0.3,0.4-0.5,0.8-0.5,1.4v4.1c0,0.5-0.1,1-0.3,1.5s-0.5,0.9-0.8,1.3c-0.3,0.4-0.8,0.7-1.2,0.9
		C57.1,152.3,56.6,152.5,56.1,152.5z"/>
	<path d="M63,140.2h5.7c0.2,0,0.2,0.1,0.2,0.2v1.6c0,0.2-0.1,0.2-0.2,0.2h-1.8v10c0,0.1,0,0.1-0.1,0.2c0,0.1-0.1,0.1-0.2,0.1H65
		c-0.1,0-0.1,0-0.2-0.1c0-0.1-0.1-0.1-0.1-0.2v-10H63c-0.1,0-0.2-0.1-0.2-0.2v-1.6C62.8,140.3,62.8,140.2,63,140.2z"/>
	<path d="M75.3,140.2c0.8,0,1.6,0.2,2.4,0.5c0.7,0.3,1.4,0.8,2,1.3c0.6,0.6,1,1.2,1.3,2c0.3,0.7,0.5,1.5,0.5,2.4s-0.2,1.6-0.5,2.4
		c-0.3,0.7-0.8,1.4-1.3,2c-0.6,0.6-1.2,1-2,1.3c-0.7,0.3-1.5,0.5-2.4,0.5c-0.8,0-1.6-0.2-2.4-0.5c-0.7-0.3-1.4-0.8-2-1.3
		c-0.6-0.6-1-1.2-1.3-2c-0.3-0.7-0.5-1.5-0.5-2.4s0.2-1.6,0.5-2.4c0.3-0.7,0.8-1.4,1.3-2c0.6-0.6,1.2-1,2-1.3
		C73.6,140.4,74.4,140.2,75.3,140.2z M75.3,142.3c-0.6,0-1.1,0.1-1.6,0.3s-0.9,0.5-1.3,0.9s-0.7,0.8-0.9,1.3c-0.2,0.5-0.3,1-0.3,1.6
		s0.1,1.1,0.3,1.6c0.2,0.5,0.5,0.9,0.9,1.3c0.4,0.4,0.8,0.7,1.3,0.9s1,0.3,1.6,0.3s1.1-0.1,1.6-0.3s0.9-0.5,1.3-0.9s0.7-0.8,0.9-1.3
		c0.2-0.5,0.3-1,0.3-1.6s-0.1-1.1-0.3-1.6c-0.2-0.5-0.5-0.9-0.9-1.3c-0.4-0.4-0.8-0.7-1.3-0.9C76.4,142.4,75.9,142.3,75.3,142.3z"/>
	<path d="M87,140.2c0.6,0,1.1,0.1,1.6,0.3s0.9,0.5,1.3,0.9s0.7,0.8,0.9,1.3c0.2,0.5,0.3,1,0.3,1.6c0,0.8-0.2,1.5-0.6,2.1
		s-0.9,1.1-1.5,1.5l2,4.4c0.1,0.1,0,0.2-0.1,0.2h-1.8c-0.1,0-0.1,0-0.2-0.1c-0.1,0-0.1-0.1-0.1-0.1l-0.7-1.6l-1.9-4.1
		c-0.1-0.1,0-0.2,0.1-0.2H87c0.3,0,0.5-0.1,0.8-0.2c0.3-0.1,0.5-0.3,0.7-0.4c0.2-0.2,0.3-0.4,0.4-0.7s0.2-0.5,0.2-0.8
		s-0.1-0.6-0.2-0.8s-0.3-0.5-0.4-0.6c-0.2-0.2-0.4-0.3-0.7-0.4c-0.3-0.1-0.5-0.2-0.8-0.2h-2v10c0,0.1,0,0.1-0.1,0.2
		c-0.1,0-0.1,0.1-0.2,0.1h-1.6c-0.1,0-0.2-0.1-0.2-0.2v-11.8c0-0.1,0.1-0.2,0.2-0.2H87V140.2z"/>
	<path d="M98.4,140.4c0-0.1,0.1-0.1,0.1-0.1c0.1,0,0.1-0.1,0.2-0.1h1.8c0.1,0,0.2,0.1,0.1,0.2l-3.2,7.6v4.3c0,0.1-0.1,0.2-0.2,0.2
		h-1.6c-0.2,0-0.2-0.1-0.2-0.2V148l-3.2-7.6c-0.1-0.1,0-0.2,0.1-0.2h1.8c0.2,0,0.3,0.1,0.3,0.2l2,5L98.4,140.4z"/>
	<path d="M103.1,140.2c0.1,0,0.1,0,0.2,0s0.1,0.1,0.2,0.1l1.9,2.5l1.9-2.5c0-0.1,0.1-0.1,0.2-0.1s0.1,0,0.2,0h1.6
		c0.2,0,0.2,0.1,0.2,0.2v11.8c0,0.1-0.1,0.2-0.2,0.2h-1.6c-0.2,0-0.2-0.1-0.2-0.2v-8.7l-1.9,2.5c0,0.1-0.1,0.1-0.1,0.1
		c-0.1,0-0.1,0-0.1-0.1l-1.9-2.5v8.7c0,0.1-0.1,0.2-0.2,0.2h-1.6c-0.2,0-0.2-0.1-0.2-0.2v-11.8c0-0.1,0.1-0.2,0.2-0.2H103.1z"/>
	<path d="M113.1,152.5h-1.6c-0.1,0-0.1,0-0.2-0.1c0-0.1-0.1-0.1-0.1-0.2v-8.5c0-0.5,0.1-1,0.3-1.4c0.2-0.4,0.4-0.8,0.8-1.1
		c0.3-0.3,0.7-0.6,1.1-0.8s0.9-0.3,1.4-0.3s1,0.1,1.4,0.3s0.8,0.4,1.1,0.8c0.3,0.3,0.6,0.7,0.8,1.1c0.2,0.4,0.3,0.9,0.3,1.4v8.5
		c0,0.1,0,0.1-0.1,0.2c0,0.1-0.1,0.1-0.2,0.1h-1.6c-0.1,0-0.1,0-0.2-0.1c0-0.1-0.1-0.1-0.1-0.2v-3.9h-3.1v3.9c0,0.1,0,0.1-0.1,0.2
		C113.3,152.5,113.2,152.5,113.1,152.5z M116.4,146.4v-2.6c0-0.4-0.1-0.8-0.4-1.1s-0.7-0.4-1.1-0.4s-0.8,0.1-1.1,0.4
		c-0.3,0.3-0.4,0.7-0.4,1.1v2.6H116.4z"/>
	<path d="M128.5,152.3c0.1,0.1,0,0.2-0.1,0.2h-1.8c-0.1,0-0.1,0-0.2-0.1c-0.1,0-0.1-0.1-0.1-0.1l-2.7-5.9l-1.1,1.4v4.5
		c0,0.1,0,0.1-0.1,0.2c-0.1,0-0.1,0.1-0.2,0.1h-1.6c-0.1,0-0.2-0.1-0.2-0.2v-11.8c0-0.1,0-0.1,0.1-0.2c0-0.1,0.1-0.1,0.2-0.1h1.6
		c0.1,0,0.1,0,0.2,0.1s0.1,0.1,0.1,0.2v4l3.2-4.1c0.1-0.1,0.2-0.2,0.4-0.2h2.1c0.1,0,0.2,0.1,0.1,0.2l-3.3,4.1L128.5,152.3z"/>
	<path d="M129.8,140.2h5.7c0.2,0,0.2,0.1,0.2,0.2v1.6c0,0.2-0.1,0.2-0.2,0.2h-3.9v2h2.8c0.1,0,0.2,0.1,0.2,0.2v1.6
		c0,0.1,0,0.1-0.1,0.2c0,0.1-0.1,0.1-0.2,0.1h-2.8v4.1h3.9c0.2,0,0.2,0.1,0.2,0.2v1.6c0,0.1,0,0.1-0.1,0.2c0,0.1-0.1,0.1-0.2,0.1
		h-5.7c-0.1,0-0.1,0-0.2-0.1c0-0.1-0.1-0.1-0.1-0.2v-11.8C129.5,140.3,129.6,140.2,129.8,140.2z"/>
	<path d="M141.5,140.2c0.6,0,1.1,0.1,1.6,0.3s0.9,0.5,1.3,0.9c0.4,0.4,0.7,0.8,0.9,1.3s0.3,1,0.3,1.6c0,0.8-0.2,1.5-0.6,2.1
		c-0.4,0.6-0.9,1.1-1.5,1.5l2,4.4c0.1,0.1,0,0.2-0.1,0.2h-1.8c-0.1,0-0.1,0-0.2-0.1c-0.1,0-0.1-0.1-0.1-0.1l-0.7-1.6l-1.9-4.1
		c-0.1-0.1,0-0.2,0.1-0.2h0.7c0.3,0,0.5-0.1,0.8-0.2c0.3-0.1,0.5-0.3,0.7-0.4c0.2-0.2,0.3-0.4,0.4-0.7c0.1-0.3,0.2-0.5,0.2-0.8
		s-0.1-0.6-0.2-0.8c-0.1-0.2-0.3-0.5-0.4-0.6c-0.2-0.2-0.4-0.3-0.7-0.4c-0.3-0.1-0.5-0.2-0.8-0.2h-2v10c0,0.1,0,0.1-0.1,0.2
		c-0.1,0-0.1,0.1-0.2,0.1h-1.6c-0.1,0-0.2-0.1-0.2-0.2v-11.8c0-0.1,0.1-0.2,0.2-0.2h3.9V140.2z"/>
</g>
<g>
	<path d="M21.5,134.3c-0.4,0-0.5-0.1-0.5-0.4v-22.7c0-0.3,0.2-0.4,0.5-0.4h3.6c0.4,0,0.5,0.1,0.5,0.4v22.7c0,0.3-0.2,0.4-0.5,0.4
		H21.5z"/>
	<path d="M48.3,133.9c0.1,0.3,0,0.4-0.3,0.4h-4c-0.2,0-0.3,0-0.5-0.1s-0.3-0.2-0.3-0.3l-6.1-11.4l-2.5,2.7v8.7
		c0,0.1-0.1,0.2-0.2,0.3c-0.1,0.1-0.2,0.1-0.4,0.1h-3.6c-0.3,0-0.5-0.1-0.5-0.4v-22.7c0-0.1,0.1-0.2,0.2-0.3
		c0.1-0.1,0.2-0.1,0.4-0.1H34c0.1,0,0.3,0,0.4,0.1c0.1,0.1,0.2,0.2,0.2,0.3v7.7l7.4-7.8c0.2-0.2,0.5-0.4,0.9-0.4h4.9
		c0.3,0,0.4,0.1,0.2,0.4l-7.5,8L48.3,133.9z"/>
	<path d="M54.9,134.3h-3.6c-0.2,0-0.3,0-0.4-0.1c-0.1-0.1-0.2-0.2-0.2-0.3v-16.2c0-0.9,0.2-1.8,0.6-2.7s1-1.6,1.8-2.2
		c0.7-0.6,1.6-1.1,2.6-1.5s2-0.5,3.2-0.5s2.2,0.2,3.2,0.5c1,0.4,1.9,0.9,2.6,1.5s1.3,1.3,1.7,2.2c0.4,0.8,0.6,1.7,0.6,2.7v16.2
		c0,0.1-0.1,0.2-0.2,0.3s-0.2,0.1-0.4,0.1h-3.6c-0.1,0-0.2,0-0.4-0.1c-0.1-0.1-0.2-0.2-0.2-0.3v-7.4h-7v7.4c0,0.1-0.1,0.2-0.2,0.3
		C55.1,134.3,55,134.3,54.9,134.3z M62.4,122.5v-4.9c0-0.8-0.3-1.5-1-2.1s-1.5-0.9-2.5-0.9s-1.8,0.3-2.5,0.9s-1,1.3-1,2.1v4.9H62.4z
		"/>
	<path d="M71.9,110.8h8.8c1.3,0,2.5,0.2,3.6,0.6s2.1,1,3,1.7c0.8,0.7,1.5,1.6,2,2.5c0.5,1,0.7,2,0.7,3.1c0,1.5-0.4,2.8-1.3,4
		s-2,2.2-3.4,2.8l4.5,8.4c0.1,0.1,0.1,0.2,0,0.3s-0.2,0.1-0.3,0.1h-4c-0.2,0-0.3,0-0.5-0.1s-0.3-0.2-0.3-0.3l-4-7.4H76v7.4
		c0,0.1-0.1,0.2-0.2,0.3s-0.2,0.1-0.4,0.1h-3.6c-0.2,0-0.3,0-0.4-0.1s-0.2-0.2-0.2-0.3v-22.7C71.3,110.9,71.5,110.8,71.9,110.8z
		 M80.7,114.7H76v7.9h4.7c0.7,0,1.3-0.1,1.8-0.3c0.6-0.2,1-0.5,1.5-0.8c0.4-0.4,0.7-0.8,1-1.3c0.2-0.5,0.4-1,0.4-1.5
		s-0.1-1.1-0.4-1.5c-0.2-0.5-0.6-0.9-1-1.2c-0.4-0.4-0.9-0.6-1.5-0.8C81.9,114.8,81.3,114.7,80.7,114.7z"/>
	<path d="M98,110.8c0.3,0,0.5,0.1,0.5,0.4v16.2c0,0.8,0.3,1.5,1,2.1s1.5,0.9,2.5,0.9s1.8-0.3,2.5-0.9c0.7-0.6,1-1.3,1-2.1v-16.2
		c0-0.3,0.2-0.4,0.5-0.4h3.6c0.4,0,0.5,0.1,0.5,0.4v16.2c0,0.9-0.2,1.8-0.6,2.7c-0.4,0.8-1,1.6-1.7,2.2c-0.7,0.6-1.6,1.1-2.6,1.5
		s-2,0.5-3.2,0.5c-1.1,0-2.2-0.2-3.2-0.5c-1-0.4-1.9-0.9-2.6-1.5s-1.3-1.4-1.8-2.2c-0.4-0.8-0.6-1.7-0.6-2.7v-16.2
		c0-0.1,0.1-0.2,0.2-0.3c0.1-0.1,0.2-0.1,0.4-0.1C94.4,110.8,98,110.8,98,110.8z"/>
	<path d="M116.9,134c-0.3-0.1-0.8-0.3-1.3-0.5c-0.5-0.3-0.9-0.5-1.3-0.7c-0.3-0.2-0.5-0.4-0.5-0.7v-3.8c0-0.3,0.1-0.3,0.4-0.1
		c0.2,0.2,0.5,0.4,0.7,0.6c0.3,0.2,0.5,0.4,0.6,0.5c0.4,0.2,0.8,0.4,1.3,0.6c0.4,0.2,1,0.4,1.6,0.6c0.3,0.1,0.6,0.1,0.9,0.2
		c0.3,0,0.6,0.1,0.9,0.1c1.1,0,2.1-0.4,2.9-1.1c0.8-0.7,1.1-1.5,1.1-2.4c0-0.8-0.3-1.4-0.9-1.9c-0.7-0.5-1.8-1.1-3.2-1.7
		c-0.4-0.2-0.9-0.4-1.3-0.6s-0.7-0.4-1.1-0.5c-0.3-0.2-0.6-0.4-0.9-0.6s-0.6-0.4-0.9-0.7c-0.6-0.5-1.1-1.1-1.4-1.7
		c-0.4-0.7-0.5-1.5-0.5-2.4s0.3-1.7,0.8-2.5s1.1-1.5,1.9-2c0.8-0.6,1.7-1,2.7-1.4c1-0.3,2.1-0.5,3.2-0.5c0.8,0,1.6,0.1,2.3,0.3
		c0.3,0.1,0.7,0.2,1,0.4c0.4,0.2,0.7,0.3,0.9,0.4c0.1,0,0.2,0.1,0.3,0.3c0.1,0.1,0.1,0.3,0.1,0.4v3.1c0,0.3-0.1,0.3-0.4,0.2
		c-0.4-0.2-0.8-0.4-1.2-0.6c-0.4-0.2-1-0.4-1.7-0.5c-0.5-0.1-1-0.2-1.4-0.2c-1.1,0-2.1,0.4-2.8,0.9c-0.8,0.6-1.1,1.3-1.1,2
		s0.3,1.3,0.9,1.7c0.3,0.2,0.7,0.5,1.3,0.7c0.5,0.2,1.1,0.5,1.8,0.8c0.5,0.2,0.9,0.4,1.3,0.6s0.8,0.3,1.1,0.5
		c0.3,0.2,0.6,0.4,0.9,0.6s0.6,0.4,0.9,0.7c0.6,0.5,1.1,1.1,1.5,1.8c0.4,0.7,0.6,1.6,0.6,2.7c0,0.9-0.2,1.8-0.7,2.7
		c-0.5,0.8-1.1,1.6-1.9,2.2c-0.8,0.7-1.8,1.2-2.9,1.6c-1.1,0.4-2.2,0.6-3.3,0.6C118.8,134.4,117.8,134.3,116.9,134z"/>
</g>
<g>
	<g>
		<g>
			<path d="M105.9,51.1c0,1.4-0.5,10.5-3.3,10.5c-2.7,0-3.3-9.1-3.3-10.5s0.6-10.5,3.3-10.5C105.4,40.6,105.9,49.7,105.9,51.1
				c0.1,4.8,7.6,4.8,7.5,0c-0.2-6.4-2.2-18-10.8-18c-8.4,0-10.8,11.7-10.8,18c0,6.4,2.2,17.5,10.3,18c8.8,0.5,11-11.6,11.2-18
				C113.6,46.3,106.1,46.3,105.9,51.1z"/>
		</g>
	</g>
	<g>
		<path d="M51.6,38c0,0,8.9,2.9,15.9,17.5c4.9,10.3,6,24.4,6,24.4c0,0-2.4-14.8-7.1-24.3c-6.4-13.1-13.7-16-13.7-15.9
			c9.3,18.3-0.9,27.5-0.1,27.8C61,71.5,69.9,84.4,73.5,89c2,2.6,3.9-0.2,3.9-0.2s15-20.1,21.2-22.2c1.1-0.4-6.3-8.8,0.8-28.3
			c0,0-8.8,6.9-13.2,15.5c-6.1,11.9-8.5,26.4-8.5,26.4c0-0.1,1.5-15,7.7-27c4.4-8.6,14.2-15.4,14.2-15.5C103.4,27.6,45.9,27,51.6,38
			z"/>
	</g>
	<path d="M104.8,38.3c0,0,24.9-8.2,32.3-12.5c2.2-1.3,4.5-3.1,6.3-8.6c1.5-4.5,2.8-1.9,3.3,1c0.6,4.1-1.1,7.8-6.1,12.1
		c-7.6,6.5-32,15-32,15L104.8,38.3z"/>
	<path d="M108.3,47.1c0,0,24.4-1.2,32.1-3.1c2.3-0.6,5.1-1.3,7.6-6.1c1.9-3.8,3.5-0.2,2.8,2.5c-0.7,2.7-1.1,6.1-6.7,8.6
		c-8.4,3.9-33.7,6-33.7,6L108.3,47.1z"/>
	<path d="M110.2,56.8c0,0,18.7,4,25.3,4.3c2,0.1,4.5-0.6,7.1-2.5c3-2.2,3.6-0.6,2.4,1.5c-1.2,2.1-3.3,5.7-8.3,6.5
		c-7.6,1.2-28-2-28-2L110.2,56.8z"/>
	<path d="M47.2,38.3c0,0-24.9-8.2-32.3-12.5c-2.2-1.3-4.5-3.1-6.3-8.6c-1.5-4.5-2.8-1.9-3.3,1c-0.6,4.1,1.1,7.8,6.1,12.1
		c7.6,6.5,32,15,32,15L47.2,38.3z"/>
	<path d="M43.7,47.1c0,0-24.4-1.2-32.1-3.1c-2.3-0.6-5.1-1.3-7.6-6.1c-1.9-3.8-3.5-0.2-2.8,2.5s1.1,6.1,6.7,8.6
		c8.4,3.9,33.7,6,33.7,6L43.7,47.1z"/>
	<path d="M41.8,56.8c0,0-18.7,4-25.3,4.3c-2,0.1-4.5-0.6-7.1-2.5c-3-2.2-3.6-0.6-2.4,1.5c1.2,2.1,3.3,5.7,8.3,6.5c7.6,1.2,28-2,28-2
		L41.8,56.8z"/>
	<g>
		<g>
			<path d="M38.6,51.1c0.2,6.4,2.2,18,10.8,18c8.4,0,10.8-11.7,10.8-18c0-6.4-2.2-17.5-10.3-18C41,32.6,38.8,44.8,38.6,51.1
				c-0.1,4.8,7.4,4.8,7.5,0c0-1.4,0.5-10.5,3.3-10.5c2.7,0,3.3,9.1,3.3,10.5S52,61.7,49.3,61.7c-2.7,0-3.2-9.1-3.3-10.5
				C45.9,46.3,38.4,46.3,38.6,51.1z"/>
		</g>
	</g>
</g>
</svg>