<?xml version="1.0" encoding="utf-8"?>
<!-- Generator: Adobe Illustrator 22.0.0, SVG Export Plug-In . SVG Version: 6.00 Build 0)  -->
<svg version="1.1" xmlns="http://www.w3.org/2000/svg" xmlns:xlink="http://www.w3.org/1999/xlink" x="0px" y="0px"
	 viewBox="0 0 298.1 64" xml:space="preserve">
<g>
	<path d="M14,5.7H6.5v52.5H14V64H0V0h14V5.7z"/>
	<path d="M40.4,57.6V6.2h8.3v51.5H40.4z"/>
	<path d="M58.7,57.6V6.2h7.6v51.5H58.7z M76.9,57.6l-7.4-10.8c-0.6-0.9-1.1-1.7-1.5-2.3s-0.7-1.2-0.9-1.6c-0.2-0.5-0.3-0.9-0.4-1.3
		c-0.1-0.4-0.1-0.8-0.1-1.3c0-0.4,0-0.7,0-1c0-0.3,0.1-0.6,0.3-1c0.2-0.4,0.5-1,1-1.7c0.4-0.7,1-1.7,1.8-2.9l6.2-8.9h9.2L73.8,40.1
		l12.6,17.5H76.9z"/>
	<path d="M113.4,57.6v-3c-3,2.3-6.2,3.5-9.6,3.5c-2.3,0-4.4-0.5-6.4-1.3c-2-0.9-3.8-2.1-5.2-3.7c-1.5-1.5-2.7-3.3-3.6-5.4
		c-0.9-2-1.4-4.2-1.4-6.5s0.5-4.5,1.4-6.6c0.9-2.1,2.1-3.9,3.7-5.4c1.5-1.5,3.4-2.8,5.5-3.7c2.1-0.9,4.3-1.4,6.6-1.4
		c2.8,0,5.5,0.7,8.1,2c2.6,1.4,4.6,3.2,6.1,5.5c0.5,0.8,0.9,1.6,1.3,2.4s0.6,1.6,0.8,2.6c0.2,1,0.3,2,0.4,3.2
		c0.1,1.2,0.1,2.6,0.1,4.3v13.3H113.4z M100.6,32.4c-1.2,0.5-2.2,1.2-3.1,2c-0.9,0.8-1.6,1.9-2,3c-0.5,1.2-0.7,2.4-0.7,3.8
		c0,1.3,0.2,2.6,0.7,3.7c0.5,1.2,1.2,2.2,2,3s1.9,1.5,3,2c1.2,0.5,2.4,0.7,3.8,0.7c1.3,0,2.5-0.2,3.7-0.7s2.2-1.1,3-2s1.5-1.8,2-2.9
		c0.5-1.1,0.7-2.3,0.7-3.7c0-1.4-0.2-2.7-0.7-3.9c-0.5-1.2-1.1-2.2-2-3.1c-0.8-0.9-1.8-1.6-3-2.1c-1.1-0.5-2.4-0.7-3.7-0.7
		C103.1,31.6,101.8,31.9,100.6,32.4z"/>
	<path d="M128.2,57.6V38.3c0-4.5,1.1-8,3.4-10.3c2.3-2.4,5.5-3.5,9.6-3.5c0.2,0,0.5,0,0.8,0s0.7,0,1.1,0.1v7.3
		c-1.4,0.1-2.6,0.3-3.5,0.6s-1.7,0.8-2.2,1.4c-0.5,0.6-0.9,1.5-1.2,2.5c-0.2,1-0.3,2.3-0.3,3.9v17.4H128.2z"/>
	<path d="M155.6,24.7v16c0,1.9,0.1,3.4,0.3,4.4c0.2,1.1,0.5,2,1,2.8c0.5,0.8,1.2,1.5,2.1,2c0.9,0.5,1.9,0.8,2.9,0.8c1,0,2-0.2,3-0.7
		c0.9-0.5,1.7-1.1,2.2-2c0.5-0.8,0.8-1.6,1-2.6c0.2-1,0.3-2.4,0.3-4.2V24.7h7.6v18.7c0,2.1-0.2,3.9-0.7,5.4
		c-0.5,1.5-1.3,2.9-2.4,4.2c-1.3,1.6-2.9,2.9-4.8,3.8s-3.9,1.3-6.1,1.3c-2.2,0-4.2-0.4-6-1.3c-1.9-0.8-3.5-2.1-4.8-3.7
		c-1.2-1.4-2-2.8-2.4-4.3c-0.4-1.5-0.7-3.5-0.7-6V24.7H155.6z"/>
	<path d="M184.1,57.6V6.2h7.6v51.5H184.1z"/>
	<path d="M207.6,24.7v16c0,1.9,0.1,3.4,0.3,4.4c0.2,1.1,0.5,2,1,2.8c0.5,0.8,1.2,1.5,2.1,2c0.9,0.5,1.9,0.8,2.9,0.8c1,0,2-0.2,3-0.7
		c0.9-0.5,1.7-1.1,2.2-2c0.5-0.8,0.8-1.6,1-2.6c0.2-1,0.3-2.4,0.3-4.2V24.7h7.6v18.7c0,2.1-0.2,3.9-0.7,5.4
		c-0.5,1.5-1.3,2.9-2.4,4.2c-1.3,1.6-2.9,2.9-4.8,3.8s-3.9,1.3-6.1,1.3c-2.2,0-4.2-0.4-6-1.3c-1.9-0.8-3.5-2.1-4.8-3.7
		c-1.2-1.4-2-2.8-2.4-4.3c-0.4-1.5-0.7-3.5-0.7-6V24.7H207.6z"/>
	<path d="M255.1,33.1c-1.3-0.8-2.6-1.4-4.1-1.8c-1.4-0.4-2.8-0.6-4.2-0.6c-1.5,0-2.8,0.3-3.7,0.9c-0.9,0.6-1.3,1.5-1.3,2.5
		c0,1,0.5,1.7,1.6,2.2c0.3,0.1,0.5,0.2,0.7,0.3c0.2,0.1,0.5,0.2,0.8,0.3c0.3,0.1,0.7,0.2,1.3,0.4c0.6,0.2,1.4,0.4,2.4,0.7
		c1.4,0.4,2.6,0.8,3.5,1.3c0.9,0.4,1.6,0.9,2.2,1.5c0.9,0.8,1.6,1.8,2,3c0.5,1.2,0.7,2.4,0.7,3.7c0,1.6-0.3,3.1-0.9,4.4
		c-0.6,1.3-1.4,2.5-2.5,3.4c-1.1,1-2.4,1.7-3.9,2.2c-1.5,0.5-3.2,0.8-5.1,0.8c-1.6,0-3.2-0.2-4.8-0.5s-3.2-0.8-5-1.5v-7.7
		c3.9,1.9,7.2,2.8,10,2.8c1.5,0,2.7-0.3,3.6-0.9c0.8-0.6,1.3-1.4,1.3-2.4c0-0.5-0.1-0.9-0.2-1.2c-0.1-0.4-0.4-0.7-0.8-0.9
		c-0.4-0.3-1-0.5-1.7-0.8c-0.7-0.3-1.7-0.6-2.9-0.9c-3.4-0.9-5.9-2.2-7.4-3.7c-1.5-1.5-2.3-3.6-2.3-6.1c0-1.5,0.3-3,0.9-4.2
		c0.6-1.3,1.4-2.4,2.5-3.3c1.1-0.9,2.3-1.6,3.8-2.2c1.5-0.5,3.1-0.8,4.8-0.8c1.4,0,2.8,0.1,4.1,0.3c1.3,0.2,2.8,0.6,4.6,1.2V33.1z"
		/>
	<path d="M298.1,0v64h-14v-5.7h7.5V5.7h-7.5V0H298.1z"/>
</g>
</svg>
