<?xml version="1.0" encoding="utf-8"?>
<!-- Generator: Adobe Illustrator 22.0.0, SVG Export Plug-In . SVG Version: 6.00 Build 0)  -->
<svg version="1.1" xmlns="http://www.w3.org/2000/svg" xmlns:xlink="http://www.w3.org/1999/xlink" x="0px" y="0px"
	 viewBox="0 0 119 64" xml:space="preserve">
<g>
	<path d="M14,5.7H6.5v52.5H14V64H0V0h14V5.7z"/>
	<polygon points="35.7,26.1 35.7,14.8 44,14.8 44,17.8 59.3,2.6 59.3,2.6 59.3,2.6 74.4,17.7 82.7,26 91.3,34.7 91.4,34.7 
		85.5,40.6 82.7,37.8 82.7,57.7 74.4,57.7 74.4,29.5 59.3,14.3 44,29.6 44,57.6 44,57.7 35.7,57.7 35.7,37.9 33.5,40.1 27.6,34.3 	
		"/>
	<path d="M119,0v64h-14v-5.7h7.5V5.7H105V0H119z"/>
</g>
</svg>
