<?xml version="1.0" encoding="utf-8"?>
<!-- Generator: Adobe Illustrator 22.0.0, SVG Export Plug-In . SVG Version: 6.00 Build 0)  -->
<svg version="1.1" xmlns="http://www.w3.org/2000/svg" xmlns:xlink="http://www.w3.org/1999/xlink" x="0px" y="0px"
	 viewBox="0 0 219.3 55.7" xml:space="preserve">
<g>
	<path d="M104.7,38.9c0-0.1,0.1-0.2,0.3-0.2h1.5c0.1,0,0.1,0,0.1,0.1v0.1l-2.8,10.4c0,0.1-0.1,0.2-0.3,0.2h-1.6
		c-0.1,0-0.1,0-0.2-0.1c-0.1,0-0.1-0.1-0.1-0.2l-2.8-10.4c0-0.1,0-0.1,0-0.1l0.1-0.1h1.4c0.1,0,0.2,0.1,0.3,0.2l2,8.2L104.7,38.9z"
		/>
	<path d="M107.4,49.5c-0.1,0-0.2-0.1-0.2-0.2V39c0-0.1,0.1-0.2,0.2-0.2h1.4c0.1,0,0.2,0.1,0.2,0.2v10.4c0,0.1-0.1,0.2-0.2,0.2h-1.4
		V49.5z"/>
	<path d="M110.2,49.5c-0.1,0-0.1,0-0.2-0.1l-0.1-0.1V48c0-0.1,0.1-0.2,0.2-0.2c0.2,0,0.4-0.1,0.6-0.2c0.2-0.1,0.4-0.2,0.5-0.4
		s0.3-0.3,0.3-0.5c0.1-0.2,0.1-0.4,0.1-0.7v-3.6c0-0.5,0.1-0.9,0.3-1.4c0.2-0.4,0.4-0.8,0.7-1.1c0.3-0.3,0.7-0.6,1.1-0.8
		s0.9-0.3,1.3-0.3c0.1,0,0.2,0.1,0.2,0.2v1.4c0,0.1,0,0.1-0.1,0.1c0,0-0.1,0.1-0.2,0.1c-0.5,0.1-0.8,0.2-1.1,0.6
		c-0.3,0.3-0.5,0.7-0.5,1.2V46c0,0.5-0.1,0.9-0.3,1.3c-0.2,0.4-0.4,0.8-0.7,1.1c-0.3,0.3-0.7,0.6-1.1,0.8
		C111.1,49.4,110.7,49.5,110.2,49.5z"/>
	<path d="M118,38.7c0.1,0,0.2,0.1,0.2,0.2v7.4c0,0.4,0.1,0.7,0.4,1s0.6,0.4,1,0.4s0.7-0.1,1-0.4c0.3-0.3,0.4-0.6,0.4-1v-7.4
		c0-0.1,0.1-0.2,0.2-0.2h1.4c0.1,0,0.2,0.1,0.2,0.2v7.4c0,0.4-0.1,0.8-0.2,1.2c-0.2,0.4-0.4,0.7-0.7,1c-0.3,0.3-0.6,0.5-1,0.7
		s-0.8,0.2-1.2,0.2c-0.4,0-0.8-0.1-1.2-0.2s-0.7-0.4-1-0.7s-0.5-0.6-0.7-1s-0.2-0.8-0.2-1.2v-7.4c0-0.1,0-0.1,0.1-0.1l0.1-0.1
		C116.8,38.7,118,38.7,118,38.7z"/>
	<path d="M125.4,49.5H124c-0.1,0-0.1,0-0.2-0.1l-0.1-0.1v-7.4c0-0.4,0.1-0.8,0.2-1.2c0.2-0.4,0.4-0.7,0.7-1c0.3-0.3,0.6-0.5,1-0.7
		s0.8-0.2,1.2-0.2s0.8,0.1,1.2,0.2c0.4,0.2,0.7,0.4,1,0.7s0.5,0.6,0.7,1s0.2,0.8,0.2,1.2v7.4c0,0.1,0,0.1-0.1,0.1
		c0,0-0.1,0.1-0.2,0.1h-1.4c-0.1,0-0.1,0-0.1-0.1l-0.1-0.1v-3.4h-2.7v3.4c0,0.1,0,0.1-0.1,0.1C125.5,49.5,125.5,49.5,125.4,49.5z
		 M128.3,44.1v-2.3c0-0.4-0.1-0.7-0.4-1c-0.3-0.3-0.6-0.4-1-0.4s-0.7,0.1-1,0.4c-0.3,0.3-0.4,0.6-0.4,1v2.3H128.3z"/>
	<path d="M132.2,38.7h1.4c0.1,0,0.1,0,0.1,0.1l0.1,0.1v8.8h2.5c0.1,0,0.2,0.1,0.2,0.2v1.4c0,0.1-0.1,0.2-0.2,0.2h-4.1
		c-0.1,0-0.1,0-0.1-0.1l-0.1-0.1V39c0-0.1,0-0.1,0.1-0.1C132.2,38.8,132.2,38.7,132.2,38.7z"/>
	<path d="M141.4,49.5c-0.1,0-0.1,0-0.2-0.1l-0.1-0.1V48c0-0.1,0.1-0.2,0.2-0.2c0.2,0,0.4-0.1,0.6-0.2c0.2-0.1,0.4-0.2,0.5-0.4
		s0.3-0.3,0.3-0.5c0.1-0.2,0.1-0.4,0.1-0.7v-3.6c0-0.5,0.1-0.9,0.3-1.4c0.2-0.4,0.4-0.8,0.7-1.1s0.7-0.6,1.1-0.8
		c0.4-0.2,0.9-0.3,1.3-0.3c0.1,0,0.2,0.1,0.2,0.2v1.4c0,0.1,0,0.1-0.1,0.1c0,0-0.1,0.1-0.2,0.1c-0.5,0.1-0.8,0.2-1.1,0.6
		c-0.3,0.3-0.5,0.7-0.5,1.2V46c0,0.5-0.1,0.9-0.3,1.3c-0.2,0.4-0.4,0.8-0.7,1.1s-0.7,0.6-1.1,0.8C142.3,49.4,141.9,49.5,141.4,49.5z
		"/>
	<path d="M147.2,38.7h5c0.1,0,0.2,0.1,0.2,0.2v1.4c0,0.1-0.1,0.2-0.2,0.2h-1.6v8.8c0,0.1,0,0.1-0.1,0.1c0,0-0.1,0.1-0.2,0.1H149
		c-0.1,0-0.1,0-0.1-0.1l-0.1-0.1v-8.8h-1.6c-0.1,0-0.2-0.1-0.2-0.2v-1.4C147,38.8,147.1,38.7,147.2,38.7z"/>
	<path d="M158.1,38.7c0.7,0,1.4,0.1,2.1,0.4c0.7,0.3,1.2,0.7,1.7,1.2s0.9,1.1,1.2,1.7c0.3,0.7,0.4,1.4,0.4,2.1s-0.1,1.4-0.4,2.1
		c-0.3,0.7-0.7,1.2-1.2,1.7s-1.1,0.9-1.7,1.2c-0.7,0.3-1.4,0.4-2.1,0.4c-0.7,0-1.4-0.1-2.1-0.4c-0.7-0.3-1.2-0.7-1.7-1.2
		s-0.9-1.1-1.2-1.7c-0.3-0.7-0.4-1.4-0.4-2.1s0.1-1.4,0.4-2.1c0.3-0.7,0.7-1.2,1.2-1.7s1.1-0.9,1.7-1.2
		C156.6,38.9,157.3,38.7,158.1,38.7z M158.1,40.5c-0.5,0-1,0.1-1.4,0.3s-0.8,0.4-1.1,0.8c-0.3,0.3-0.6,0.7-0.8,1.1
		c-0.2,0.4-0.3,0.9-0.3,1.4s0.1,1,0.3,1.4s0.4,0.8,0.8,1.1c0.3,0.3,0.7,0.6,1.1,0.8c0.4,0.2,0.9,0.3,1.4,0.3s1-0.1,1.4-0.3
		s0.8-0.4,1.1-0.8c0.3-0.3,0.6-0.7,0.8-1.1c0.2-0.4,0.3-0.9,0.3-1.4s-0.1-1-0.3-1.4s-0.4-0.8-0.8-1.1c-0.3-0.3-0.7-0.6-1.1-0.8
		C159,40.6,158.6,40.5,158.1,40.5z"/>
	<path d="M167.7,38.8c0.5,0,1,0.1,1.4,0.3s0.8,0.4,1.1,0.8c0.3,0.3,0.6,0.7,0.8,1.1c0.2,0.4,0.3,0.9,0.3,1.4c0,0.7-0.2,1.3-0.5,1.8
		c-0.3,0.6-0.8,1-1.3,1.3l1.8,3.9c0.1,0.1,0,0.2-0.1,0.2h-1.6c-0.1,0-0.1,0-0.2-0.1c-0.1,0-0.1-0.1-0.1-0.1l-0.6-1.4l-1.6-3.6
		c-0.1-0.1,0-0.2,0.1-0.2h0.6c0.2,0,0.5,0,0.7-0.1s0.4-0.2,0.6-0.4c0.2-0.2,0.3-0.4,0.4-0.6c0.1-0.2,0.1-0.5,0.1-0.7
		c0-0.3,0-0.5-0.1-0.7s-0.2-0.4-0.4-0.6c-0.2-0.2-0.4-0.3-0.6-0.4c-0.2-0.1-0.5-0.1-0.7-0.1H166v8.8c0,0.1,0,0.1-0.1,0.1l-0.1,0.1
		h-1.4c-0.1,0-0.2-0.1-0.2-0.2V39c0-0.1,0.1-0.2,0.2-0.2H167.7z"/>
	<path d="M177.4,38.9c0-0.1,0.1-0.1,0.1-0.1c0.1,0,0.1-0.1,0.2-0.1h1.5c0.1,0,0.2,0.1,0.1,0.2l-2.8,6.7v3.7c0,0.1-0.1,0.2-0.2,0.2
		H175c-0.1,0-0.2-0.1-0.2-0.2v-3.7l-2.8-6.7c-0.1-0.1,0-0.2,0.1-0.2h1.5c0.1,0,0.2,0.1,0.3,0.2l1.7,4.4L177.4,38.9z"/>
	<path d="M181.2,38.8c0.1,0,0.1,0,0.2,0c0.1,0,0.1,0.1,0.1,0.1l1.7,2.2l1.7-2.2l0.1-0.1c0.1,0,0.1,0,0.2,0h1.4
		c0.1,0,0.2,0.1,0.2,0.2v10.4c0,0.1-0.1,0.2-0.2,0.2h-1.4c-0.1,0-0.2-0.1-0.2-0.2v-7.6l-1.7,2.2c0,0.1-0.1,0.1-0.1,0.1
		c-0.1,0-0.1,0-0.1-0.1l-1.7-2.2v7.6c0,0.1-0.1,0.2-0.2,0.2h-1.4c-0.1,0-0.2-0.1-0.2-0.2V39c0-0.1,0.1-0.2,0.2-0.2H181.2z"/>
	<path d="M189.6,49.5h-1.4c-0.1,0-0.1,0-0.2-0.1l-0.1-0.1v-7.4c0-0.4,0.1-0.8,0.2-1.2c0.2-0.4,0.4-0.7,0.7-1s0.6-0.5,1-0.7
		s0.8-0.2,1.2-0.2s0.8,0.1,1.2,0.2s0.7,0.4,1,0.7s0.5,0.6,0.7,1s0.2,0.8,0.2,1.2v7.4c0,0.1,0,0.1-0.1,0.1c0,0-0.1,0.1-0.2,0.1h-1.4
		c-0.1,0-0.1,0-0.1-0.1l-0.1-0.1v-3.4h-2.7v3.4c0,0.1,0,0.1-0.1,0.1C189.7,49.5,189.7,49.5,189.6,49.5z M192.5,44.1v-2.3
		c0-0.4-0.1-0.7-0.4-1c-0.3-0.3-0.6-0.4-1-0.4s-0.7,0.1-1,0.4c-0.3,0.3-0.4,0.6-0.4,1v2.3H192.5z"/>
	<path d="M203.3,49.4c0.1,0.1,0,0.2-0.1,0.2h-1.6c-0.1,0-0.1,0-0.2-0.1c-0.1,0-0.1-0.1-0.1-0.1l-2.4-5.2l-1,1.2v4
		c0,0.1,0,0.1-0.1,0.1l-0.1,0.1h-1.4c-0.1,0-0.2-0.1-0.2-0.2V39c0-0.1,0-0.1,0.1-0.1l0.1-0.1h1.4c0.1,0,0.1,0,0.1,0.1l0.1,0.1v3.5
		l2.8-3.6c0.1-0.1,0.2-0.2,0.3-0.2h1.9c0.1,0,0.1,0.1,0.1,0.2l-2.9,3.6L203.3,49.4z"/>
	<path d="M203.8,38.7h5c0.1,0,0.2,0.1,0.2,0.2v1.4c0,0.1-0.1,0.2-0.2,0.2h-3.4v1.8h2.5c0.1,0,0.2,0.1,0.2,0.2v1.4
		c0,0.1,0,0.1-0.1,0.1l-0.1,0.1h-2.5v3.6h3.4c0.1,0,0.2,0.1,0.2,0.2v1.4c0,0.1,0,0.1-0.1,0.1c0,0-0.1,0.1-0.2,0.1h-5
		c-0.1,0-0.1,0-0.2-0.1l-0.1-0.1V38.9C203.6,38.8,203.7,38.7,203.8,38.7z"/>
	<path d="M213.4,38.8c0.5,0,1,0.1,1.4,0.3s0.8,0.4,1.1,0.8c0.3,0.3,0.6,0.7,0.8,1.1c0.2,0.4,0.3,0.9,0.3,1.4c0,0.7-0.2,1.3-0.5,1.8
		c-0.3,0.6-0.8,1-1.3,1.3l1.8,3.9c0.1,0.1,0,0.2-0.1,0.2h-1.6c-0.1,0-0.1,0-0.2-0.1c-0.1,0-0.1-0.1-0.1-0.1l-0.6-1.4l-1.6-3.6
		c-0.1-0.1,0-0.2,0.1-0.2h0.6c0.2,0,0.5,0,0.7-0.1s0.4-0.2,0.6-0.4c0.2-0.2,0.3-0.4,0.4-0.6c0.1-0.2,0.1-0.5,0.1-0.7
		c0-0.3,0-0.5-0.1-0.7s-0.2-0.4-0.4-0.6c-0.2-0.2-0.4-0.3-0.6-0.4s-0.5-0.1-0.7-0.1h-1.8v8.8c0,0.1,0,0.1-0.1,0.1l-0.1,0.1H210
		c-0.1,0-0.2-0.1-0.2-0.2V39c0-0.1,0.1-0.2,0.2-0.2H213.4z"/>
</g>
<g>
	<path d="M101.2,32.3c-0.4,0-0.6-0.2-0.6-0.5V7.2c0-0.3,0.2-0.5,0.6-0.5h3.9c0.4,0,0.6,0.2,0.6,0.5v24.7c0,0.3-0.2,0.5-0.6,0.5h-3.9
		V32.3z"/>
	<path d="M130.3,31.9c0.1,0.3,0,0.4-0.3,0.4h-4.4c-0.2,0-0.3,0-0.5-0.1s-0.3-0.2-0.3-0.3l-6.6-12.4l-2.7,2.9v9.4
		c0,0.1-0.1,0.2-0.2,0.3c-0.1,0.1-0.3,0.1-0.4,0.1H111c-0.4,0-0.6-0.2-0.6-0.5V7.2c0-0.1,0.1-0.2,0.2-0.3c0.1-0.1,0.2-0.2,0.4-0.2
		h3.9c0.1,0,0.3,0.1,0.4,0.2s0.2,0.2,0.2,0.3v8.4l8-8.5c0.3-0.3,0.6-0.4,1-0.4h5.3c0.3,0,0.4,0.1,0.2,0.4l-8.2,8.7L130.3,31.9z"/>
	<path d="M137.5,32.3h-3.9c-0.2,0-0.3-0.1-0.4-0.2c-0.1-0.1-0.2-0.2-0.2-0.3V14.1c0-1,0.2-2,0.7-2.9s1.1-1.7,1.9-2.4
		c0.8-0.7,1.8-1.2,2.8-1.6c1.1-0.4,2.2-0.6,3.4-0.6s2.4,0.2,3.4,0.6c1.1,0.4,2,0.9,2.8,1.6s1.4,1.5,1.9,2.4s0.7,1.9,0.7,2.9v17.7
		c0,0.1-0.1,0.2-0.2,0.3c-0.1,0.1-0.3,0.2-0.4,0.2h-3.9c-0.1,0-0.3-0.1-0.4-0.2c-0.1-0.1-0.2-0.2-0.2-0.3v-8H138v8
		c0,0.1-0.1,0.2-0.2,0.3C137.8,32.2,137.6,32.3,137.5,32.3z M145.7,19.5v-5.4c0-0.9-0.4-1.6-1.1-2.3c-0.7-0.6-1.6-0.9-2.7-0.9
		c-1.1,0-2,0.3-2.7,0.9c-0.7,0.6-1.1,1.4-1.1,2.3v5.4H145.7z"/>
	<path d="M156,6.7h9.5c1.4,0,2.7,0.2,3.9,0.7c1.2,0.4,2.3,1.1,3.2,1.8c0.9,0.8,1.6,1.7,2.2,2.7c0.5,1,0.8,2.1,0.8,3.3
		c0,1.6-0.5,3.1-1.4,4.4c-1,1.3-2.2,2.3-3.7,3.1l4.9,9.2c0.1,0.1,0.1,0.2,0,0.3s-0.2,0.1-0.3,0.1h-4.4c-0.2,0-0.3,0-0.5-0.1
		s-0.3-0.2-0.3-0.3l-4.3-8.1h-5v8c0,0.1-0.1,0.2-0.2,0.3c-0.1,0.1-0.3,0.2-0.4,0.2h-4c-0.2,0-0.3-0.1-0.4-0.2
		c-0.1-0.1-0.2-0.2-0.2-0.3V7.1C155.4,6.8,155.6,6.7,156,6.7z M165.5,10.9h-5.1v8.5h5.1c0.7,0,1.4-0.1,2-0.3
		c0.6-0.2,1.1-0.5,1.6-0.9s0.8-0.8,1.1-1.4c0.3-0.5,0.4-1.1,0.4-1.7c0-0.6-0.1-1.2-0.4-1.7c-0.3-0.5-0.6-1-1.1-1.3
		c-0.5-0.4-1-0.7-1.6-0.9C166.9,11,166.2,10.9,165.5,10.9z"/>
	<path d="M184.4,6.7c0.4,0,0.6,0.2,0.6,0.5v17.7c0,0.9,0.4,1.7,1.1,2.3c0.7,0.6,1.6,0.9,2.7,0.9c1,0,1.9-0.3,2.7-0.9
		c0.7-0.6,1.1-1.4,1.1-2.3V7.1c0-0.3,0.2-0.5,0.6-0.5h3.9c0.4,0,0.6,0.2,0.6,0.5v17.7c0,1-0.2,2-0.7,2.9s-1.1,1.7-1.9,2.4
		c-0.8,0.7-1.7,1.2-2.8,1.6c-1.1,0.4-2.2,0.6-3.4,0.6s-2.4-0.2-3.4-0.6c-1.1-0.4-2-0.9-2.8-1.6s-1.4-1.5-1.9-2.4s-0.7-1.9-0.7-2.9
		V7.1c0-0.1,0.1-0.2,0.2-0.3c0.1-0.1,0.3-0.1,0.4-0.1H184.4z"/>
	<path d="M205,32c-0.4-0.1-0.8-0.3-1.4-0.6s-1-0.5-1.4-0.7c-0.3-0.2-0.5-0.4-0.5-0.8v-4.2c0-0.3,0.1-0.3,0.4-0.1
		c0.2,0.2,0.5,0.4,0.8,0.7c0.3,0.3,0.5,0.4,0.7,0.5c0.4,0.2,0.9,0.4,1.4,0.7c0.5,0.2,1.1,0.5,1.7,0.6c0.3,0.1,0.6,0.1,1,0.2
		c0.3,0,0.6,0.1,1,0.1c1.2,0,2.3-0.4,3.1-1.1c0.8-0.8,1.2-1.7,1.2-2.7c0-0.9-0.3-1.5-1-2c-0.8-0.6-1.9-1.2-3.5-1.9
		c-0.5-0.2-0.9-0.4-1.4-0.6c-0.4-0.2-0.8-0.4-1.1-0.6s-0.7-0.4-1-0.6s-0.6-0.5-1-0.7c-0.7-0.5-1.2-1.2-1.6-1.9
		c-0.4-0.8-0.6-1.7-0.6-2.6c0-1,0.3-1.9,0.9-2.8c0.5-0.8,1.2-1.6,2-2.2c0.9-0.6,1.8-1.1,2.9-1.5c1.1-0.4,2.3-0.5,3.4-0.5
		c0.9,0,1.7,0.1,2.5,0.3c0.4,0.1,0.7,0.3,1.1,0.4c0.4,0.2,0.7,0.3,1,0.4c0.1,0,0.3,0.2,0.3,0.3c0.1,0.2,0.1,0.3,0.1,0.4v3.3
		c0,0.3-0.2,0.4-0.5,0.2c-0.4-0.2-0.8-0.5-1.3-0.7c-0.4-0.2-1-0.4-1.8-0.6c-0.5-0.1-1-0.2-1.6-0.2c-1.2,0-2.2,0.4-3.1,1
		c-0.8,0.6-1.2,1.4-1.2,2.2s0.4,1.4,1,1.9c0.3,0.3,0.8,0.5,1.4,0.8c0.6,0.3,1.2,0.6,2,0.9c0.5,0.2,1,0.4,1.5,0.6
		c0.4,0.2,0.8,0.4,1.2,0.5c0.3,0.2,0.7,0.4,1,0.6s0.7,0.5,1,0.7c0.7,0.6,1.2,1.2,1.6,2c0.4,0.8,0.6,1.8,0.7,2.9c0,1-0.3,2-0.8,2.9
		s-1.2,1.7-2.1,2.4c-0.9,0.7-1.9,1.3-3.1,1.7c-1.2,0.4-2.4,0.6-3.6,0.6C207.1,32.4,205.9,32.3,205,32z"/>
</g>
<g>
	<g>
		<path d="M66,29.4c0,0.8-0.5,6.4-1.8,6.4c-1.3,0-1.8-5.5-1.8-6.4c0-1.2,0.2-6.1,1.9-6.4C65.2,22.9,65.9,28.6,66,29.4
			c0.1,3.4,5.4,3.4,5.3,0c-0.1-4.2-1.5-11.6-7-11.6c-5.4,0-7,7.4-7,11.6c0,4.2,1.5,11.1,6.7,11.6c5.8,0.5,7.2-7.4,7.4-11.6
			C71.3,26,66.1,26.1,66,29.4z"/>
	</g>
</g>
<g>
	<path d="M32,21.2c0,0,5.6,1.8,10,11c3.1,6.5,3.8,15.4,3.8,15.4c0,0-1.5-9.3-4.5-15.3c-4-8.2-8.6-10.1-8.6-10
		c5.8,11.5-0.6,17.3-0.1,17.5c5.3,2.4,10.9,10.5,13.1,13.4c1.3,1.6,2.5-0.1,2.5-0.1s9.4-12.7,13.3-13.9c0.7-0.2-4-5.5,0.5-17.8
		c0,0-5.5,4.3-8.3,9.7c-3.9,7.5-5.3,16.6-5.3,16.6c0,0,1-9.4,4.9-17c2.8-5.4,8.9-9.7,8.9-9.7C64.6,14.6,28.4,14.3,32,21.2z"/>
</g>
<path d="M65.5,21.4c0,0,15.7-5.2,20.3-7.9c1.4-0.8,2.9-1.9,4-5.4c0.9-2.8,1.8-1.2,2.1,0.7c0.4,2.5-0.7,4.9-3.8,7.6
	c-4.8,4.1-20.1,9.4-20.1,9.4L65.5,21.4z"/>
<path d="M67.7,26.9c0,0,15.3-0.7,20.2-1.9c1.5-0.4,3.2-0.8,4.8-3.8c1.2-2.4,2.2-0.2,1.7,1.6c-0.5,1.7-0.7,3.8-4.2,5.4
	C84.9,30.5,69,31.9,69,31.9L67.7,26.9z"/>
<path d="M68.9,33c0,0,11.7,2.5,15.9,2.7c1.3,0.1,2.8-0.4,4.5-1.6c1.9-1.4,2.3-0.4,1.5,0.9s-2.1,3.6-5.2,4.1
	C80.8,39.9,68,37.9,68,37.9L68.9,33z"/>
<path d="M29.3,21.4c0,0-15.7-5.2-20.3-7.9c-1.4-0.8-2.9-1.9-4-5.4C4.1,5.2,3.2,6.9,3,8.7c-0.4,2.5,0.7,4.9,3.8,7.6
	c4.8,4.1,20.1,9.4,20.1,9.4L29.3,21.4z"/>
<path d="M27.1,26.9c0,0-15.3-0.7-20.2-1.9c-1.5-0.4-3.2-0.8-4.8-3.8C0.9,18.7,0,21,0.4,22.7c0.5,1.7,0.7,3.8,4.2,5.4
	c5.3,2.4,21.2,3.8,21.2,3.8L27.1,26.9z"/>
<path d="M25.9,33c0,0-11.7,2.5-15.9,2.7c-1.3,0.1-2.8-0.4-4.5-1.6C3.6,32.7,3.3,33.7,4,35s2.1,3.6,5.2,4.1
	c4.8,0.8,17.6-1.3,17.6-1.3L25.9,33z"/>
<g>
	<g>
		<path d="M23.6,29.4c0.1,4.2,1.5,11.6,7,11.6c5.4,0,7-7.4,7-11.6c0-4.2-1.5-11.1-6.7-11.6C25.2,17.4,23.7,25.2,23.6,29.4
			c-0.1,3.4,5.1,3.4,5.3,0c0-0.8,0.5-6.4,1.8-6.4c1.3,0,1.8,5.5,1.8,6.4c0,1.2-0.2,6.1-1.9,6.4c-0.9,0.1-1.7-5.5-1.7-6.4
			C28.7,26.1,23.5,26,23.6,29.4z"/>
	</g>
</g>
</svg>