<?xml version="1.0" encoding="utf-8"?>
<!-- Generator: Adobe Illustrator 22.0.0, SVG Export Plug-In . SVG Version: 6.00 Build 0)  -->
<svg version="1.1" xmlns="http://www.w3.org/2000/svg" xmlns:xlink="http://www.w3.org/1999/xlink" x="0px" y="0px"
	 viewBox="0 0 332 384.9" style="enable-background:new 0 0 332 384.9;" xml:space="preserve">
<style type="text/css">
	.ktklogost0{fill:url(#SVGID_1_);}
	.ktklogost1{fill:#FFFFFF;}
	.ktklogost2{opacity:0.75;}
	.ktklogost3{fill:#9590FF;}
	.ktklogost4{opacity:0.75;fill:#9590FF;}
	.ktklogost5{opacity:0.12;fill:#FFB94D;}
	.ktklogost6{fill:#FFB94D;}
	.ktklogost7{fill:url(#SVGID_2_);}
	.ktklogost8{fill:#FFBD60;}
	.ktklogost9{opacity:0.75;fill:#FFBD60;}
	.ktklogost10{opacity:0.12;fill:#0FA972;}
	.ktklogost11{fill:#0FA972;}
	.ktklogost12{fill:#004393;}
	.ktklogost13{fill:#00000C;}
	.ktklogost14{fill:#003C57;}
</style>
<g>
	<g>
		<path d="M85.9,347.2c0.2,0.6,0,0.9-0.6,0.9h-7.6c-0.3,0-0.6-0.1-0.9-0.3c-0.3-0.2-0.5-0.4-0.6-0.6l-11.5-25.5l-4.7,6v19.5
			c0,0.2-0.1,0.5-0.3,0.7c-0.2,0.2-0.5,0.3-0.7,0.3H52c-0.6,0-1-0.3-1-1v-50.8c0-0.2,0.1-0.5,0.3-0.7c0.2-0.2,0.4-0.3,0.7-0.3h6.8
			c0.2,0,0.5,0.1,0.7,0.3c0.2,0.2,0.3,0.5,0.3,0.7v17.2l13.9-17.5c0.4-0.5,1-0.8,1.7-0.8h9.3c0.6,0,0.7,0.3,0.4,0.8l-14.3,17.8
			L85.9,347.2z"/>
		<path d="M112.4,295.3c3.7,0,7.1,0.7,10.3,2.1c3.2,1.4,6,3.3,8.4,5.7c2.4,2.4,4.3,5.2,5.7,8.4c1.4,3.2,2.1,6.6,2.1,10.3
			c0,3.7-0.7,7.1-2.1,10.3c-1.4,3.2-3.3,6-5.7,8.4c-2.4,2.4-5.2,4.3-8.4,5.7c-3.2,1.4-6.6,2.1-10.3,2.1c-3.7,0-7.1-0.7-10.3-2.1
			c-3.2-1.4-6-3.3-8.4-5.7c-2.4-2.4-4.3-5.2-5.7-8.4c-1.4-3.2-2.1-6.6-2.1-10.3c0-3.7,0.7-7.1,2.1-10.3c1.4-3.2,3.3-6,5.7-8.4
			c2.4-2.4,5.2-4.3,8.4-5.7C105.3,296,108.8,295.3,112.4,295.3z M112.4,304.1c-2.4,0-4.7,0.5-6.8,1.4c-2.1,0.9-4,2.2-5.6,3.8
			c-1.6,1.6-2.8,3.5-3.8,5.6c-0.9,2.1-1.4,4.4-1.4,6.8c0,2.4,0.5,4.7,1.4,6.8c0.9,2.1,2.2,4,3.8,5.6c1.6,1.6,3.4,2.8,5.6,3.8
			c2.1,0.9,4.4,1.4,6.8,1.4c2.4,0,4.7-0.5,6.8-1.4c2.1-0.9,4-2.2,5.6-3.8c1.6-1.6,2.8-3.4,3.8-5.6c0.9-2.1,1.4-4.4,1.4-6.8
			c0-2.4-0.5-4.7-1.4-6.8c-0.9-2.1-2.2-4-3.8-5.6c-1.6-1.6-3.4-2.9-5.6-3.8C117.1,304.5,114.8,304.1,112.4,304.1z"/>
		<path d="M146.2,295.3h6.8c0.6,0,1.2,0.2,1.7,0.7l12.5,13v-12.7c0-0.6,0.3-1,1-1h6.8c0.7,0,1,0.3,1,1v50.8c0,0.6-0.3,1-1,1h-6.8
			c-0.6,0-1-0.3-1-1v-25.4L153.9,308v39.1c0,0.6-0.3,1-1,1h-6.8c-0.7,0-1-0.3-1-1v-50.8C145.1,295.7,145.5,295.3,146.2,295.3z"/>
		<path d="M184.4,295.3h24.4c0.7,0,1,0.3,1,1v6.8c0,0.7-0.3,1-1,1H201v43c0,0.2-0.1,0.5-0.3,0.7c-0.2,0.2-0.4,0.3-0.7,0.3h-6.8
			c-0.2,0-0.5-0.1-0.7-0.3c-0.2-0.2-0.3-0.5-0.3-0.7v-43h-7.8c-0.6,0-1-0.3-1-1v-6.8C183.4,295.6,183.7,295.3,184.4,295.3z"/>
		<path d="M217.5,348.1c-0.7,0-1-0.3-1-1v-50.8c0-0.6,0.3-1,1-1h6.7c0.7,0,1,0.3,1,1v50.8c0,0.6-0.3,1-1,1H217.5z"/>
		<path d="M268.2,347.2c0.2,0.6,0,0.9-0.6,0.9H260c-0.3,0-0.6-0.1-0.9-0.3c-0.3-0.2-0.5-0.4-0.6-0.6L247,321.7l-4.7,6v19.5
			c0,0.2-0.1,0.5-0.3,0.7c-0.2,0.2-0.5,0.3-0.7,0.3h-6.8c-0.6,0-1-0.3-1-1v-50.8c0-0.2,0.1-0.5,0.3-0.7c0.2-0.2,0.4-0.3,0.7-0.3h6.8
			c0.2,0,0.5,0.1,0.7,0.3c0.2,0.2,0.3,0.5,0.3,0.7v17.2l13.9-17.5c0.4-0.5,1-0.8,1.7-0.8h9.3c0.6,0,0.7,0.3,0.4,0.8l-14.3,17.8
			L268.2,347.2z"/>
		<path d="M275.7,348.1c-0.7,0-1-0.3-1-1v-50.8c0-0.6,0.3-1,1-1h6.7c0.7,0,1,0.3,1,1v50.8c0,0.6-0.3,1-1,1H275.7z"/>
	</g>
	<g>
		<path d="M54.6,358.4c0.3,0,0.5,0.2,0.5,0.5v3.2c0,0.1,0,0.2-0.1,0.3c-0.1,0.1-0.2,0.1-0.3,0.1c-0.2,0-0.5-0.1-0.8-0.1
			s-0.5,0-0.8,0c-1.1,0-2.2,0.2-3.1,0.6c-1,0.4-1.8,1-2.6,1.7c-0.7,0.7-1.3,1.6-1.7,2.6c-0.4,1-0.6,2-0.6,3.1s0.2,2.2,0.6,3.1
			c0.4,1,1,1.8,1.7,2.6c0.7,0.7,1.6,1.3,2.6,1.7c1,0.4,2,0.6,3.1,0.6c0.5,0,1-0.1,1.6-0.2c0.3,0,0.4,0.1,0.4,0.4v3.2
			c0,0.1,0,0.2-0.1,0.3c-0.1,0.1-0.2,0.2-0.3,0.2c-0.2,0-0.5,0-0.8,0.1c-0.3,0-0.5,0-0.8,0c-1.7,0-3.3-0.3-4.7-1
			c-1.5-0.6-2.8-1.5-3.8-2.6s-1.9-2.4-2.6-3.9c-0.6-1.5-1-3-1-4.7c0-1.7,0.3-3.3,1-4.7s1.5-2.8,2.6-3.9s2.4-2,3.8-2.6
			c1.5-0.6,3-1,4.7-1C53.5,358.3,54,358.3,54.6,358.4z"/>
		<path d="M58.9,358.3h7.6c1.1,0,2.2,0.2,3.1,0.6c1,0.4,1.8,1,2.6,1.7c0.7,0.7,1.3,1.6,1.7,2.6c0.4,1,0.6,2,0.6,3.1
			c0,1.5-0.4,2.9-1.2,4.1c-0.8,1.2-1.8,2.2-3,2.9l3.9,8.7c0,0.1,0,0.2,0,0.3c0,0.1-0.1,0.1-0.3,0.1h-3.5c-0.1,0-0.3,0-0.4-0.1
			c-0.1-0.1-0.2-0.2-0.3-0.3l-3.5-7.6h-4v7.6c0,0.1,0,0.2-0.1,0.3c-0.1,0.1-0.2,0.2-0.3,0.2h-3.1c-0.1,0-0.3-0.1-0.3-0.2
			c-0.1-0.1-0.1-0.2-0.1-0.3v-23.4C58.4,358.4,58.6,358.3,58.9,358.3z M66.5,362.3h-4v8.1h4c0.6,0,1.1-0.1,1.6-0.3
			c0.5-0.2,0.9-0.5,1.3-0.9c0.4-0.4,0.7-0.8,0.9-1.3c0.2-0.5,0.3-1,0.3-1.6c0-0.6-0.1-1.1-0.3-1.6c-0.2-0.5-0.5-0.9-0.9-1.3
			c-0.4-0.4-0.8-0.7-1.3-0.9C67.6,362.4,67.1,362.3,66.5,362.3z"/>
		<path d="M78.5,358.3h11.2c0.3,0,0.5,0.1,0.5,0.4v3.1c0,0.3-0.2,0.5-0.5,0.5h-7.6v4h5.6c0.3,0,0.4,0.1,0.4,0.4v3.1
			c0,0.1,0,0.2-0.1,0.3c-0.1,0.1-0.2,0.2-0.3,0.2h-5.6v8.1h7.6c0.3,0,0.5,0.1,0.5,0.4v3.1c0,0.1,0,0.2-0.1,0.3
			c-0.1,0.1-0.2,0.2-0.3,0.2H78.5c-0.1,0-0.3-0.1-0.3-0.2c-0.1-0.1-0.1-0.2-0.1-0.3v-23.4C78,358.4,78.2,358.3,78.5,358.3z"/>
		<path d="M97.2,382.6H94c-0.1,0-0.3-0.1-0.3-0.2c-0.1-0.1-0.1-0.2-0.1-0.3v-16.7c0-1,0.2-1.9,0.6-2.8c0.4-0.9,0.9-1.6,1.5-2.2
			c0.6-0.6,1.4-1.1,2.3-1.5c0.9-0.4,1.8-0.6,2.8-0.6c1,0,1.9,0.2,2.8,0.6s1.6,0.9,2.2,1.5c0.6,0.6,1.1,1.4,1.5,2.2
			c0.4,0.9,0.6,1.8,0.6,2.8v16.7c0,0.1,0,0.2-0.1,0.3c-0.1,0.1-0.2,0.2-0.3,0.2h-3.1c-0.1,0-0.2-0.1-0.3-0.2
			c-0.1-0.1-0.1-0.2-0.1-0.3v-7.6h-6.1v7.6c0,0.1,0,0.2-0.1,0.3C97.4,382.5,97.3,382.6,97.2,382.6z M103.7,370.4v-5.1
			c0-0.8-0.3-1.6-0.9-2.1c-0.6-0.6-1.3-0.9-2.1-0.9c-0.9,0-1.6,0.3-2.2,0.9c-0.6,0.6-0.9,1.3-0.9,2.1v5.1H103.7z"/>
		<path d="M111.6,358.3h11.2c0.3,0,0.5,0.1,0.5,0.4v3.1c0,0.3-0.2,0.5-0.5,0.5h-3.6v19.8c0,0.1,0,0.2-0.1,0.3
			c-0.1,0.1-0.2,0.2-0.3,0.2h-3.1c-0.1,0-0.2-0.1-0.3-0.2c-0.1-0.1-0.1-0.2-0.1-0.3v-19.8h-3.6c-0.3,0-0.4-0.2-0.4-0.5v-3.1
			C111.1,358.4,111.3,358.3,111.6,358.3z"/>
		<path d="M126.8,382.6c-0.3,0-0.5-0.1-0.5-0.4v-23.4c0-0.3,0.2-0.4,0.5-0.4h3.1c0.3,0,0.5,0.1,0.5,0.4v23.4c0,0.3-0.2,0.4-0.5,0.4
			H126.8z"/>
		<path d="M145.4,358.3c1.7,0,3.3,0.3,4.7,1c1.5,0.6,2.8,1.5,3.9,2.6c1.1,1.1,2,2.4,2.6,3.9c0.6,1.5,1,3,1,4.7c0,1.7-0.3,3.3-1,4.7
			c-0.6,1.5-1.5,2.8-2.6,3.9c-1.1,1.1-2.4,2-3.9,2.6c-1.5,0.6-3,1-4.7,1c-1.7,0-3.3-0.3-4.7-1c-1.5-0.6-2.8-1.5-3.9-2.6
			c-1.1-1.1-2-2.4-2.6-3.9c-0.6-1.5-1-3-1-4.7c0-1.7,0.3-3.3,1-4.7s1.5-2.8,2.6-3.9c1.1-1.1,2.4-2,3.9-2.6
			C142.2,358.6,143.7,358.3,145.4,358.3z M145.4,362.3c-1.1,0-2.2,0.2-3.1,0.6c-1,0.4-1.8,1-2.6,1.7c-0.7,0.7-1.3,1.6-1.7,2.6
			c-0.4,1-0.6,2-0.6,3.1s0.2,2.2,0.6,3.1c0.4,1,1,1.8,1.7,2.6c0.7,0.7,1.6,1.3,2.6,1.7c1,0.4,2,0.6,3.1,0.6c1.1,0,2.2-0.2,3.1-0.6
			c1-0.4,1.8-1,2.6-1.7c0.7-0.7,1.3-1.6,1.7-2.6c0.4-1,0.6-2,0.6-3.1s-0.2-2.2-0.6-3.1c-0.4-1-1-1.8-1.7-2.6
			c-0.7-0.7-1.6-1.3-2.6-1.7C147.6,362.5,146.5,362.3,145.4,362.3z"/>
		<path d="M160.9,358.3h3.1c0.3,0,0.5,0.1,0.8,0.3l5.7,6v-5.8c0-0.3,0.1-0.4,0.4-0.4h3.1c0.3,0,0.5,0.1,0.5,0.4v23.4
			c0,0.3-0.2,0.4-0.5,0.4H171c-0.3,0-0.4-0.1-0.4-0.4v-11.7l-6.1-6.3v18c0,0.3-0.1,0.4-0.4,0.4h-3.1c-0.3,0-0.5-0.1-0.5-0.4v-23.4
			C160.4,358.5,160.6,358.3,160.9,358.3z"/>
		<path d="M190.7,382.2c-0.3-0.1-0.7-0.3-1.1-0.5c-0.4-0.3-0.8-0.5-1.1-0.7c-0.3-0.2-0.4-0.4-0.4-0.7v-3.9c0-0.3,0.1-0.3,0.3-0.1
			c0.2,0.2,0.4,0.4,0.6,0.6c0.2,0.3,0.4,0.4,0.5,0.5c0.3,0.2,0.7,0.4,1.1,0.6c0.4,0.2,0.8,0.4,1.4,0.6c0.2,0.1,0.5,0.1,0.8,0.2
			c0.3,0,0.5,0.1,0.8,0.1c1,0,1.8-0.4,2.5-1.1c0.7-0.7,1-1.6,1-2.5c0-0.8-0.3-1.5-0.8-1.9c-0.6-0.5-1.6-1.1-2.8-1.8
			c-0.4-0.2-0.7-0.4-1.1-0.6c-0.3-0.2-0.6-0.4-0.9-0.5c-0.3-0.2-0.5-0.4-0.8-0.6c-0.3-0.2-0.5-0.4-0.8-0.7c-0.5-0.5-1-1.1-1.3-1.8
			c-0.3-0.7-0.5-1.6-0.5-2.5c0-0.9,0.3-1.8,0.7-2.6c0.4-0.8,1-1.5,1.6-2.1c0.7-0.6,1.5-1.1,2.3-1.4c0.9-0.3,1.8-0.5,2.8-0.5
			c0.7,0,1.4,0.1,2,0.3c0.3,0.1,0.6,0.3,0.9,0.4c0.3,0.2,0.6,0.3,0.8,0.4c0.1,0,0.2,0.1,0.3,0.3c0.1,0.1,0.1,0.3,0.1,0.4v3.2
			c0,0.3-0.1,0.3-0.4,0.2c-0.3-0.2-0.7-0.4-1-0.6c-0.4-0.2-0.8-0.4-1.4-0.6c-0.4-0.1-0.8-0.2-1.3-0.2c-1,0-1.8,0.4-2.4,1
			c-0.7,0.6-1,1.3-1,2.1c0,0.7,0.3,1.3,0.8,1.8c0.3,0.3,0.6,0.5,1.1,0.7c0.5,0.3,1,0.5,1.6,0.8c0.4,0.2,0.8,0.4,1.2,0.6
			c0.4,0.2,0.7,0.4,0.9,0.5c0.3,0.2,0.5,0.4,0.8,0.6s0.5,0.4,0.8,0.7c0.5,0.5,1,1.2,1.3,1.9s0.5,1.7,0.5,2.8c0,1-0.2,1.9-0.6,2.8
			c-0.4,0.9-1,1.6-1.7,2.3c-0.7,0.7-1.6,1.2-2.5,1.6c-1,0.4-1.9,0.6-2.9,0.6C192.4,382.7,191.4,382.5,190.7,382.2z"/>
		<path d="M203,358.3h11.2c0.3,0,0.5,0.1,0.5,0.4v3.1c0,0.3-0.2,0.5-0.5,0.5h-3.6v19.8c0,0.1,0,0.2-0.1,0.3
			c-0.1,0.1-0.2,0.2-0.3,0.2h-3.1c-0.1,0-0.2-0.1-0.3-0.2c-0.1-0.1-0.1-0.2-0.1-0.3v-19.8H203c-0.3,0-0.4-0.2-0.4-0.5v-3.1
			C202.6,358.4,202.8,358.3,203,358.3z"/>
		<path d="M221.4,358.3c0.3,0,0.4,0.1,0.4,0.4v16.7c0,0.9,0.3,1.6,0.9,2.2c0.6,0.6,1.3,0.9,2.2,0.9c0.8,0,1.6-0.3,2.1-0.9
			c0.6-0.6,0.9-1.3,0.9-2.2v-16.7c0-0.3,0.2-0.4,0.5-0.4h3.1c0.3,0,0.5,0.1,0.5,0.4v16.7c0,1-0.2,1.9-0.6,2.8s-0.9,1.6-1.5,2.3
			c-0.6,0.6-1.4,1.2-2.2,1.5s-1.8,0.6-2.8,0.6c-1,0-1.9-0.2-2.8-0.6c-0.9-0.4-1.6-0.9-2.3-1.5c-0.6-0.6-1.2-1.4-1.5-2.3
			s-0.6-1.8-0.6-2.8v-16.7c0-0.1,0.1-0.2,0.2-0.3s0.2-0.1,0.3-0.1H221.4z"/>
		<path d="M239.8,358.3c1.7,0,3.3,0.3,4.7,1c1.5,0.6,2.8,1.5,3.9,2.6c1.1,1.1,2,2.4,2.6,3.9c0.6,1.5,1,3,1,4.7c0,1.7-0.3,3.3-1,4.7
			c-0.6,1.5-1.5,2.8-2.6,3.9c-1.1,1.1-2.4,2-3.9,2.6c-1.5,0.6-3,1-4.7,1h-3.6c-0.1,0-0.3-0.1-0.3-0.2c-0.1-0.1-0.1-0.2-0.1-0.3
			v-23.3c0-0.3,0.2-0.5,0.5-0.5H239.8z M239.8,378.5c1.1,0,2.2-0.2,3.1-0.6c1-0.4,1.8-1,2.6-1.7c0.7-0.7,1.3-1.6,1.7-2.6
			c0.4-1,0.6-2,0.6-3.1s-0.2-2.2-0.6-3.1c-0.4-1-1-1.8-1.7-2.6c-0.7-0.7-1.6-1.3-2.6-1.7c-1-0.4-2-0.6-3.1-0.6V378.5z"/>
		<path d="M255.3,382.6c-0.3,0-0.5-0.1-0.5-0.4v-23.4c0-0.3,0.2-0.4,0.5-0.4h3.1c0.3,0,0.5,0.1,0.5,0.4v23.4c0,0.3-0.2,0.4-0.5,0.4
			H255.3z"/>
		<path d="M273.9,358.3c1.7,0,3.3,0.3,4.7,1c1.5,0.6,2.8,1.5,3.9,2.6c1.1,1.1,2,2.4,2.6,3.9c0.6,1.5,1,3,1,4.7c0,1.7-0.3,3.3-1,4.7
			c-0.6,1.5-1.5,2.8-2.6,3.9c-1.1,1.1-2.4,2-3.9,2.6c-1.5,0.6-3,1-4.7,1c-1.7,0-3.3-0.3-4.7-1c-1.5-0.6-2.8-1.5-3.9-2.6
			c-1.1-1.1-2-2.4-2.6-3.9c-0.6-1.5-1-3-1-4.7c0-1.7,0.3-3.3,1-4.7s1.5-2.8,2.6-3.9c1.1-1.1,2.4-2,3.9-2.6
			C270.6,358.6,272.2,358.3,273.9,358.3z M273.9,362.3c-1.1,0-2.2,0.2-3.1,0.6c-1,0.4-1.8,1-2.6,1.7c-0.7,0.7-1.3,1.6-1.7,2.6
			c-0.4,1-0.6,2-0.6,3.1s0.2,2.2,0.6,3.1c0.4,1,1,1.8,1.7,2.6c0.7,0.7,1.6,1.3,2.6,1.7c1,0.4,2,0.6,3.1,0.6c1.1,0,2.2-0.2,3.1-0.6
			c1-0.4,1.8-1,2.6-1.7c0.7-0.7,1.3-1.6,1.7-2.6c0.4-1,0.6-2,0.6-3.1s-0.2-2.2-0.6-3.1c-0.4-1-1-1.8-1.7-2.6
			c-0.7-0.7-1.6-1.3-2.6-1.7C276,362.5,275,362.3,273.9,362.3z"/>
	</g>
	<path d="M143.7,107.6h46c4.3-0.3,24.1-62,22.7-67.7c-4.9-11-8-16.6-25.2-34c-17.5-5.9-28.9-3.9-41,0c-10.5,8.1-22.7,24.8-26.8,35.3
		C118.2,53.3,139.7,108,143.7,107.6z"/>
	<circle cx="127.8" cy="249.1" r="7.7"/>
	<circle cx="127.6" cy="270.3" r="7.7"/>
	<path id="XMLID_44_" d="M99,247.6c1.8-2.2,2.6-1.1,5,0.1c2.1,1,4.2,2.7,6,3.8c0.5,0.3,0.8,0.8,0.7,1.4c-0.4,4.6-3.2,13.6-4.2,14.9
		c-0.9,2.2-1.5,1.4-5.3,1.8c-0.2,0-0.3,0-0.5,0c-2.1,0-5.9-0.1-9.2-0.8c-4-0.8-7.9-1.9-6.3-6c0.1-0.3,3.1-4.4,3.4-4.8
		C90.8,255.1,95.6,251.6,99,247.6z"/>
	<path id="XMLID_43_" d="M110,123.8c5.4-4.2,13.2-9.1,20.9-12.4c2.1-0.9,3.3-2.9,3-4.7c-1.1-7-5.5-21.1-6.6-24.8
		c0-0.2-0.1-0.3-0.2-0.5c-1.8-3.8-5.9-12.1-10.7-13.8c0.7,0.3-12.2-5.7-19.5-4.5c-1.7,0.3-3.3,1.4-3.9,2.9
		c-2.9,6.4-8.6,25.5-9.1,31.8c0,0.5,0.1,1,0.3,1.5c2.4,5.3,14,18.6,19.6,24.6C105.2,125.3,108,125.3,110,123.8z"/>
	<path id="XMLID_42_" d="M94.4,221.3c1,3.8,1.8,9.3,3.7,14.8c0.6,1.7,0.4,3.7-0.7,5.1c-4.3,5.9-18.5,13.7-21.6,16.6
		c-0.1,0.1-0.3,0.3-0.5,0.4c-3.1,2.3-2.7,4.3-6.9,3.7c-0.2,0-0.4-0.1-0.6-0.1c-5.3-1.5-17.1-4-21.3-8.5c-1-1.1-1.5-2.7-1.3-4.3
		c0.7-5.3,6.6-12.5,9.5-17.6c0.4-0.7,1-1.3,1.6-1.7c5.7-3.6,24.3-9.5,32.4-11.8C91.2,217.1,93.7,218.6,94.4,221.3z"/>
	<path id="XMLID_41_" d="M89.8,178.1c2.9,4.7,1.7,18,2.8,32c0.3,3.2-36.7,10.2-46.3,11.6c-0.2,0-0.4,0.1-0.6,0.1
		c-7,1.6-11.2,3-16.7-0.5c-5.8-4.3-17.7-8.9-22.6-14.9c-2.1-2.5-2.3-6-0.8-8.7c3.9-6.8,13.4-21.8,19-28.8c1.4-1.8,3.6-2.8,6-2.8
		C46,166.5,89.6,175.5,89.8,178.1z"/>
	<path id="XMLID_40_" d="M103.2,135.7c-1.1,5.7-4.1,15-10.3,30.4c-0.9,2.3-3.4,4-5.7,3.9c-15.2-0.7-47.4-12.6-54.9-14.8
		c-0.1,0-9.7-3.1-9.8-3.2c-6.6-3.1-10-1.7-10.9-11.3c0-0.1,0-0.2,0-0.4c0.7-10.5-5.8-32.1,2-40.7c0.6-0.6,1.3-1.1,2.1-1.5
		c8.1-3.5,32.4-11.3,43.2-10.7c0.6,0,1.1,0.2,1.6,0.4C72.1,93.2,105.4,132.9,103.2,135.7z"/>
	<path id="XMLID_39_" d="M228.8,135.7c1.1,5.7,4.1,15,10.3,30.4c0.9,2.3,3.4,4,5.7,3.9c15.2-0.7,47.4-12.6,54.9-14.8
		c0.1,0,9.7-3.1,9.8-3.2c6.6-3.1,10-1.7,10.9-11.3c0-0.1,0-0.2,0-0.4c-0.7-10.5,5.8-32.1-2-40.7c-0.6-0.6-1.3-1.1-2.1-1.5
		c-8.1-3.5-32.4-11.3-43.2-10.7c-0.6,0-1.1,0.2-1.6,0.4C260,93.2,226.6,132.9,228.8,135.7z"/>
	<path id="XMLID_38_" d="M233,247.6c-1.8-2.2-2.6-1.1-5,0.1c-2.1,1-4.2,2.7-6,3.8c-0.5,0.3-0.8,0.8-0.7,1.4
		c0.4,4.6,3.2,13.6,4.2,14.9c0.9,2.2,1.5,1.4,5.3,1.8c0.2,0,0.3,0,0.5,0c2.1,0,5.9-0.1,9.2-0.8c4-0.8,7.9-1.9,6.3-6
		c-0.1-0.3-3.1-4.4-3.4-4.8C241.2,255.1,236.4,251.6,233,247.6z"/>
	<path id="XMLID_37_" d="M222,123.8c-5.4-4.2-13.2-9.1-20.9-12.4c-2.1-0.9-3.3-2.9-3-4.7c1.1-7,5.5-21.1,6.6-24.8
		c0-0.2,0.1-0.3,0.2-0.5c1.8-3.8,5.9-12.1,10.7-13.8c-0.7,0.3,12.2-5.7,19.5-4.5c1.7,0.3,3.3,1.4,3.9,2.9c2.9,6.4,8.6,25.5,9.1,31.8
		c0,0.5-0.1,1-0.3,1.5c-2.4,5.3-14,18.6-19.6,24.6C226.8,125.3,224,125.3,222,123.8z"/>
	<path id="XMLID_36_" d="M237.6,221.3c-1,3.8-1.8,9.3-3.7,14.8c-0.6,1.7-0.4,3.7,0.7,5.1c4.3,5.9,18.5,13.7,21.6,16.6
		c0.1,0.1,0.3,0.3,0.5,0.4c3.1,2.3,2.7,4.3,6.9,3.7c0.2,0,0.4-0.1,0.6-0.1c5.3-1.5,17.1-4,21.3-8.5c1-1.1,1.5-2.7,1.3-4.3
		c-0.7-5.3-6.6-12.5-9.5-17.6c-0.4-0.7-1-1.3-1.6-1.7c-5.7-3.6-24.3-9.5-32.4-11.8C240.8,217.1,238.3,218.6,237.6,221.3z"/>
	<path id="XMLID_35_" d="M242.2,178.1c-2.9,4.7-1.7,18-2.8,32c-0.3,3.2,36.7,10.2,46.3,11.6c0.2,0,0.4,0.1,0.6,0.1
		c7,1.6,11.2,3,16.7-0.5c5.8-4.3,17.7-8.9,22.6-14.9c2.1-2.5,2.3-6,0.8-8.7c-3.9-6.8-13.4-21.8-19-28.8c-1.4-1.8-3.6-2.8-6-2.8
		C286,166.5,242.4,175.5,242.2,178.1z"/>
	<path d="M179.8,278.3H151c-2.9,0-5.3-2.4-5.3-5.3v-8.5c0-2.9,2.4-5.3,5.3-5.3h28.8c2.9,0,5.3,2.4,5.3,5.3v8.5
		C185.1,275.9,182.7,278.3,179.8,278.3z"/>
	<circle cx="203.9" cy="248.7" r="7.7"/>
	<circle cx="204.1" cy="269.9" r="7.7"/>
	<path d="M204.3,234c-11.2,0-20.3-9.7-20.8-22c0-0.5,0-32.3,0-32.7c0-12.7,9.3-23,20.8-23s20.8,10.3,20.8,23c0,0.3,0,32.1,0,32.6
		C224.6,224.3,215.5,234,204.3,234z M197.4,211.5c0.2,4.7,3.3,8.5,6.8,8.5c3.6,0,6.6-3.8,6.8-8.5c0-1.9,0-30.7,0-32.2
		c0-4.9-3.1-9-6.8-9s-6.8,4.1-6.8,9C197.4,180.7,197.4,209.5,197.4,211.5z"/>
	<path d="M128.9,234c-11.2,0-20.3-9.7-20.8-22c0-0.5,0-32.3,0-32.7c0-12.7,9.3-23,20.8-23s20.8,10.3,20.8,23c0,3.3,0,32.2,0,32.6
		C149.3,224.2,140.1,234,128.9,234z M122.1,211.5c0.2,4.7,3.3,8.5,6.8,8.5c3.6,0,6.6-3.8,6.8-8.5c0-1.9,0-30.6,0-32.2
		c0-4.9-3.1-9-6.8-9c-3.7,0-6.8,4.1-6.8,9C122.1,180.7,122.1,209.5,122.1,211.5z"/>
</g>
</svg>
