<?xml version="1.0" encoding="utf-8"?>
<!-- Generator: Adobe Illustrator 25.3.0, SVG Export Plug-In . SVG Version: 6.00 Build 0)  -->
<svg version="1.1" xmlns="http://www.w3.org/2000/svg" xmlns:xlink="http://www.w3.org/1999/xlink" x="0px" y="0px"
	 viewBox="0 0 329.52 329.86" xml:space="preserve">
<g>
	<path d="M329.51,83.61c0.01,19.06-5.68,36.25-17.49,51.3c-2.36,3.01-4.88,5.92-7.57,8.63c-19.63,19.71-39.3,39.37-58.99,59.03
		c-26.98,26.94-71.17,31.63-103.13,10.75c-5.09-3.33-9.94-7.2-14.31-11.43c-8.49-8.22-8.26-21.9,0.05-29.82
		c8.42-8.02,21.08-7.76,29.75,0.61c13.92,13.45,34.83,15.74,51.26,5.5c2.64-1.65,5.15-3.62,7.36-5.81
		c19.88-19.76,39.83-39.44,59.42-59.48c11.97-12.25,15.31-27.13,9.63-43.25c-5.69-16.14-17.7-25.46-34.68-27.59
		c-13.05-1.63-24.55,2.49-33.99,11.72c-9.92,9.7-19.63,19.61-29.46,29.4c-6.37,6.35-15.46,8.17-23.3,4.76
		c-13.51-5.87-17.09-23.14-6.77-33.75c10.15-10.45,20.33-20.9,30.94-30.88c19.1-17.95,41.91-25.61,68-22.7
		c15.26,1.7,29.02,7.45,41.14,16.95c18.08,14.17,28.45,32.77,31.73,55.42c0.19,1.31,0.35,2.63,0.38,3.95
		C329.55,79.15,329.51,81.38,329.51,83.61z"/>
	<path d="M83.46,329.86c-19.01-0.25-36.31-5.79-51.25-17.72c-23.24-18.56-33.85-42.95-32-72.53c1.04-16.6,7.01-31.55,17.35-44.64
		c2.58-3.27,5.36-6.42,8.3-9.38c19.33-19.42,38.72-38.78,58.1-58.14c27.22-27.19,71.19-31.87,103.47-10.98
		c6.09,3.94,11.96,8.17,16.42,14.03c9.23,12.11,1.69,30.49-13.42,32.77c-7.04,1.06-13.12-0.99-18.21-5.82
		c-17.51-16.59-42.79-16.31-59.85,0.74c-19.43,19.42-38.86,38.83-58.27,58.27c-16.75,16.79-16.6,43.27,0.3,59.84
		c15.97,15.66,42.22,15.68,58.2-0.06c9.98-9.83,19.81-19.82,29.75-29.7c6.95-6.91,17.19-8.35,25.38-3.64
		c11.9,6.83,14.23,22.88,4.56,32.78c-10.08,10.32-20.2,20.63-30.63,30.59C125.44,321.76,105.97,329.56,83.46,329.86z"/>
</g>
</svg>
