<?xml version="1.0" encoding="utf-8"?>
<!-- Generator: Adobe Illustrator 22.0.0, SVG Export Plug-In . SVG Version: 6.00 Build 0)  -->
<svg version="1.1" xmlns="http://www.w3.org/2000/svg" xmlns:xlink="http://www.w3.org/1999/xlink" x="0px" y="0px"
	 viewBox="0 0 673.9 595.3" xml:space="preserve">
<g>
	<path d="M651.8,122H22.1C9.9,122,0,112.1,0,99.9V22.1C0,9.9,9.9,0,22.1,0h629.7c12.1,0,22.1,9.9,22.1,22.1v77.9
		C673.9,112.1,664,122,651.8,122z"/>
	<path d="M651.8,358.6H22.1C9.9,358.6,0,348.7,0,336.6v-77.9c0-12.1,9.9-22.1,22.1-22.1h629.7c12.1,0,22.1,9.9,22.1,22.1v77.9
		C673.9,348.7,664,358.6,651.8,358.6z"/>
	<path d="M651.8,595.3H22.1C9.9,595.3,0,585.3,0,573.2v-77.9c0-12.1,9.9-22.1,22.1-22.1h629.7c12.1,0,22.1,9.9,22.1,22.1v77.9
		C673.9,585.3,664,595.3,651.8,595.3z"/>
</g>
</svg>
