<?xml version="1.0" encoding="utf-8"?>
<!-- Generator: Adobe Illustrator 22.0.0, SVG Export Plug-In . SVG Version: 6.00 Build 0)  -->
<svg version="1.1" xmlns="http://www.w3.org/2000/svg" xmlns:xlink="http://www.w3.org/1999/xlink" x="0px" y="0px"
	 viewBox="0 0 82.7 72" xml:space="preserve">
<path d="M56.2,36.4l-4.3-1.8l13-13.3l-6.3-1L69.3,0.7c0,0-27.5,8-34.1,9.9c-0.1,0-0.3,0.4-0.3,0.4l-1.2,13l-2.8,4.5l-6.1-3
	c-2.1-1.3-4.5-2-7-2c-2.3,0-4.5,0.6-6.5,1.7l0,0c0,0-8.2,5.1-10.4,6.7c-0.3,0.2-0.2,0.5,0.2,0.6c1.6,0.1,5.3,0.4,7.5,0.9l0,0
	c1.7,0.4,3.3,1.1,4.7,2.2l0,0c0.4,0.3,0.7,0.8,0.8,1.2l0,0L20,50.3l6.5-0.6L56,61.2l0.7,6.3l25.9,3.8L56.2,36.4z"/>
</svg>
