<?xml version="1.0" encoding="utf-8"?>
<!-- Generator: Adobe Illustrator 22.0.0, SVG Export Plug-In . SVG Version: 6.00 Build 0)  -->
<svg version="1.1" xmlns="http://www.w3.org/2000/svg" xmlns:xlink="http://www.w3.org/1999/xlink" x="0px" y="0px"
	 viewBox="0 0 158.7 166.7" xml:space="preserve">
<style type="text/css">
	.orilogost0{fill:url(#SVGID_1_);}
	.orilogost1{fill:#FFFFFF;}
	.orilogost2{opacity:0.75;}
	.orilogost3{fill:#9590FF;}
	.orilogost4{opacity:0.75;fill:#9590FF;}
	.orilogost5{opacity:0.12;fill:#FFB94D;}
	.orilogost6{fill:#FFB94D;}
	.orilogost7{fill:url(#SVGID_2_);}
	.orilogost8{fill:#FFBD60;}
	.orilogost9{opacity:0.75;fill:#FFBD60;}
	.orilogost10{opacity:0.12;fill:#0FA972;}
	.orilogost11{fill:#0FA972;}
	.orilogost12{fill:#004393;}
	.orilogost13{fill:#00000C;}
	.orilogost14{fill:#003C57;}
</style>
<g>
	<path d="M91.3,54.3l-6.2-2.6L104,32.3l-9.2-1.4l15.5-28.5c0,0-40,11.6-49.5,14.4c-0.2,0.1-0.4,0.6-0.4,0.6l-1.7,18.9l-4.1,6.5
		l-8.9-4.3c-3-1.9-6.6-2.9-10.1-2.9c-3.3,0-6.6,0.9-9.4,2.5l0,0c0,0-12,7.4-15.1,9.7c-0.4,0.3-0.3,0.8,0.3,0.8
		c2.3,0.1,7.7,0.6,10.9,1.4l0,0c2.5,0.5,4.8,1.6,6.8,3.2l0,0c0.5,0.5,0.9,1.1,1.2,1.8l0,0l8.5,19.6l9.5-0.9L91,90.4l1,9.2l37.7,5.5
		L91.3,54.3z"/>
	<g>
		<path d="M33.8,130.5c-0.2-1.4-0.4-2.7-0.8-4c-0.1-0.3-0.1-0.5-0.2-0.8c-0.1-0.3-0.2-0.5-0.2-0.8c0-0.1-0.1-0.2-0.1-0.4
			c-0.1-0.1-0.1-0.3-0.1-0.4c0-0.1-0.1-0.3-0.1-0.4c0-0.1-0.1-0.3-0.1-0.4H15.2c-0.1,0.3-0.2,0.6-0.3,0.9c-0.1,0.3-0.2,0.6-0.3,0.9
			c-0.2,0.6-0.3,1.2-0.5,1.8c-0.2,0.6-0.3,1.2-0.4,1.9c-0.2,0.9-0.3,1.9-0.4,2.9c-0.1,1-0.1,2-0.1,3l0.3,4.2c0.2,1.4,0.4,2.7,0.8,4
			c0.1,0.2,0.1,0.3,0.2,0.5c0.1,0.2,0.1,0.4,0.2,0.5c0.1,0.2,0.1,0.4,0.2,0.5c0.1,0.2,0.1,0.4,0.2,0.5l0.3,1h16.9
			c0-0.2,0.1-0.3,0.1-0.4c0-0.1,0.1-0.3,0.1-0.4c0.2-0.7,0.5-1.5,0.7-2.2c0.2-0.8,0.4-1.5,0.5-2.3c0.2-0.9,0.3-1.9,0.4-2.9
			c0.1-1,0.1-1.9,0.1-2.9C34.1,133.3,34,131.9,33.8,130.5z M29.6,136c0,0.5-0.1,1-0.1,1.5c0,0.4-0.1,0.8-0.2,1.2
			c-0.1,0.4-0.2,0.8-0.3,1.1H18.2c-0.2-0.9-0.3-1.7-0.4-2.6c-0.1-0.9-0.1-1.8-0.1-2.7c0-0.3,0-0.6,0-0.9c0-0.3,0-0.6,0-0.9
			c0-0.6,0.1-1.2,0.2-1.8c0.1-0.6,0.2-1.1,0.3-1.7H29c0.2,0.9,0.4,1.7,0.5,2.6c0.1,0.9,0.1,1.8,0.1,2.6
			C29.6,135.1,29.6,135.6,29.6,136z"/>
		<path d="M58.2,143.1c-0.1-1.7-0.5-3.4-1.1-5c-0.6-1.6-1.5-2.9-2.5-4.1c0.4-0.7,0.8-1.4,1.1-2.2c0.3-0.8,0.5-1.6,0.7-2.4
			c0.1-0.7,0.2-1.3,0.3-2c0-0.7,0.1-1.4,0.1-2.1c0-0.1,0-0.3,0-0.4c0-0.2,0-0.3,0-0.5c0-0.2,0-0.4,0-0.6c0-0.2,0-0.4,0-0.6H38.6v9.3
			h-3.4v5.3h3.4v8h5v-8h4.9c1.1,0,2.1,0.5,3,1.4c0.9,0.9,1.5,2.1,1.8,3.6c0.1,0.4,0.1,0.8,0.1,1.2c0,0.4,0,0.8,0,1.2
			c0,0.1,0,0.2,0,0.3c0,0.1,0,0.2,0,0.3h5c0-0.5,0-0.9,0-1.4C58.3,144,58.3,143.6,58.2,143.1z M51,131.5c-0.8,0.7-1.6,1.1-2.5,1.1
			c-1,0-2,0-3,0c-1,0-2,0-3,0v-3.9h10.1C52.3,129.8,51.8,130.7,51,131.5z"/>
		<polygon points="63.4,145.9 63.4,130.1 59.6,130.1 59.6,123.3 68.4,123.3 68.4,145.9 		"/>
		<path d="M71.4,145.9c0-0.1-0.1-0.3-0.1-0.4c0-0.1-0.1-0.3-0.1-0.4c-0.2-0.6-0.4-1.3-0.6-2c-0.2-0.7-0.4-1.4-0.5-2.1
			c-0.2-1-0.4-2.1-0.5-3.2c-0.1-1.1-0.2-2.1-0.2-3.2c0-1.5,0.1-2.9,0.3-4.4c0.2-1.4,0.5-2.9,0.9-4.3c0.1-0.2,0.1-0.4,0.2-0.6
			c0.1-0.2,0.1-0.4,0.2-0.7c0.1-0.2,0.1-0.4,0.2-0.6c0.1-0.2,0.1-0.4,0.2-0.6h17.4v6.8h-14c-0.1,0.7-0.2,1.4-0.3,2.2
			c-0.1,0.8-0.1,1.6-0.1,2.3c0,0.2,0,0.3,0,0.5c0,0.1,0,0.3,0,0.5c0,0.6,0.1,1.2,0.1,1.8c0.1,0.6,0.2,1.2,0.3,1.8h9v-1.2h-4.2v-5.3
			h9.2v13.3H71.4z"/>
		<path d="M111.7,125.7c-0.1-0.1-0.3-0.1-0.4-0.2c-0.1-0.1-0.2-0.1-0.4-0.2c-0.1-0.1-0.3-0.1-0.4-0.2c-0.3-0.2-0.5-0.3-0.8-0.4
			c-0.2-0.1-0.5-0.3-0.7-0.4c-0.9-0.4-1.8-0.7-2.8-0.9c-0.9-0.2-1.9-0.4-2.9-0.4c-0.2,0-0.3,0-0.5,0c-0.2,0-0.3,0-0.5,0
			c-1.2,0-2.4,0.1-3.6,0.4c-1.2,0.3-2.3,0.7-3.4,1.3c-0.2,0.1-0.4,0.2-0.6,0.3c-0.2,0.1-0.4,0.2-0.6,0.3c-0.2,0.1-0.4,0.3-0.6,0.4
			c-0.2,0.1-0.4,0.2-0.6,0.3v6.7H90v5.3h3.1v8h5v-8h9.1v8h5v-20C112,125.8,111.9,125.7,111.7,125.7z M108.2,132.6H97v-3.1
			c0.9-0.4,1.8-0.8,2.8-1c0.9-0.2,1.9-0.3,2.8-0.3c1,0,1.9,0.1,2.8,0.3c0.9,0.2,1.9,0.5,2.8,1V132.6z"/>
		<path d="M131.3,145.9v-15.7c-1.1,0.4-2.1,1.2-2.8,2.4c-0.7,1.3-1.1,2.7-1.1,4.3v9h-5c0-0.8,0-1.6,0-2.3c0-0.8,0-1.6,0-2.3
			c0-0.8,0-1.6,0-2.3c0-0.8,0-1.6,0-2.3c0-0.1,0-0.2,0-0.3c0-0.1,0-0.2,0-0.3c0-0.1,0-0.2,0-0.2c0-0.1,0-0.2,0-0.2
			c-0.2-1.3-0.6-2.5-1.3-3.4c-0.7-0.9-1.5-1.6-2.5-1.9v15.7h-5v-22.6c0.2,0,0.5,0,0.7,0c0.2,0,0.5,0,0.7,0c0.5,0,0.9,0,1.4,0
			c0.5,0,0.9,0,1.4,0c0.1,0,0.2,0,0.2,0c0.1,0,0.1,0,0.2,0c1.3,0.1,2.5,0.6,3.8,1.4c1.2,0.8,2.2,1.9,3.1,3.2
			c0.9-1.5,2.1-2.6,3.4-3.4c1.3-0.8,2.7-1.2,4.2-1.2h3.9v22.6H131.3z"/>
		<polygon points="141.2,145.9 141.2,130.1 137.5,130.1 137.5,123.3 146.2,123.3 146.2,145.9 		"/>
	</g>
	<g>
		<path d="M4.2,164.2H2.7c-0.1,0-0.1,0-0.2-0.1c0,0-0.1-0.1-0.1-0.2v-8.2c0-0.5,0.1-0.9,0.3-1.3c0.2-0.4,0.4-0.8,0.7-1.1
			c0.3-0.3,0.7-0.6,1.1-0.7c0.4-0.2,0.9-0.3,1.3-0.3c0.5,0,0.9,0.1,1.3,0.3c0.4,0.2,0.8,0.4,1.1,0.7c0.3,0.3,0.6,0.7,0.7,1.1
			c0.2,0.4,0.3,0.9,0.3,1.3v8.2c0,0.1,0,0.1-0.1,0.2c0,0-0.1,0.1-0.2,0.1H7.6c-0.1,0-0.1,0-0.1-0.1c0,0-0.1-0.1-0.1-0.2v-3.7h-3v3.7
			c0,0.1,0,0.1-0.1,0.2C4.3,164.1,4.3,164.2,4.2,164.2z M7.4,158.3v-2.5c0-0.4-0.1-0.8-0.4-1s-0.6-0.4-1-0.4c-0.4,0-0.8,0.1-1.1,0.4
			c-0.3,0.3-0.4,0.6-0.4,1v2.5H7.4z"/>
		<path d="M15.1,152.4c0.5,0,1.1,0.1,1.5,0.3c0.5,0.2,0.9,0.5,1.3,0.8c0.4,0.4,0.6,0.8,0.8,1.3c0.2,0.5,0.3,1,0.3,1.5
			c0,0.7-0.2,1.4-0.6,2c-0.4,0.6-0.9,1.1-1.5,1.4L19,164c0.1,0.1,0,0.2-0.1,0.2h-1.7c-0.1,0-0.1,0-0.2-0.1c-0.1,0-0.1-0.1-0.1-0.1
			l-0.7-1.5l-1.8-4c-0.1-0.1,0-0.2,0.1-0.2h0.7c0.3,0,0.5-0.1,0.8-0.2c0.2-0.1,0.5-0.2,0.6-0.4c0.2-0.2,0.3-0.4,0.4-0.6
			c0.1-0.2,0.2-0.5,0.2-0.8c0-0.3-0.1-0.5-0.2-0.8c-0.1-0.2-0.2-0.4-0.4-0.6c-0.2-0.2-0.4-0.3-0.6-0.4c-0.2-0.1-0.5-0.2-0.8-0.2h-2
			v9.6c0,0.1,0,0.1-0.1,0.1c0,0-0.1,0.1-0.2,0.1h-1.5c-0.1,0-0.2-0.1-0.2-0.2v-11.4c0-0.1,0.1-0.2,0.2-0.2H15.1z"/>
		<path d="M20.1,152.3h5.5c0.2,0,0.2,0.1,0.2,0.2v1.5c0,0.2-0.1,0.2-0.2,0.2h-1.7v9.6c0,0.1,0,0.1-0.1,0.2c0,0-0.1,0.1-0.2,0.1H22
			c-0.1,0-0.1,0-0.1-0.1c0,0-0.1-0.1-0.1-0.2v-9.6h-1.8c-0.1,0-0.2-0.1-0.2-0.2v-1.5C19.8,152.4,19.9,152.3,20.1,152.3z"/>
		<path d="M33.2,164.2h-1.5c-0.1,0-0.1,0-0.2-0.1c0,0-0.1-0.1-0.1-0.2v-8.2c0-0.5,0.1-0.9,0.3-1.3c0.2-0.4,0.4-0.8,0.7-1.1
			c0.3-0.3,0.7-0.6,1.1-0.7c0.4-0.2,0.9-0.3,1.3-0.3c0.5,0,0.9,0.1,1.3,0.3c0.4,0.2,0.8,0.4,1.1,0.7c0.3,0.3,0.6,0.7,0.7,1.1
			c0.2,0.4,0.3,0.9,0.3,1.3v8.2c0,0.1,0,0.1-0.1,0.2c0,0-0.1,0.1-0.2,0.1h-1.5c-0.1,0-0.1,0-0.1-0.1c0,0-0.1-0.1-0.1-0.2v-3.7h-3
			v3.7c0,0.1,0,0.1-0.1,0.2C33.3,164.1,33.3,164.2,33.2,164.2z M36.4,158.3v-2.5c0-0.4-0.1-0.8-0.4-1s-0.6-0.4-1-0.4
			c-0.4,0-0.8,0.1-1.1,0.4c-0.3,0.3-0.4,0.6-0.4,1v2.5H36.4z"/>
		<path d="M40.4,152.4H42c0.1,0,0.3,0,0.4,0.1l2.8,2.9v-2.8c0-0.1,0.1-0.2,0.2-0.2h1.5c0.2,0,0.2,0.1,0.2,0.2V164
			c0,0.1-0.1,0.2-0.2,0.2h-1.5c-0.1,0-0.2-0.1-0.2-0.2v-5.7l-3-3.1v8.8c0,0.1-0.1,0.2-0.2,0.2h-1.5c-0.2,0-0.2-0.1-0.2-0.2v-11.4
			C40.2,152.4,40.3,152.4,40.4,152.4z"/>
		<path d="M49.2,164.2c-0.2,0-0.2-0.1-0.2-0.2v-11.4c0-0.1,0.1-0.2,0.2-0.2h1.5c0.2,0,0.2,0.1,0.2,0.2V164c0,0.1-0.1,0.2-0.2,0.2
			H49.2z"/>
		<path d="M54.5,152.4c0.1,0,0.1,0,0.2,0c0.1,0,0.1,0.1,0.2,0.1l1.8,2.4l1.8-2.4c0-0.1,0.1-0.1,0.2-0.1c0.1,0,0.1,0,0.2,0h1.5
			c0.2,0,0.2,0.1,0.2,0.2V164c0,0.1-0.1,0.2-0.2,0.2h-1.5c-0.2,0-0.2-0.1-0.2-0.2v-8.3l-1.8,2.4c0,0.1-0.1,0.1-0.1,0.1
			c-0.1,0-0.1,0-0.1-0.1l-1.8-2.4v8.3c0,0.1-0.1,0.2-0.2,0.2H53c-0.2,0-0.2-0.1-0.2-0.2v-11.4c0-0.1,0.1-0.2,0.2-0.2H54.5z"/>
		<path d="M64.2,164.2h-1.5c-0.1,0-0.1,0-0.2-0.1c0,0-0.1-0.1-0.1-0.2v-8.2c0-0.5,0.1-0.9,0.3-1.3c0.2-0.4,0.4-0.8,0.7-1.1
			c0.3-0.3,0.7-0.6,1.1-0.7c0.4-0.2,0.9-0.3,1.3-0.3c0.5,0,0.9,0.1,1.3,0.3c0.4,0.2,0.8,0.4,1.1,0.7c0.3,0.3,0.6,0.7,0.7,1.1
			c0.2,0.4,0.3,0.9,0.3,1.3v8.2c0,0.1,0,0.1-0.1,0.2c0,0-0.1,0.1-0.2,0.1h-1.5c-0.1,0-0.1,0-0.1-0.1c0,0-0.1-0.1-0.1-0.2v-3.7h-3
			v3.7c0,0.1,0,0.1-0.1,0.2C64.3,164.1,64.2,164.2,64.2,164.2z M67.4,158.3v-2.5c0-0.4-0.1-0.8-0.4-1s-0.6-0.4-1-0.4
			c-0.4,0-0.8,0.1-1.1,0.4c-0.3,0.3-0.4,0.6-0.4,1v2.5H67.4z"/>
		<path d="M71.2,152.3h5.5c0.2,0,0.2,0.1,0.2,0.2v1.5c0,0.2-0.1,0.2-0.2,0.2h-1.7v9.6c0,0.1,0,0.1-0.1,0.2c0,0-0.1,0.1-0.2,0.1h-1.5
			c-0.1,0-0.1,0-0.1-0.1c0,0-0.1-0.1-0.1-0.2v-9.6h-1.8c-0.1,0-0.2-0.1-0.2-0.2v-1.5C71,152.4,71.1,152.3,71.2,152.3z"/>
		<path d="M78.6,164.2c-0.2,0-0.2-0.1-0.2-0.2v-11.4c0-0.1,0.1-0.2,0.2-0.2h1.5c0.2,0,0.2,0.1,0.2,0.2V164c0,0.1-0.1,0.2-0.2,0.2
			H78.6z"/>
		<path d="M87.7,152.3c0.8,0,1.6,0.2,2.3,0.5c0.7,0.3,1.3,0.7,1.9,1.3s1,1.2,1.3,1.9s0.5,1.5,0.5,2.3s-0.2,1.6-0.5,2.3
			s-0.7,1.3-1.3,1.9s-1.2,1-1.9,1.3c-0.7,0.3-1.5,0.5-2.3,0.5s-1.6-0.2-2.3-0.5c-0.7-0.3-1.3-0.7-1.9-1.3s-1-1.2-1.3-1.9
			s-0.5-1.5-0.5-2.3s0.2-1.6,0.5-2.3s0.7-1.3,1.3-1.9s1.2-1,1.9-1.3C86.1,152.5,86.9,152.3,87.7,152.3z M87.7,154.3
			c-0.5,0-1.1,0.1-1.5,0.3c-0.5,0.2-0.9,0.5-1.3,0.8s-0.6,0.8-0.8,1.3c-0.2,0.5-0.3,1-0.3,1.5s0.1,1.1,0.3,1.5
			c0.2,0.5,0.5,0.9,0.8,1.3s0.8,0.6,1.3,0.8c0.5,0.2,1,0.3,1.5,0.3s1.1-0.1,1.5-0.3c0.5-0.2,0.9-0.5,1.3-0.8s0.6-0.8,0.8-1.3
			s0.3-1,0.3-1.5s-0.1-1.1-0.3-1.5s-0.5-0.9-0.8-1.3s-0.8-0.6-1.3-0.8C88.7,154.4,88.2,154.3,87.7,154.3z"/>
		<path d="M95.2,152.4h1.5c0.1,0,0.3,0,0.4,0.1l2.8,2.9v-2.8c0-0.1,0.1-0.2,0.2-0.2h1.5c0.2,0,0.2,0.1,0.2,0.2V164
			c0,0.1-0.1,0.2-0.2,0.2h-1.5c-0.1,0-0.2-0.1-0.2-0.2v-5.7l-3-3.1v8.8c0,0.1-0.1,0.2-0.2,0.2h-1.5c-0.2,0-0.2-0.1-0.2-0.2v-11.4
			C95,152.4,95.1,152.4,95.2,152.4z"/>
		<path d="M109.7,164c-0.1,0-0.3-0.1-0.5-0.3c-0.2-0.1-0.4-0.2-0.5-0.3c-0.1-0.1-0.2-0.2-0.2-0.3v-1.9c0-0.1,0.1-0.2,0.2-0.1
			c0.1,0.1,0.2,0.2,0.3,0.3c0.1,0.1,0.2,0.2,0.3,0.2c0.2,0.1,0.3,0.2,0.5,0.3c0.2,0.1,0.4,0.2,0.7,0.3c0.1,0,0.2,0.1,0.4,0.1
			c0.1,0,0.3,0,0.4,0c0.5,0,0.9-0.2,1.2-0.5c0.3-0.4,0.5-0.8,0.5-1.2c0-0.4-0.1-0.7-0.4-0.9c-0.3-0.3-0.8-0.6-1.4-0.9
			c-0.2-0.1-0.4-0.2-0.5-0.3s-0.3-0.2-0.4-0.3s-0.3-0.2-0.4-0.3c-0.1-0.1-0.3-0.2-0.4-0.3c-0.3-0.2-0.5-0.5-0.6-0.9
			c-0.2-0.4-0.2-0.8-0.2-1.2c0-0.4,0.1-0.9,0.3-1.3c0.2-0.4,0.5-0.7,0.8-1c0.3-0.3,0.7-0.5,1.1-0.7c0.4-0.2,0.9-0.2,1.3-0.2
			c0.4,0,0.7,0.1,1,0.1c0.1,0.1,0.3,0.1,0.4,0.2c0.1,0.1,0.3,0.1,0.4,0.2c0.1,0,0.1,0.1,0.1,0.1s0,0.1,0,0.2v1.5
			c0,0.1-0.1,0.2-0.2,0.1c-0.2-0.1-0.3-0.2-0.5-0.3c-0.2-0.1-0.4-0.2-0.7-0.3c-0.2-0.1-0.4-0.1-0.6-0.1c-0.5,0-0.9,0.2-1.2,0.5
			c-0.3,0.3-0.5,0.6-0.5,1c0,0.4,0.1,0.7,0.4,0.9c0.1,0.1,0.3,0.2,0.5,0.4c0.2,0.1,0.5,0.3,0.8,0.4c0.2,0.1,0.4,0.2,0.6,0.3
			c0.2,0.1,0.3,0.2,0.5,0.2c0.1,0.1,0.3,0.2,0.4,0.3c0.1,0.1,0.3,0.2,0.4,0.3c0.3,0.3,0.5,0.6,0.6,0.9c0.2,0.4,0.2,0.8,0.3,1.3
			c0,0.5-0.1,0.9-0.3,1.4c-0.2,0.4-0.5,0.8-0.8,1.1c-0.4,0.3-0.8,0.6-1.2,0.8c-0.5,0.2-0.9,0.3-1.4,0.3
			C110.6,164.2,110.1,164.2,109.7,164z"/>
		<path d="M115.8,152.3h5.5c0.2,0,0.2,0.1,0.2,0.2v1.5c0,0.2-0.1,0.2-0.2,0.2h-1.7v9.6c0,0.1,0,0.1-0.1,0.2c0,0-0.1,0.1-0.2,0.1
			h-1.5c-0.1,0-0.1,0-0.1-0.1c0,0-0.1-0.1-0.1-0.2v-9.6h-1.8c-0.1,0-0.2-0.1-0.2-0.2v-1.5C115.6,152.4,115.6,152.3,115.8,152.3z"/>
		<path d="M124.7,152.3c0.1,0,0.2,0.1,0.2,0.2v8.2c0,0.4,0.1,0.8,0.4,1.1c0.3,0.3,0.6,0.4,1.1,0.4c0.4,0,0.8-0.1,1-0.4
			c0.3-0.3,0.4-0.6,0.4-1.1v-8.2c0-0.1,0.1-0.2,0.2-0.2h1.5c0.2,0,0.2,0.1,0.2,0.2v8.2c0,0.5-0.1,0.9-0.3,1.3
			c-0.2,0.4-0.4,0.8-0.7,1.1c-0.3,0.3-0.7,0.6-1.1,0.7c-0.4,0.2-0.9,0.3-1.3,0.3c-0.5,0-0.9-0.1-1.3-0.3c-0.4-0.2-0.8-0.4-1.1-0.7
			c-0.3-0.3-0.6-0.7-0.7-1.1c-0.2-0.4-0.3-0.9-0.3-1.3v-8.2c0-0.1,0-0.1,0.1-0.1c0,0,0.1-0.1,0.2-0.1H124.7z"/>
		<path d="M133.7,152.3c0.8,0,1.6,0.2,2.3,0.5c0.7,0.3,1.3,0.7,1.9,1.3s1,1.2,1.3,1.9c0.3,0.7,0.5,1.5,0.5,2.3s-0.2,1.6-0.5,2.3
			c-0.3,0.7-0.7,1.3-1.3,1.9s-1.2,1-1.9,1.3c-0.7,0.3-1.5,0.5-2.3,0.5h-1.7c-0.1,0-0.1,0-0.2-0.1c0,0-0.1-0.1-0.1-0.2v-11.4
			c0-0.2,0.1-0.2,0.2-0.2H133.7z M133.7,162.2c0.5,0,1.1-0.1,1.5-0.3c0.5-0.2,0.9-0.5,1.3-0.8s0.6-0.8,0.8-1.3
			c0.2-0.5,0.3-1,0.3-1.5s-0.1-1.1-0.3-1.5c-0.2-0.5-0.5-0.9-0.8-1.3s-0.8-0.6-1.3-0.8c-0.5-0.2-1-0.3-1.5-0.3V162.2z"/>
		<path d="M141.2,164.2c-0.2,0-0.2-0.1-0.2-0.2v-11.4c0-0.1,0.1-0.2,0.2-0.2h1.5c0.2,0,0.2,0.1,0.2,0.2V164c0,0.1-0.1,0.2-0.2,0.2
			H141.2z"/>
		<path d="M150.3,152.3c0.8,0,1.6,0.2,2.3,0.5c0.7,0.3,1.3,0.7,1.9,1.3s1,1.2,1.3,1.9s0.5,1.5,0.5,2.3s-0.2,1.6-0.5,2.3
			s-0.7,1.3-1.3,1.9s-1.2,1-1.9,1.3c-0.7,0.3-1.5,0.5-2.3,0.5s-1.6-0.2-2.3-0.5c-0.7-0.3-1.3-0.7-1.9-1.3s-1-1.2-1.3-1.9
			s-0.5-1.5-0.5-2.3s0.2-1.6,0.5-2.3s0.7-1.3,1.3-1.9s1.2-1,1.9-1.3C148.7,152.5,149.5,152.3,150.3,152.3z M150.3,154.3
			c-0.5,0-1.1,0.1-1.5,0.3c-0.5,0.2-0.9,0.5-1.3,0.8s-0.6,0.8-0.8,1.3c-0.2,0.5-0.3,1-0.3,1.5s0.1,1.1,0.3,1.5
			c0.2,0.5,0.5,0.9,0.8,1.3s0.8,0.6,1.3,0.8c0.5,0.2,1,0.3,1.5,0.3s1.1-0.1,1.5-0.3c0.5-0.2,0.9-0.5,1.3-0.8s0.6-0.8,0.8-1.3
			s0.3-1,0.3-1.5s-0.1-1.1-0.3-1.5s-0.5-0.9-0.8-1.3s-0.8-0.6-1.3-0.8C151.3,154.4,150.8,154.3,150.3,154.3z"/>
	</g>
</g>
</svg>
