<?xml version="1.0" encoding="utf-8"?>
<!-- Generator: Adobe Illustrator 22.0.0, SVG Export Plug-In . SVG Version: 6.00 Build 0)  -->
<svg version="1.1" xmlns="http://www.w3.org/2000/svg" xmlns:xlink="http://www.w3.org/1999/xlink" x="0px" y="0px"
	 viewBox="0 0 315.4 72" xml:space="preserve">
<g>
	<path d="M56.2,36.4l-4.3-1.8l13-13.3l-6.3-1L69.3,0.7c0,0-27.5,8-34.1,9.9c-0.1,0-0.3,0.4-0.3,0.4l-1.2,13l-2.8,4.5l-6.1-3
		c-2.1-1.3-4.5-2-7-2c-2.3,0-4.5,0.6-6.5,1.7l0,0c0,0-8.2,5.1-10.4,6.7c-0.3,0.2-0.2,0.5,0.2,0.6c1.6,0.1,5.3,0.4,7.5,0.9l0,0
		c1.7,0.4,3.3,1.1,4.7,2.2l0,0c0.4,0.3,0.7,0.8,0.8,1.2l0,0L20,50.3l6.5-0.6L56,61.2l0.7,6.3l25.9,3.8L56.2,36.4z"/>
	<g>
		<path d="M145.3,20.6c-0.2-1.8-0.6-3.6-1.1-5.4c-0.1-0.4-0.2-0.7-0.3-1.1c-0.1-0.4-0.2-0.7-0.3-1.1c-0.1-0.1-0.1-0.3-0.2-0.5
			c-0.1-0.2-0.1-0.4-0.2-0.5c-0.1-0.2-0.1-0.4-0.2-0.5c-0.1-0.2-0.1-0.4-0.2-0.5h-23.4c-0.1,0.4-0.3,0.8-0.4,1.2s-0.3,0.8-0.4,1.2
			c-0.2,0.8-0.5,1.6-0.7,2.4s-0.4,1.6-0.6,2.5c-0.2,1.3-0.4,2.5-0.6,3.8c-0.1,1.3-0.2,2.6-0.2,4l0.4,5.5c0.2,1.8,0.6,3.6,1.1,5.3
			c0.1,0.2,0.2,0.4,0.2,0.7c0.1,0.2,0.1,0.5,0.2,0.7c0.1,0.3,0.2,0.5,0.2,0.7c0.1,0.2,0.1,0.5,0.2,0.7l0.4,1.3h23.4
			c0.1-0.2,0.1-0.4,0.2-0.6c0.1-0.2,0.1-0.4,0.2-0.6c0.3-1,0.6-2,0.9-3c0.3-1,0.5-2,0.7-3.1c0.2-1.3,0.4-2.5,0.6-3.8
			c0.1-1.3,0.2-2.6,0.2-3.9C145.7,24.3,145.6,22.4,145.3,20.6z M139.4,28c0,0.6-0.1,1.3-0.2,2c-0.1,0.5-0.1,1.1-0.2,1.6
			c-0.1,0.5-0.2,1-0.3,1.5h-15c-0.3-1.1-0.5-2.3-0.6-3.5s-0.2-2.4-0.2-3.6c0-0.4,0-0.8,0-1.2c0-0.4,0-0.8,0.1-1.2
			c0.1-0.8,0.1-1.6,0.3-2.3c0.1-0.8,0.3-1.5,0.4-2.3h15c0.3,1.1,0.5,2.3,0.6,3.5s0.2,2.3,0.2,3.5C139.5,26.7,139.5,27.3,139.4,28z"
			/>
		<path d="M179.2,37.4c-0.2-2.3-0.7-4.5-1.6-6.6c-0.9-2.1-2-3.9-3.4-5.4c0.6-0.9,1.1-1.9,1.5-2.9s0.8-2.1,1-3.2
			c0.2-0.9,0.3-1.8,0.4-2.7c0-0.9,0.1-1.8,0.1-2.8c0-0.2,0-0.4,0-0.6c0-0.2,0-0.4,0-0.6c0-0.2,0-0.5,0-0.8s0-0.5,0-0.7H152v12.4
			h-4.8v7.1h4.8v10.7h6.9V30.4h6.8c1.5,0,2.9,0.6,4.1,1.8c1.2,1.2,2,2.8,2.4,4.8c0.1,0.5,0.2,1.1,0.2,1.6s0,1,0.1,1.6
			c0,0.1,0,0.3,0,0.4c0,0.2,0,0.3,0,0.5h6.9c0-0.6,0-1.2,0-1.9C179.3,38.6,179.3,38,179.2,37.4z M169.2,21.9c-1,1-2.2,1.5-3.5,1.5
			c-1.4,0-2.8,0-4.2,0s-2.8,0-4.2,0v-5.3h14C170.9,19.6,170.2,20.9,169.2,21.9z"/>
		<polygon points="186.3,41.1 186.3,20 181.1,20 181.1,11 193.3,11 193.3,41.1 		"/>
		<path d="M197.5,41.1c-0.1-0.2-0.1-0.4-0.2-0.5c-0.1-0.2-0.1-0.4-0.2-0.5c-0.3-0.8-0.5-1.7-0.8-2.7c-0.3-0.9-0.5-1.8-0.7-2.8
			c-0.3-1.4-0.5-2.8-0.7-4.2c-0.2-1.4-0.2-2.9-0.2-4.3c0-2,0.1-3.9,0.4-5.9c0.3-1.9,0.7-3.8,1.3-5.7c0.1-0.3,0.2-0.6,0.3-0.9
			c0.1-0.3,0.2-0.6,0.3-0.9c0.1-0.3,0.2-0.6,0.3-0.9c0.1-0.3,0.2-0.6,0.3-0.9h24.1v9h-19.4c-0.2,0.9-0.3,1.9-0.5,3
			c-0.1,1-0.2,2.1-0.2,3.1c0,0.2,0,0.4,0,0.6s0,0.4,0,0.6c0,0.8,0.1,1.6,0.2,2.4c0.1,0.8,0.2,1.6,0.4,2.3h12.5v-1.7h-5.8v-7.1h12.7
			v17.7h-24.1L197.5,41.1L197.5,41.1z"/>
		<path d="M253.3,14.1c-0.2-0.1-0.4-0.2-0.5-0.3c-0.2-0.1-0.3-0.2-0.5-0.3s-0.3-0.2-0.5-0.3c-0.4-0.2-0.7-0.4-1-0.6
			c-0.3-0.2-0.7-0.3-1-0.5c-1.2-0.5-2.5-1-3.8-1.3s-2.6-0.5-3.9-0.6c-0.2,0-0.4-0.1-0.7-0.1c-0.2,0-0.4,0-0.7,0
			c-1.7,0-3.3,0.2-5,0.5c-1.6,0.4-3.2,0.9-4.8,1.7c-0.3,0.1-0.6,0.3-0.8,0.5c-0.3,0.2-0.6,0.3-0.9,0.5c-0.3,0.2-0.6,0.4-0.8,0.5
			c-0.3,0.2-0.6,0.3-0.8,0.5v8.9h-4.2v7.1h4.2V41h6.9V30.4h12.6v10.7h6.9V14.4C253.7,14.3,253.5,14.2,253.3,14.1z M248.4,23.3h-15.6
			v-4.2c1.3-0.6,2.5-1,3.9-1.3c1.3-0.3,2.6-0.4,3.9-0.4c1.3,0,2.6,0.1,3.9,0.4c1.3,0.3,2.6,0.7,3.9,1.3L248.4,23.3L248.4,23.3z"/>
		<path d="M280.4,41.1v-21c-1.6,0.5-2.9,1.6-3.9,3.3c-1,1.7-1.5,3.6-1.5,5.7v12h-7c0-1,0-2.1,0-3.1s0-2.1,0-3.1s0-2.1,0-3.1
			c0-1,0-2.1,0-3.1c0-0.1,0-0.2,0-0.4c0-0.1,0-0.2,0-0.3c0-0.1,0-0.2-0.1-0.3c0-0.1,0-0.2-0.1-0.3c-0.3-1.8-0.9-3.3-1.9-4.6
			c-1-1.3-2.1-2.1-3.5-2.6v21h-6.9V11c0.3,0,0.7,0,1,0s0.7,0,1,0c0.6,0,1.3,0,1.9,0c0.7,0,1.3,0,1.9,0c0.1,0,0.2,0,0.3,0
			c0.1,0,0.2,0,0.3,0c1.8,0.1,3.5,0.8,5.2,1.9s3.1,2.6,4.3,4.3c1.3-2,2.9-3.5,4.7-4.6C278,11.5,280,11,282,11h5.4v30.1H280.4z"/>
		<polygon points="294.2,41.1 294.2,20 289,20 289,11 301.1,11 301.1,41.1 		"/>
	</g>
	<g>
		<path d="M104.6,66.4h-2.1c-0.1,0-0.2,0-0.2-0.1c-0.1-0.1-0.1-0.1-0.1-0.2V54.8c0-0.7,0.1-1.3,0.4-1.9c0.3-0.6,0.6-1.1,1-1.5
			s0.9-0.8,1.5-1c0.6-0.3,1.2-0.4,1.9-0.4s1.3,0.1,1.9,0.4c0.6,0.3,1.1,0.6,1.5,1s0.8,0.9,1,1.5c0.3,0.6,0.4,1.2,0.4,1.9v11.3
			c0,0.1,0,0.1-0.1,0.2s-0.1,0.1-0.2,0.1h-2.1c-0.1,0-0.1,0-0.2-0.1s-0.1-0.1-0.1-0.2V61H105v5.1c0,0.1,0,0.1-0.1,0.2
			C104.7,66.4,104.6,66.4,104.6,66.4z M109,58.2v-3.4c0-0.6-0.2-1-0.6-1.4s-0.9-0.6-1.4-0.6c-0.6,0-1.1,0.2-1.5,0.6
			c-0.4,0.4-0.6,0.9-0.6,1.4v3.4H109z"/>
		<path d="M119.7,50.1c0.7,0,1.5,0.1,2.1,0.4c0.7,0.3,1.2,0.7,1.7,1.2s0.9,1.1,1.2,1.7c0.3,0.7,0.4,1.4,0.4,2.1c0,1-0.3,2-0.8,2.8
			s-1.2,1.5-2,1.9l2.7,5.9c0.1,0.2,0,0.3-0.2,0.3h-2.4c-0.1,0-0.2,0-0.3-0.1s-0.2-0.1-0.2-0.2l-1-2.1l-2.5-5.5
			c-0.1-0.2,0-0.3,0.2-0.3h1c0.4,0,0.7-0.1,1.1-0.2c0.3-0.1,0.6-0.3,0.9-0.6c0.2-0.2,0.4-0.5,0.6-0.9c0.1-0.3,0.2-0.7,0.2-1.1
			c0-0.4-0.1-0.7-0.2-1.1c-0.1-0.3-0.3-0.6-0.6-0.9c-0.2-0.2-0.5-0.4-0.9-0.6c-0.3-0.1-0.7-0.2-1.1-0.2h-2.7v13.3
			c0,0.1,0,0.1-0.1,0.2s-0.1,0.1-0.2,0.1h-2.1c-0.2,0-0.3-0.1-0.3-0.3V50.4c0-0.2,0.1-0.3,0.3-0.3C114.5,50.1,119.7,50.1,119.7,50.1
			z"/>
		<path d="M126.5,50h7.6c0.2,0,0.3,0.1,0.3,0.3v2.1c0,0.2-0.1,0.3-0.3,0.3h-2.4V66c0,0.1,0,0.1-0.1,0.2s-0.1,0.1-0.2,0.1h-2.1
			c-0.1,0-0.1,0-0.2-0.1c-0.1-0.1-0.1-0.1-0.1-0.2V52.8h-2.4c-0.2,0-0.3-0.1-0.3-0.3v-2.1C126.2,50.1,126.3,50,126.5,50z"/>
		<path d="M144.7,66.4h-2.1c-0.1,0-0.2,0-0.2-0.1c-0.1-0.1-0.1-0.1-0.1-0.2V54.8c0-0.7,0.1-1.3,0.4-1.9c0.3-0.6,0.6-1.1,1-1.5
			s0.9-0.8,1.5-1c0.6-0.3,1.2-0.4,1.9-0.4s1.3,0.1,1.9,0.4c0.6,0.3,1.1,0.6,1.5,1s0.8,0.9,1,1.5c0.3,0.6,0.4,1.2,0.4,1.9v11.3
			c0,0.1,0,0.1-0.1,0.2s-0.1,0.1-0.2,0.1h-2.1c-0.1,0-0.1,0-0.2-0.1c-0.1-0.1-0.1-0.1-0.1-0.2V61H145v5.1c0,0.1,0,0.1-0.1,0.2
			C144.8,66.4,144.8,66.4,144.7,66.4z M149.1,58.2v-3.4c0-0.6-0.2-1-0.6-1.4c-0.4-0.4-0.9-0.6-1.4-0.6c-0.6,0-1.1,0.2-1.5,0.6
			c-0.4,0.4-0.6,0.9-0.6,1.4v3.4H149.1z"/>
		<path d="M154.7,50.1h2.1c0.2,0,0.4,0.1,0.5,0.2l3.9,4v-3.9c0-0.2,0.1-0.3,0.3-0.3h2.1c0.2,0,0.3,0.1,0.3,0.3v15.8
			c0,0.2-0.1,0.3-0.3,0.3h-2.1c-0.2,0-0.3-0.1-0.3-0.3v-7.9l-4.1-4.3v12.1c0,0.2-0.1,0.3-0.3,0.3h-2.1c-0.2,0-0.3-0.1-0.3-0.3V50.4
			C154.3,50.2,154.5,50.1,154.7,50.1z"/>
		<path d="M166.8,66.4c-0.2,0-0.3-0.1-0.3-0.3V50.4c0-0.2,0.1-0.3,0.3-0.3h2.1c0.2,0,0.3,0.1,0.3,0.3v15.8c0,0.2-0.1,0.3-0.3,0.3
			h-2.1V66.4z"/>
		<path d="M174.1,50.1c0.1,0,0.2,0,0.3,0.1s0.2,0.1,0.2,0.2l2.5,3.4l2.5-3.4c0-0.1,0.1-0.1,0.2-0.2s0.2-0.1,0.3-0.1h2.1
			c0.2,0,0.3,0.1,0.3,0.3v15.8c0,0.2-0.1,0.3-0.3,0.3h-2.1c-0.2,0-0.3-0.1-0.3-0.3V54.6l-2.5,3.4c0,0.1-0.1,0.1-0.2,0.1
			s-0.1,0-0.2-0.1l-2.5-3.4v11.5c0,0.2-0.1,0.3-0.3,0.3H172c-0.2,0-0.3-0.1-0.3-0.3V50.4c0-0.2,0.1-0.3,0.3-0.3
			C172,50.1,174.1,50.1,174.1,50.1z"/>
		<path d="M187.6,66.4h-2.1c-0.1,0-0.2,0-0.2-0.1c-0.1-0.1-0.1-0.1-0.1-0.2V54.8c0-0.7,0.1-1.3,0.4-1.9c0.3-0.6,0.6-1.1,1-1.5
			s0.9-0.8,1.5-1c0.6-0.3,1.2-0.4,1.9-0.4s1.3,0.1,1.9,0.4c0.6,0.3,1.1,0.6,1.5,1s0.8,0.9,1,1.5c0.3,0.6,0.4,1.2,0.4,1.9v11.3
			c0,0.1,0,0.1-0.1,0.2s-0.1,0.1-0.2,0.1h-2.1c-0.1,0-0.1,0-0.2-0.1c-0.1-0.1-0.1-0.1-0.1-0.2V61H188v5.1c0,0.1,0,0.1-0.1,0.2
			C187.7,66.4,187.6,66.4,187.6,66.4z M192,58.2v-3.4c0-0.6-0.2-1-0.6-1.4c-0.4-0.4-0.9-0.6-1.4-0.6c-0.6,0-1.1,0.2-1.5,0.6
			c-0.4,0.4-0.6,0.9-0.6,1.4v3.4H192z"/>
		<path d="M197.3,50h7.6c0.2,0,0.3,0.1,0.3,0.3v2.1c0,0.2-0.1,0.3-0.3,0.3h-2.4V66c0,0.1,0,0.1-0.1,0.2s-0.1,0.1-0.2,0.1H200
			c-0.1,0-0.1,0-0.2-0.1c-0.1-0.1-0.1-0.1-0.1-0.2V52.8h-2.4c-0.2,0-0.3-0.1-0.3-0.3v-2.1C197,50.1,197.1,50,197.3,50z"/>
		<path d="M207.6,66.4c-0.2,0-0.3-0.1-0.3-0.3V50.4c0-0.2,0.1-0.3,0.3-0.3h2.1c0.2,0,0.3,0.1,0.3,0.3v15.8c0,0.2-0.1,0.3-0.3,0.3
			h-2.1V66.4z"/>
		<path d="M220.1,50c1.1,0,2.2,0.2,3.2,0.6c1,0.4,1.9,1,2.6,1.8c0.7,0.7,1.3,1.6,1.8,2.6s0.6,2.1,0.6,3.2c0,1.1-0.2,2.2-0.6,3.2
			c-0.4,1-1,1.9-1.8,2.6c-0.7,0.7-1.6,1.3-2.6,1.8c-1,0.4-2.1,0.6-3.2,0.6c-1.1,0-2.2-0.2-3.2-0.6s-1.9-1-2.6-1.8
			c-0.7-0.7-1.3-1.6-1.8-2.6c-0.4-1-0.6-2.1-0.6-3.2c0-1.1,0.2-2.2,0.6-3.2c0.4-1,1-1.9,1.8-2.6c0.7-0.7,1.6-1.3,2.6-1.8
			C217.9,50.2,219,50,220.1,50z M220.1,52.8c-0.7,0-1.5,0.1-2.1,0.4c-0.7,0.3-1.2,0.7-1.7,1.2s-0.9,1.1-1.2,1.7
			c-0.3,0.7-0.4,1.4-0.4,2.1s0.1,1.5,0.4,2.1c0.3,0.7,0.7,1.2,1.2,1.7s1.1,0.9,1.7,1.2c0.7,0.3,1.4,0.4,2.1,0.4s1.5-0.1,2.1-0.4
			c0.7-0.3,1.2-0.7,1.7-1.2s0.9-1.1,1.2-1.7c0.3-0.7,0.4-1.4,0.4-2.1s-0.1-1.5-0.4-2.1c-0.3-0.7-0.7-1.2-1.2-1.7s-1.1-0.9-1.7-1.2
			S220.8,52.8,220.1,52.8z"/>
		<path d="M230.6,50.1h2.1c0.2,0,0.4,0.1,0.5,0.2l3.9,4v-3.9c0-0.2,0.1-0.3,0.3-0.3h2.1c0.2,0,0.3,0.1,0.3,0.3v15.8
			c0,0.2-0.1,0.3-0.3,0.3h-2.1c-0.2,0-0.3-0.1-0.3-0.3v-7.9L233,54v12.1c0,0.2-0.1,0.3-0.3,0.3h-2.1c-0.2,0-0.3-0.1-0.3-0.3V50.4
			C230.2,50.2,230.3,50.1,230.6,50.1z"/>
		<path d="M250.6,66.2c-0.2-0.1-0.4-0.2-0.7-0.4c-0.3-0.2-0.5-0.3-0.7-0.5c-0.2-0.1-0.3-0.3-0.3-0.5v-2.7c0-0.2,0.1-0.2,0.2-0.1
			c0.1,0.1,0.3,0.3,0.4,0.4c0.2,0.2,0.3,0.3,0.4,0.3c0.2,0.1,0.5,0.3,0.7,0.4c0.3,0.2,0.6,0.3,0.9,0.4c0.2,0,0.3,0.1,0.5,0.1
			s0.3,0,0.5,0c0.7,0,1.2-0.2,1.7-0.7c0.4-0.5,0.7-1.1,0.7-1.7c0-0.6-0.2-1-0.6-1.3c-0.4-0.4-1-0.8-1.9-1.2
			c-0.3-0.1-0.5-0.3-0.7-0.4s-0.4-0.2-0.6-0.4c-0.2-0.1-0.4-0.3-0.5-0.4s-0.3-0.3-0.5-0.5c-0.4-0.3-0.7-0.7-0.8-1.2
			c-0.2-0.5-0.3-1.1-0.3-1.7c0-0.6,0.2-1.2,0.5-1.8c0.3-0.5,0.6-1,1.1-1.4s1-0.7,1.6-0.9s1.2-0.3,1.9-0.3c0.5,0,0.9,0.1,1.4,0.2
			c0.2,0.1,0.4,0.2,0.6,0.3s0.4,0.2,0.5,0.3c0.1,0,0.1,0.1,0.2,0.2s0.1,0.2,0.1,0.3v2.1c0,0.2-0.1,0.2-0.3,0.1
			c-0.2-0.2-0.4-0.3-0.7-0.4c-0.2-0.1-0.6-0.3-1-0.4c-0.3-0.1-0.6-0.1-0.8-0.1c-0.7,0-1.2,0.2-1.7,0.6c-0.4,0.4-0.7,0.9-0.7,1.4
			s0.2,0.9,0.6,1.2c0.2,0.2,0.4,0.3,0.7,0.5s0.7,0.4,1.1,0.6c0.3,0.1,0.6,0.3,0.8,0.4c0.2,0.1,0.4,0.2,0.6,0.3
			c0.2,0.1,0.4,0.3,0.6,0.4s0.4,0.3,0.5,0.5c0.4,0.4,0.7,0.8,0.9,1.3c0.2,0.5,0.3,1.1,0.4,1.9c0,0.7-0.1,1.3-0.4,1.9
			c-0.3,0.6-0.7,1.1-1.1,1.6c-0.5,0.5-1,0.8-1.7,1.1c-0.6,0.3-1.3,0.4-1.9,0.4C251.8,66.5,251.1,66.4,250.6,66.2z"/>
		<path d="M259,50h7.6c0.2,0,0.3,0.1,0.3,0.3v2.1c0,0.2-0.1,0.3-0.3,0.3h-2.4V66c0,0.1,0,0.1-0.1,0.2s-0.1,0.1-0.2,0.1h-2.1
			c-0.1,0-0.1,0-0.2-0.1s-0.1-0.1-0.1-0.2V52.8H259c-0.2,0-0.3-0.1-0.3-0.3v-2.1C258.7,50.1,258.8,50,259,50z"/>
		<path d="M271.4,50c0.2,0,0.3,0.1,0.3,0.3v11.3c0,0.6,0.2,1.1,0.6,1.5s0.9,0.6,1.5,0.6s1-0.2,1.4-0.6c0.4-0.4,0.6-0.9,0.6-1.5V50.3
			c0-0.2,0.1-0.3,0.3-0.3h2.1c0.2,0,0.3,0.1,0.3,0.3v11.3c0,0.7-0.1,1.3-0.4,1.9c-0.3,0.6-0.6,1.1-1,1.5s-0.9,0.8-1.5,1
			c-0.6,0.3-1.2,0.4-1.9,0.4s-1.3-0.1-1.9-0.4s-1.1-0.6-1.5-1s-0.8-0.9-1-1.5c-0.3-0.6-0.4-1.2-0.4-1.9V50.3c0-0.1,0-0.1,0.1-0.2
			c0.1-0.1,0.1-0.1,0.2-0.1H271.4z"/>
		<path d="M283.7,50c1.1,0,2.2,0.2,3.2,0.6c1,0.4,1.9,1,2.6,1.8c0.7,0.7,1.3,1.6,1.8,2.6s0.6,2.1,0.6,3.2c0,1.1-0.2,2.2-0.6,3.2
			s-1,1.9-1.8,2.6c-0.7,0.7-1.6,1.3-2.6,1.8c-1,0.4-2.1,0.6-3.2,0.6h-2.4c-0.1,0-0.2,0-0.2-0.1c-0.1-0.1-0.1-0.1-0.1-0.2V50.4
			c0-0.2,0.1-0.3,0.3-0.3h2.4L283.7,50L283.7,50z M283.7,63.7c0.7,0,1.5-0.1,2.1-0.4c0.7-0.3,1.2-0.7,1.7-1.2s0.9-1.1,1.2-1.7
			c0.3-0.7,0.4-1.4,0.4-2.1s-0.1-1.5-0.4-2.1c-0.3-0.7-0.7-1.2-1.2-1.7s-1.1-0.9-1.7-1.2s-1.4-0.4-2.1-0.4V63.7z"/>
		<path d="M294.2,66.4c-0.2,0-0.3-0.1-0.3-0.3V50.4c0-0.2,0.1-0.3,0.3-0.3h2.1c0.2,0,0.3,0.1,0.3,0.3v15.8c0,0.2-0.1,0.3-0.3,0.3
			h-2.1V66.4z"/>
		<path d="M306.7,50c1.1,0,2.2,0.2,3.2,0.6c1,0.4,1.9,1,2.6,1.8c0.7,0.7,1.3,1.6,1.8,2.6s0.6,2.1,0.6,3.2c0,1.1-0.2,2.2-0.6,3.2
			s-1,1.9-1.8,2.6c-0.7,0.7-1.6,1.3-2.6,1.8c-1,0.4-2.1,0.6-3.2,0.6s-2.2-0.2-3.2-0.6s-1.9-1-2.6-1.8c-0.7-0.7-1.3-1.6-1.8-2.6
			c-0.4-1-0.6-2.1-0.6-3.2c0-1.1,0.2-2.2,0.6-3.2s1-1.9,1.8-2.6c0.7-0.7,1.6-1.3,2.6-1.8C304.5,50.2,305.6,50,306.7,50z M306.7,52.8
			c-0.7,0-1.5,0.1-2.1,0.4c-0.7,0.3-1.2,0.7-1.7,1.2s-0.9,1.1-1.2,1.7c-0.3,0.7-0.4,1.4-0.4,2.1s0.1,1.5,0.4,2.1
			c0.3,0.7,0.7,1.2,1.2,1.7s1.1,0.9,1.7,1.2c0.7,0.3,1.4,0.4,2.1,0.4s1.5-0.1,2.1-0.4c0.7-0.3,1.2-0.7,1.7-1.2s0.9-1.1,1.2-1.7
			c0.3-0.7,0.4-1.4,0.4-2.1s-0.1-1.5-0.4-2.1c-0.3-0.7-0.7-1.2-1.2-1.7s-1.1-0.9-1.7-1.2S307.5,52.8,306.7,52.8z"/>
	</g>
</g>
</svg>
