<?xml version="1.0" encoding="utf-8"?>
<!-- Generator: Adobe Illustrator 22.0.0, SVG Export Plug-In . SVG Version: 6.00 Build 0)  -->
<svg version="1.1" xmlns="http://www.w3.org/2000/svg" xmlns:xlink="http://www.w3.org/1999/xlink" x="0px" y="0px"
	 viewBox="0 0 48 48" xml:space="preserve">
<path d="M41.4,0H6.6C3,0,0,3,0,6.6v34.7C0,45,3,48,6.6,48h34.7c3.7,0,6.6-3,6.6-6.6V6.6C48,3,45,0,41.4,0z M16.5,12.4
	c2.9,5.1,5.8,10.1,8.8,15.3c-6,0-11.7,0-17.6,0C10.7,22.6,13.6,17.5,16.5,12.4z M32,41.1c-6.7,0-13.4,0-20.2,0c-2,0-3.4-0.8-4.3-2.5
	c-0.9-1.8-2-3.5-3.1-5.2c0-0.1,0-0.1,0-0.2c7.7,0,15.5,0,23.2,0c0.7,0,1.1,0.2,1.4,0.8c1.3,2.3,2.6,4.6,4,7
	C32.6,41.1,32.3,41.1,32,41.1z M42.9,35.6c-1,1.6-1.9,3.3-2.9,4.9c-0.1,0.2-0.2,0.3-0.4,0.6C36.5,35.7,23,12.4,19.8,7
	c0.3,0,0.5-0.1,0.7-0.1c1.9,0,3.8,0,5.7,0c1.8,0,3,0.8,3.9,2.3c2,3.4,10.7,18.6,12.7,22C43.7,32.6,43.8,34.1,42.9,35.6z"/>
</svg>
