<?xml version="1.0" encoding="utf-8"?>
<!-- Generator: Adobe Illustrator 22.0.0, SVG Export Plug-In . SVG Version: 6.00 Build 0)  -->
<svg version="1.1" xmlns="http://www.w3.org/2000/svg" xmlns:xlink="http://www.w3.org/1999/xlink" x="0px" y="0px"
	 viewBox="0 0 48 48" xml:space="preserve">
<g>
	<path d="M15.9,21.4c0.6,0,1.2-0.1,1.8-0.3c1.2-0.4,1.8-1.3,1.7-2.6c-0.1-1.4-0.6-2.1-2-2.3c-1.4-0.2-2.9-0.2-4.3-0.2
		c-0.8,0-1.6,0-2.5,0c0,1.8,0,3.6,0,5.4c0.1,0,0.2,0,0.3,0C12.6,21.4,14.2,21.4,15.9,21.4z"/>
	<path d="M18.2,25.8c-0.5-0.2-1.1-0.3-1.7-0.3c-1.8,0-3.7,0-5.5,0c-0.1,0-0.2,0-0.3,0c0,2.2,0,4.3,0,6.4c2.1,0,4.2,0.1,6.3,0
		c1.8-0.1,2.7-1,2.9-2.6c0.1-0.4,0.1-0.8,0-1.2C19.8,27,19.2,26.2,18.2,25.8z"/>
	<path d="M35.9,0H12.1C5.4,0,0,5.4,0,12.1v23.7C0,42.6,5.4,48,12.1,48h23.7C42.6,48,48,42.6,48,35.9V12.1C48,5.4,42.6,0,35.9,0z
		 M29.4,12.8c3.2,0,6.5,0,9.8,0c0,0.8,0,1.6,0,2.4c-3.3,0-6.5,0-9.8,0C29.4,14.4,29.4,13.6,29.4,12.8z M21.1,35.4
		c-1,0.5-2.1,0.8-3.2,0.8c-4.3,0.1-8.5,0-12.8,0c0-8.1,0-16.2,0-24.4c0.2,0,0.3,0,0.5,0c3.7,0,7.4,0,11.1,0c1.4,0,2.8,0.2,4.1,0.7
		c2.4,1,3.7,3.1,3.6,5.8c-0.1,2.1-0.8,3.7-2.8,4.7c-0.1,0-0.1,0.1-0.2,0.1c0,0,0.1,0.1,0.1,0.1c2.5,1,3.5,2.9,3.6,5.5
		C25.1,31.7,23.8,33.9,21.1,35.4z M43,28c-4.3,0-8.5,0-12.7,0c-0.1,2.7,1.7,4.4,4.4,4.3c1.4,0,2.5-0.5,3.3-1.8
		c0.1-0.1,0.2-0.2,0.3-0.2c1.5,0,3,0,4.5,0c-0.1,1-0.6,1.8-1.1,2.5C39.9,35,37.7,36,35,36.1c-2.7,0.1-5.1-0.6-7.2-2.5
		c-1.2-1.1-1.8-2.5-2-4.1c-0.4-2.3-0.4-4.6,0.5-6.9c1.2-3.1,3.5-4.7,6.8-5.1c1.9-0.2,3.7,0,5.4,0.8c2.2,1.1,3.5,2.9,4.1,5.2
		C43,25,43,26.5,43,28z"/>
	<path d="M34.4,21.3c-2.5-0.1-3.8,1.7-4,3.7c2.6,0,5.2,0,7.8,0C38.2,22.9,36.6,21.3,34.4,21.3z"/>
</g>
</svg>
