<?xml version="1.0" encoding="utf-8"?>
<!-- Generator: Adobe Illustrator 22.0.0, SVG Export Plug-In . SVG Version: 6.00 Build 0)  -->
<svg version="1.1" xmlns="http://www.w3.org/2000/svg" xmlns:xlink="http://www.w3.org/1999/xlink" x="0px" y="0px"
	 viewBox="0 0 48.6 55" xml:space="preserve">
<g>
	<path d="M5.3,48.7C2.2,48.4,0,46,0,43C0,30.6,0,18.1,0,5.7C0,2.7,2.2,0.3,5.2,0c0.1,0,0.2,0,0.3,0c12.4,0,24.6,0,37,0
		c0.3,0,0.6,0,1,0c2.7,0.2,5,2.4,5.2,5.2c0,0.4,0,0.9,0,1.3c0,15.9,0,31.8,0,47.8c0,0.2,0,0.5,0,0.7h-0.1
		c-4.3-3.6-8.3-7.4-12.5-11.1c0,0-0.1,0-0.2,0c0.1,0.2,0.1,0.3,0.2,0.4c0.4,1.4,0.8,2.8,1.2,4.4c0,0,0,0,0,0.1c-0.2,0-0.4,0-0.5,0
		c-10.3,0-20.6,0-30.9,0C5.6,48.7,5.4,48.7,5.3,48.7z M22.1,33.5L22.1,33.5c0.4,0,0.7,0.1,1,0.1l0.1,0.1c0.8,0,1.6,0,2.4,0
		c0,0,0.1,0,0.1-0.1c3.3-0.3,6.4-1.2,9.3-2.9c-1.2,1.6-2.8,2.5-4.8,3c0,0.1,0,0.2,0.1,0.2c0.5,0.6,1,1.2,1.5,1.8
		C32,36,32.2,36,32.4,36c1.1,0,2.1-0.2,3.1-0.6c2-0.7,3.6-1.8,5-3.5c0,0,0-0.1,0.1-0.1c0-1.5-0.1-3-0.3-4.5c-0.5-3.5-1.5-7-3-10.3
		c-0.4-0.9-1-1.6-1.8-2.1c-1.8-1-3.7-1.8-5.8-2c-0.3-0.1-0.5-0.2-0.8,0l-0.1,0.1L28.7,13c0,0.1,0,0.2,0,0.2c0.1,0.1,0.3,0.1,0.4,0.1
		c1.3,0.4,2.5,0.9,3.7,1.6c0.6,0.3,1.2,0.8,1.8,1.1c0,0.1-0.1,0.1-0.1,0.2c-0.1-0.1-0.2-0.1-0.3-0.2c-2.5-1.2-5.2-1.9-7.9-2.1
		c-1.2-0.2-2.4-0.2-3.6,0h-0.1c-0.3,0-0.6,0.1-1,0.1c-2.8,0.3-5.4,1.1-7.9,2.3l-0.1-0.1c2-1.5,4.3-2.4,6.7-3.1
		c-0.1-0.1-0.2-0.2-0.3-0.3c-0.3,0-0.5,0-0.8,0c-1.9,0.2-3.7,0.9-5.5,1.8c-1.4,0.8-1.5,0.9-2.2,2.4c-1.3,2.9-2.2,5.9-2.7,9
		c-0.2,0.8-0.2,1.7-0.4,2.6c0,0.1,0,0.1,0,0.2c0,0.8-0.1,1.6-0.1,2.3c0,0.4,0.1,0.6,0.3,0.9c2,2.4,4.8,3.5,7.8,3.7
		c0.2,0,0.4-0.1,0.5-0.3c0.4-0.6,0.9-1.1,1.3-1.6c0.1-0.1,0.1-0.2,0.2-0.3c-1.7-0.5-3.2-1.4-4.5-2.7c0-0.1,0.1-0.1,0.1-0.2
		c1.8,1.1,3.8,1.8,6,2.3c0.6,0.1,1.2,0.2,1.9,0.4C22.1,33.5,22.1,33.5,22.1,33.5z"/>
	<path d="M19.9,23.2c1.2,0.3,2.1,1.4,2.2,2.7c0.1,1.4-0.6,2.6-1.8,3.1c-1.3,0.5-2.9-0.1-3.5-1.5c-0.9-1.9,0.2-4.1,1.9-4.4
		C19,23.2,19.4,23.2,19.9,23.2z"/>
	<path d="M30,23.2c1.4,0.4,2.2,1.5,2.2,2.9c0,1.5-0.8,2.6-2.1,3c-0.7,0.2-1.3,0.1-1.9-0.2c-1.1-0.6-1.7-1.8-1.6-2.9
		c0.2-1.5,0.9-2.4,2.3-2.8C29.3,23.2,29.6,23.2,30,23.2z"/>
</g>
</svg>
