<?xml version="1.0" encoding="utf-8"?>
<!-- Generator: Adobe Illustrator 22.0.0, SVG Export Plug-In . SVG Version: 6.00 Build 0)  -->
<svg version="1.1" xmlns="http://www.w3.org/2000/svg" xmlns:xlink="http://www.w3.org/1999/xlink" x="0px" y="0px"
	 viewBox="0 0 48 48" xml:space="preserve">
<path d="M35.9,0H12.1C5.4,0,0,5.4,0,12.1v23.7C0,42.6,5.4,48,12.1,48h8.1V30.9h-6V24h6v-5.2c0-5.9,3.5-9.2,9-9.2
	c2.6,0,5.3,0.5,5.3,0.5v5.8h-3c-2.9,0-3.9,1.8-3.9,3.7V24h6.6l-1.1,6.9h-5.5V48l0,0h8.1C42.6,48,48,42.6,48,35.9V12.1
	C48,5.4,42.6,0,35.9,0z"/>
</svg>
