<?xml version="1.0" encoding="utf-8"?>
<!-- Generator: Adobe Illustrator 22.0.0, SVG Export Plug-In . SVG Version: 6.00 Build 0)  -->
<svg version="1.1" xmlns="http://www.w3.org/2000/svg" xmlns:xlink="http://www.w3.org/1999/xlink" x="0px" y="0px"
	 viewBox="0 0 48 48" xml:space="preserve">
<path d="M35.9,0H12.1C5.4,0,0,5.4,0,12.1v23.7C0,42.6,5.4,48,12.1,48h23.7C42.6,48,48,42.6,48,35.9V12.1C48,5.4,42.6,0,35.9,0z
	 M40.7,35.6c0,0.1-0.1,0.1-0.1,0.2c-0.4,2.3-2.3,4-4.6,4c-8,0-16.1,0-24.1,0c-2.1,0-4-1.5-4.5-3.6c-0.1-0.2-0.1-0.4-0.1-0.6
	c0-7.9,0-15.9,0-23.8c0,0,0-0.1,0-0.1c0.6-2.7,2.3-4.1,5-4.1c6.7,0,13.3,0,20,0c0.8,0,1.6,0,2.4,0c0.2,0,0.4-0.1,0.5-0.2
	c1.1-1.4,3.2-1.5,4.5-0.3c1.3,1.2,1.4,3.2,0.1,4.5c-1.3,1.3-3.3,1.3-4.5-0.1c-0.1-0.2-0.3-0.2-0.5-0.2c-0.8,0-1.7,0-2.5,0v0
	c-6.7,0-13.5,0-20.2,0c-0.9,0-1.2,0.3-1.2,1.2c0,7.5,0,15,0,22.5c0,0.9,0.3,1.2,1.2,1.2c7.9,0,15.9,0,23.8,0c0.9,0,1.2-0.3,1.2-1.2
	c0-4.5,0-9.1,0-13.6c0-0.8-0.3-1.2-1.2-1.2c-4.4,0-8.9,0-13.3,0c-0.9,0-1.2,0.3-1.2,1.2c0,1.3,0,2.6,0,3.9c0,0.9,0.3,1.2,1.2,1.2
	c1.9,0,3.9,0,5.8,0c0.2,0,0.4-0.1,0.5-0.2c1.1-1.4,3.2-1.5,4.5-0.3c1.3,1.2,1.4,3.2,0.1,4.5c-1.3,1.3-3.3,1.3-4.5-0.1
	c-0.1-0.2-0.3-0.2-0.5-0.2c-2,0-4,0-6,0c-2.7,0-4.7-2.1-4.8-4.8c0-1.3,0-2.7,0-4c0-2.8,2-4.8,4.8-4.8c4.5,0,8.9,0,13.4,0
	c2.2,0,4.1,1.4,4.6,3.6c0.1,0.3,0.1,0.5,0.2,0.8C40.7,25.8,40.7,30.7,40.7,35.6z"/>
</svg>
