<?xml version="1.0" encoding="utf-8"?>
<!-- Generator: Adobe Illustrator 22.0.0, SVG Export Plug-In . SVG Version: 6.00 Build 0)  -->
<svg version="1.1" xmlns="http://www.w3.org/2000/svg" xmlns:xlink="http://www.w3.org/1999/xlink" x="0px" y="0px"
	 viewBox="0 0 48 48" xml:space="preserve">
<g>
	<g>
		<path d="M36.7,8.6c-1.6,0-2.8,1.3-2.8,2.8c0,1.6,1.3,2.8,2.8,2.8c1.6,0,2.8-1.3,2.8-2.8C39.5,9.8,38.3,8.6,36.7,8.6z"/>
		<path d="M24.2,12.2c-6.5,0-11.8,5.3-11.8,11.8c0,6.5,5.3,11.8,11.8,11.8C30.7,35.8,36,30.5,36,24C36,17.5,30.7,12.2,24.2,12.2z
			 M24.2,31.6c-4.2,0-7.6-3.4-7.6-7.6s3.4-7.6,7.6-7.6c4.2,0,7.6,3.4,7.6,7.6S28.4,31.6,24.2,31.6z"/>
		<path d="M33.6,48H14.4C6.5,48,0,41.5,0,33.6V14.4C0,6.5,6.5,0,14.4,0h19.2C41.5,0,48,6.5,48,14.4v19.2C48,41.5,41.5,48,33.6,48z
			 M14.4,4.5C9,4.5,4.5,9,4.5,14.4v19.2c0,5.5,4.4,9.9,9.9,9.9h19.2c5.5,0,9.9-4.4,9.9-9.9V14.4c0-5.5-4.4-9.9-9.9-9.9H14.4z"/>
	</g>
</g>
</svg>
