<?xml version="1.0" encoding="utf-8"?>
<!-- Generator: Adobe Illustrator 22.0.0, SVG Export Plug-In . SVG Version: 6.00 Build 0)  -->
<svg version="1.1" xmlns="http://www.w3.org/2000/svg" xmlns:xlink="http://www.w3.org/1999/xlink" x="0px" y="0px"
	 viewBox="0 0 48 48" xml:space="preserve">
<path d="M35.9,0H12.1C5.4,0,0,5.4,0,12.1v23.7C0,42.6,5.4,48,12.1,48h23.7C42.6,48,48,42.6,48,35.9V12.1C48,5.4,42.6,0,35.9,0z
	 M15.6,39.1h-5.2V11.6h5.2V39.1z M29.4,32.8c-5.8,0-10.6-4.7-10.6-10.6c0-5.8,4.7-10.6,10.6-10.6S40,16.3,40,22.2
	C40,28,35.3,32.8,29.4,32.8z"/>
</svg>
