<svg data-name="Capa 1" xmlns="http://www.w3.org/2000/svg" viewBox="0 0 36.07 36.07"><title>Mesa de trabajo 4</title><path d="M26.94,0H9.13A9.13,9.13,0,0,0,0,9.13V26.94a9.13,9.13,0,0,0,9.13,9.13H26.94a9.13,9.13,0,0,0,9.13-9.13V9.13A9.13,9.13,0,0,0,26.94,0Zm1,12.07a.5.5,0,0,1-.1.31A7.4,7.4,0,0,1,26.3,14c-.09.07-.24.14-.24.26A12,12,0,0,1,22.9,23a11.76,11.76,0,0,1-11.41,2.67,11,11,0,0,1-2.2-.88,7.84,7.84,0,0,1-.69-.41c-.06-.05-.1-.09,0-.12s.08,0,.26,0a7.87,7.87,0,0,0,3.3-.42,5,5,0,0,0,2.18-1.16s0,0,0,0c-.14,0-.29,0-.43-.06a4.25,4.25,0,0,1-3.18-2.67c0-.1,0-.16.11-.14a4.55,4.55,0,0,0,1.51,0,2.32,2.32,0,0,1-.51-.16,4.1,4.1,0,0,1-2.53-3.27,2.48,2.48,0,0,1,0-.46c0-.11.06-.14.15-.08A3.93,3.93,0,0,0,11,16.2a5.15,5.15,0,0,1-.5-.43A4.08,4.08,0,0,1,9.76,11c.08-.11.13-.11.22,0A12.5,12.5,0,0,0,18,15c.08,0,.09,0,.08-.09a4.09,4.09,0,0,1,5.53-4.53,4.4,4.4,0,0,1,1.13.69c.07.06.13.14.2.21a.15.15,0,0,0,.16,0,9.67,9.67,0,0,0,2.33-.89.16.16,0,0,1,.1,0s0,.07,0,.11a3.74,3.74,0,0,1-.65,1.19c-.19.23-.65.8-1,.85a7.73,7.73,0,0,0,2-.56c.08,0,.08-.05.08,0Z"/></svg>