<?xml version="1.0" encoding="utf-8"?>
<!-- Generator: Adobe Illustrator 22.0.0, SVG Export Plug-In . SVG Version: 6.00 Build 0)  -->
<svg version="1.1" xmlns="http://www.w3.org/2000/svg" xmlns:xlink="http://www.w3.org/1999/xlink" x="0px" y="0px"
	 viewBox="0 0 48 48" xml:space="preserve">
<path d="M39.4,48c-10.2,0-20.5,0-30.7,0c-0.1,0-0.3-0.1-0.4-0.1c-3.7-0.6-6.3-2.7-7.6-6.2c-0.3-0.7-0.4-1.5-0.6-2.3
	C0,29.1,0,18.9,0,8.6c0.1-0.4,0.1-0.7,0.2-1.1C1.3,3.1,5,0,9.6,0c9.6,0,19.2,0,28.8,0c1.7,0,3.3,0.4,4.7,1.3C46.4,3.2,48,6.1,48,9.8
	c0,9.4,0,18.9,0,28.3c0,0.3,0,0.5,0,0.8c-0.4,4.1-2.5,6.9-6.3,8.4C41,47.7,40.2,47.8,39.4,48z M26.7,16.8c0.6,0,1.3,0,1.9,0
	c1.5,0.1,2.3,0.8,2.5,2.1c0.1,0.9,0,1.9-0.2,2.8c-0.5,1.7-1.4,3.2-2.3,4.7c-0.3,0.5-0.7,0.9-1.1,1.3c-0.8,0.8-1.8,0.9-2.7,0
	c-0.4-0.4-0.8-0.8-1-1.3c-0.7-1.2-0.9-2.6-1.1-4c-0.4-2.5-0.7-5.1-1.1-7.6c-0.2-1.4-0.7-2.8-1.7-4c-0.6-0.8-1.4-1.2-2.5-1.1
	c-1.1,0.1-2.2,0.5-3.1,1c-2.8,1.7-5.1,4.1-7.7,6.2c-0.1,0.1-0.2,0.3-0.1,0.4C6.9,18.6,7.6,19,9,18.7c0.6-0.1,1.1-0.3,1.7-0.4
	c0.8-0.2,1.4,0.1,1.8,0.8c0.3,0.5,0.5,1,0.7,1.5c0.7,2.2,1.4,4.3,2,6.5c0.7,2.5,1.3,5,2.1,7.4c0.4,1.2,0.9,2.3,1.8,3.3
	c1,1.1,2.2,1.7,3.7,1.4c1.2-0.2,2.3-0.6,3.3-1.3c3.1-1.9,5.5-4.6,7.7-7.5c3-4.1,5.3-8.6,7.1-13.4c0.5-1.5,1-3,0.9-4.6
	c-0.1-1.5-0.8-2.6-2.2-3.2c-1.8-0.7-3.6-0.7-5.4,0c-2.5,0.9-4.5,2.5-6,4.8C27.4,14.8,27,15.7,26.7,16.8z"/>
</svg>
