<?xml version="1.0" encoding="utf-8"?>
<!-- Generator: Adobe Illustrator 22.0.0, SVG Export Plug-In . SVG Version: 6.00 Build 0)  -->
<svg version="1.1" xmlns="http://www.w3.org/2000/svg" xmlns:xlink="http://www.w3.org/1999/xlink" x="0px" y="0px"
	 viewBox="0 0 58.8 92.8" xml:space="preserve">
<style type="text/css">
	.tautologomovst0{fill:url(#SVGID_1_);}
	.tautologomovst1{fill:#FFFFFF;}
	.tautologomovst2{opacity:0.75;}
	.tautologomovst3{fill:#9590FF;}
	.tautologomovst4{opacity:0.75;fill:#9590FF;}
	.tautologomovst5{opacity:0.12;fill:#FFB94D;}
	.tautologomovst6{fill:#FFB94D;}
	.tautologomovst7{fill:url(#SVGID_2_);}
	.tautologomovst8{fill:#FFBD60;}
	.tautologomovst9{opacity:0.75;fill:#FFBD60;}
	.tautologomovst10{opacity:0.12;fill:#0FA972;}
	.tautologomovst11{fill:#0FA972;}
	.tautologomovst12{fill:#004393;}
	.tautologomovst13{fill:#00000C;}
	.tautologomovst14{fill:#003C57;}
</style>
<g>
	<path d="M54.7,54.3c-0.5-1.3-0.6-0.1-0.9-0.8c-4.9-13-9.4-15.7-9.4-15.7s2-1.8,2.5-2.6c0.8-1,2.6-2.3,2.6-4.3c0-3.1-1.7-4.5-2-5.9
		c-0.4-1.8,0-4.8-0.1-6.7c-0.1-1.7-0.2-5.1-0.9-6.6c-0.6-1.4-2.3-3.3-3.5-4.1c-2.6-2-5.9-1-5.9-1s1-1.6-0.1-2.7
		c-1-1.1-2.7-0.1-2.7-0.1s0.5-2.8-1.6-3c-1.5-0.1-2.6,1.4-3,1.9c-0.4-0.6-1.5-2-3-1.9c-2.1,0.2-1.6,3-1.6,3s-1.8-1-2.8,0.1
		c-1.1,1.1-0.1,2.7-0.1,2.7s-3.4-1-6.1,1c-1.2,0.9-3,2.8-3.6,4.1c-0.7,1.5-0.8,5-0.9,6.6c-0.1,1.9,0.3,4.9-0.1,6.7
		c-0.3,1.4-2.1,2.8-2.1,5.9c0,2,1.9,3.3,2.6,4.3c0.6,0.7,2.6,2.6,2.6,2.6S10.1,40.5,5,53.5c-0.3,0.7-0.4-0.5-0.9,0.8
		c-0.8,2-1.5,5-1.1,6c0.3,0.6,1.8,1,1.8,1s0,2.6,0.2,4.8c0.1,2.3,2.6,4,3.9,4.2c1.4,0.1,1-4.1,1-4.1l0.7,0.1c0,0,0.1,1.4,0.3,1.8
		c0.1,0.2,0.5,0.4,0.5,0.4s-0.2,3.1,0.3,3.9c0.5,0.8,3.5,1.4,3.5,1.4s0.4,6.2,1.9,7.4c0.3,0.2,1.5,0.3,1.5,0.3l0.3,5.4
		c0,0-1.9,2-2.5,2.8c-0.3,0.4-0.9,1.2-0.7,1.7c0.1,0.3,0.5,0.4,0.8,0.4c2.1,0.4,8.4,0,8.4,0s0.6-0.3,0.9-0.9
		c0.4-0.7-0.2-9.3-0.2-9.3s1.9,0,2.1-0.5c0.3-1.3,0.2-5.5,0.2-5.5h1.7v0l1.8,0c0,0-0.1,4.1,0.2,5.5c0.1,0.5,2,0.5,2,0.5
		s-0.6,8.5-0.2,9.3c0.3,0.6,0.9,0.9,0.9,0.9s6.1,0.4,8.1,0c0.3-0.1,0.7-0.1,0.7-0.4c0.1-0.5-0.4-1.3-0.7-1.7
		c-0.6-0.8-2.4-2.8-2.4-2.8l0.3-5.4c0,0,1.2-0.1,1.4-0.3c1.5-1.3,1.9-7.4,1.9-7.4s2.9-0.6,3.4-1.4c0.5-0.8,0.3-3.9,0.3-3.9
		s0.4-0.2,0.5-0.4c0.2-0.4,0.3-1.8,0.3-1.8l0.7-0.1c0,0-0.4,4.2,0.9,4.1c1.2-0.1,3.7-1.9,3.8-4.2c0.1-2.1,0.2-4.8,0.2-4.8
		s1.5-0.4,1.8-1C56.2,59.3,55.5,56.2,54.7,54.3z M42.8,31.5c-1.1,1.4-4.2,2.8-5.9,3.1c-1.8,0.4-7.3,0.5-7.3,0.5v0
		c-1.5,0-5.5-0.2-7-0.4c-1.7-0.3-5-1.7-6.1-3.1c-0.6-0.7-1.3-2.3-1.3-3.2c0-2.4,1.5-9.8,1.5-9.8s1.6,0.1,2.7-0.2
		c1.5-0.5,1.9-2.4,1.9-2.4s0.8,1.7,2.4,1.6c2.2-0.2,2.7-2.4,2.7-2.4s0.5,1.1,1.3,1.6c0.8,0.6,2.2,0.6,2.2,0.6s1.2,0,2-0.6
		c0.8-0.5,1.2-1.6,1.2-1.6s0.5,2.2,2.7,2.4c1.6,0.1,2.3-1.6,2.3-1.6s0.5,1.9,1.9,2.4c1.1,0.4,2.7,0.2,2.7,0.2s1.4,7.4,1.4,9.8
		C44,29.2,43.3,30.8,42.8,31.5z"/>
	<ellipse cx="23.6" cy="23.5" rx="1.5" ry="2.3"/>
	<ellipse cx="36" cy="23.5" rx="1.5" ry="2.3"/>
</g>
</svg>
