<?xml version="1.0" encoding="utf-8"?>
<!-- Generator: Adobe Illustrator 22.0.0, SVG Export Plug-In . SVG Version: 6.00 Build 0)  -->
<svg version="1.1" xmlns="http://www.w3.org/2000/svg" xmlns:xlink="http://www.w3.org/1999/xlink" x="0px" y="0px"
	 viewBox="0 0 130.6 196.4" xml:space="preserve">
<style type="text/css">
	.tautologost0{fill:url(#SVGID_1_);}
	.tautologost1{fill:#FFFFFF;}
	.tautologost2{opacity:0.75;}
	.tautologost3{fill:#9590FF;}
	.tautologost4{opacity:0.75;fill:#9590FF;}
	.tautologost5{opacity:0.12;fill:#FFB94D;}
	.tautologost6{fill:#FFB94D;}
	.tautologost7{fill:url(#SVGID_2_);}
	.tautologost8{fill:#FFBD60;}
	.tautologost9{opacity:0.75;fill:#FFBD60;}
	.tautologost10{opacity:0.12;fill:#0FA972;}
	.tautologost11{fill:#0FA972;}
	.tautologost12{fill:#004393;}
	.tautologost13{fill:#00000C;}
	.tautologost14{fill:#003C57;}
</style>
<g>
	<g>
		<path d="M8.7,187.4c0.5,0.1,1,0.3,1.4,0.6c0.4,0.3,0.8,0.6,1.2,0.9c0.3,0.4,0.6,0.8,0.8,1.3c0.2,0.5,0.3,1,0.3,1.5
			c0,0.6-0.1,1.2-0.4,1.8c-0.2,0.5-0.6,1-1,1.4c-0.4,0.4-0.9,0.7-1.4,1c-0.6,0.2-1.1,0.4-1.8,0.4c-0.6,0-1.2-0.1-1.7-0.3
			c-0.5-0.2-1-0.5-1.4-0.9c-0.4-0.4-0.7-0.8-1-1.3c-0.2-0.5-0.4-1.1-0.4-1.7c0-0.2,0.1-0.3,0.2-0.3h1.7c0.2,0,0.3,0.1,0.3,0.3
			c0,0.3,0.1,0.5,0.2,0.8c0.1,0.2,0.3,0.5,0.5,0.6s0.4,0.3,0.7,0.4c0.3,0.1,0.5,0.2,0.8,0.2c0.3,0,0.6-0.1,0.9-0.2
			c0.3-0.1,0.5-0.3,0.7-0.5c0.2-0.2,0.4-0.4,0.5-0.7c0.1-0.3,0.2-0.6,0.2-0.9c0-0.3-0.1-0.6-0.2-0.9c-0.1-0.3-0.3-0.5-0.5-0.7
			c-0.2-0.2-0.4-0.4-0.7-0.5c-0.3-0.1-0.6-0.2-0.9-0.2H5.2c-0.2,0-0.2-0.1-0.1-0.2l2.7-4.3H4.5c-0.2,0-0.2-0.1-0.2-0.2v-1.7
			c0-0.1,0-0.1,0.1-0.2c0.1-0.1,0.1-0.1,0.2-0.1h6.8c0.1,0,0.1,0,0.1,0.1c0,0,0,0.1,0,0.2L8.7,187.4z"/>
		<path d="M16.3,182.7c0.9,0,1.8,0.2,2.6,0.5c0.8,0.4,1.5,0.8,2.2,1.5c0.6,0.6,1.1,1.3,1.5,2.2c0.4,0.8,0.5,1.7,0.5,2.6
			c0,0.9-0.2,1.8-0.5,2.6c-0.4,0.8-0.8,1.5-1.5,2.2c-0.6,0.6-1.3,1.1-2.2,1.5c-0.8,0.4-1.7,0.5-2.6,0.5h-2c-0.1,0-0.1,0-0.2-0.1
			c-0.1-0.1-0.1-0.1-0.1-0.2v-13c0-0.2,0.1-0.3,0.3-0.3H16.3z M16.3,194c0.6,0,1.2-0.1,1.8-0.4c0.6-0.2,1-0.6,1.4-1
			c0.4-0.4,0.7-0.9,1-1.4c0.2-0.6,0.4-1.1,0.4-1.8s-0.1-1.2-0.4-1.8c-0.2-0.6-0.6-1-1-1.4c-0.4-0.4-0.9-0.7-1.4-1
			c-0.6-0.2-1.1-0.4-1.8-0.4V194z"/>
		<path d="M25,182.7h4.3c0.6,0,1.2,0.1,1.8,0.4c0.6,0.2,1,0.6,1.4,1c0.4,0.4,0.7,0.9,1,1.4c0.2,0.6,0.4,1.1,0.4,1.8
			c0,0.6-0.1,1.2-0.4,1.8c-0.2,0.6-0.6,1-1,1.4c-0.4,0.4-0.9,0.7-1.4,1c-0.6,0.2-1.1,0.4-1.8,0.4H27v4.3c0,0.1,0,0.1-0.1,0.2
			c-0.1,0.1-0.1,0.1-0.2,0.1H25c-0.1,0-0.1,0-0.2-0.1c-0.1-0.1-0.1-0.1-0.1-0.2v-13C24.7,182.7,24.8,182.7,25,182.7z M29.2,184.9H27
			v4.5h2.3c0.3,0,0.6-0.1,0.9-0.2s0.5-0.3,0.7-0.5c0.2-0.2,0.4-0.4,0.5-0.7c0.1-0.3,0.2-0.6,0.2-0.9c0-0.3-0.1-0.6-0.2-0.9
			c-0.1-0.3-0.3-0.5-0.5-0.7c-0.2-0.2-0.4-0.4-0.7-0.5C29.9,185,29.6,184.9,29.2,184.9z"/>
		<path d="M39,182.7c0.6,0,1.2,0.1,1.8,0.4c0.6,0.2,1,0.6,1.4,1c0.4,0.4,0.7,0.9,1,1.4c0.2,0.6,0.4,1.1,0.4,1.8
			c0,0.8-0.2,1.6-0.6,2.3s-1,1.2-1.7,1.6l2.2,4.9c0.1,0.2,0,0.2-0.2,0.2h-2c-0.1,0-0.1,0-0.2-0.1S41,196.1,41,196l-0.8-1.8l-2.1-4.5
			c-0.1-0.2,0-0.2,0.2-0.2H39c0.3,0,0.6-0.1,0.9-0.2c0.3-0.1,0.5-0.3,0.7-0.5c0.2-0.2,0.4-0.4,0.5-0.7c0.1-0.3,0.2-0.6,0.2-0.9
			c0-0.3-0.1-0.6-0.2-0.9s-0.3-0.5-0.5-0.7c-0.2-0.2-0.4-0.4-0.7-0.5c-0.3-0.1-0.6-0.2-0.9-0.2h-2.3v11c0,0.1,0,0.1-0.1,0.2
			c-0.1,0.1-0.1,0.1-0.2,0.1h-1.7c-0.2,0-0.2-0.1-0.2-0.2v-13c0-0.2,0.1-0.2,0.2-0.2H39z"/>
		<path d="M45.7,196.2c-0.2,0-0.3-0.1-0.3-0.2v-13c0-0.2,0.1-0.2,0.3-0.2h1.7c0.2,0,0.3,0.1,0.3,0.2v13c0,0.2-0.1,0.2-0.3,0.2H45.7z
			"/>
		<path d="M50.1,182.7h1.7c0.2,0,0.3,0.1,0.4,0.2l3.2,3.3v-3.3c0-0.2,0.1-0.2,0.2-0.2h1.7c0.2,0,0.3,0.1,0.3,0.2v13
			c0,0.2-0.1,0.2-0.3,0.2h-1.7c-0.2,0-0.2-0.1-0.2-0.2v-6.5l-3.4-3.5v10c0,0.2-0.1,0.2-0.2,0.2h-1.7c-0.2,0-0.3-0.1-0.3-0.2v-13
			C49.8,182.8,49.9,182.7,50.1,182.7z"/>
		<path d="M59.1,182.7h6.3c0.2,0,0.3,0.1,0.3,0.2v1.7c0,0.2-0.1,0.3-0.3,0.3h-2v11c0,0.1,0,0.1-0.1,0.2c-0.1,0.1-0.1,0.1-0.2,0.1
			h-1.7c-0.1,0-0.1,0-0.2-0.1c-0.1-0.1-0.1-0.1-0.1-0.2v-11h-2c-0.2,0-0.2-0.1-0.2-0.3v-1.7C58.9,182.7,58.9,182.7,59.1,182.7z"/>
		<path d="M80.2,189c0-0.2,0.1-0.3,0.3-0.3h1.5c0.2,0,0.2,0.1,0.2,0.3c0,0.9-0.1,1.7-0.3,2.4c-0.2,0.7-0.5,1.4-0.8,2l2,2.6
			c0.1,0.1,0.1,0.1,0,0.2c0,0-0.1,0.1-0.1,0.1h-2.1c-0.2,0-0.3-0.1-0.4-0.2l-0.8-1c-0.5,0.4-1.1,0.8-1.8,1c-0.6,0.2-1.3,0.3-2.1,0.3
			c-0.8,0-1.5-0.1-2.1-0.3c-0.6-0.2-1.1-0.5-1.6-0.8c-0.4-0.4-0.7-0.8-1-1.3c-0.2-0.5-0.3-1-0.3-1.6c0-0.5,0.1-1,0.2-1.4
			c0.2-0.4,0.4-0.8,0.7-1.1c0.3-0.3,0.6-0.6,1.1-0.9c0.4-0.3,0.9-0.6,1.3-0.8c-0.4-0.5-0.7-1-0.8-1.4c-0.1-0.4-0.2-0.9-0.2-1.3
			c0-0.4,0.1-0.8,0.2-1.1c0.1-0.4,0.4-0.7,0.6-1c0.3-0.3,0.6-0.5,1-0.7c0.4-0.2,0.9-0.2,1.4-0.2c0.5,0,0.9,0.1,1.3,0.2
			s0.7,0.3,1,0.6c0.3,0.3,0.5,0.6,0.6,0.9c0.1,0.4,0.2,0.7,0.2,1.2c0,0.6-0.2,1.2-0.6,1.7c-0.4,0.5-1,1-1.9,1.5l2.6,3.4
			C80,191,80.2,190.1,80.2,189z M75.3,189.3c-0.8,0.4-1.3,0.9-1.6,1.3c-0.3,0.5-0.5,1-0.5,1.7c0,0.7,0.2,1.2,0.7,1.6
			c0.5,0.4,1.1,0.6,2,0.6c1,0,1.9-0.3,2.6-1L75.3,189.3z M77.6,185.2c0-0.3-0.1-0.5-0.3-0.8c-0.2-0.2-0.5-0.3-0.8-0.3
			c-0.4,0-0.7,0.1-0.9,0.4c-0.2,0.2-0.3,0.5-0.3,0.8c0,0.4,0.1,0.7,0.2,0.9c0.1,0.3,0.3,0.5,0.5,0.8l0.1,0.1
			c0.5-0.3,0.9-0.6,1.1-0.9C77.4,185.9,77.6,185.6,77.6,185.2z"/>
		<path d="M90.4,182.7h6.3c0.2,0,0.3,0.1,0.3,0.2v1.7c0,0.2-0.1,0.3-0.3,0.3h-2v11c0,0.1,0,0.1-0.1,0.2c-0.1,0.1-0.1,0.1-0.2,0.1
			h-1.7c-0.1,0-0.1,0-0.2-0.1c-0.1-0.1-0.1-0.1-0.1-0.2v-11h-2c-0.2,0-0.2-0.1-0.2-0.3v-1.7C90.1,182.7,90.2,182.7,90.4,182.7z"/>
		<path d="M104,182.7c0.9,0,1.8,0.2,2.6,0.5c0.8,0.4,1.5,0.8,2.2,1.5c0.6,0.6,1.1,1.3,1.5,2.2c0.4,0.8,0.5,1.7,0.5,2.6
			c0,0.9-0.2,1.8-0.5,2.6c-0.4,0.8-0.8,1.5-1.5,2.2c-0.6,0.6-1.3,1.1-2.2,1.5c-0.8,0.4-1.7,0.5-2.6,0.5s-1.8-0.2-2.6-0.5
			c-0.8-0.4-1.5-0.8-2.2-1.5c-0.6-0.6-1.1-1.3-1.5-2.2c-0.4-0.8-0.5-1.7-0.5-2.6c0-0.9,0.2-1.8,0.5-2.6c0.4-0.8,0.8-1.5,1.5-2.2
			c0.6-0.6,1.3-1.1,2.2-1.5C102.2,182.8,103,182.7,104,182.7z M104,184.9c-0.6,0-1.2,0.1-1.8,0.4c-0.6,0.2-1,0.6-1.4,1
			c-0.4,0.4-0.7,0.9-1,1.4c-0.2,0.6-0.4,1.1-0.4,1.8s0.1,1.2,0.4,1.8c0.2,0.6,0.6,1,1,1.4c0.4,0.4,0.9,0.7,1.4,1
			c0.6,0.2,1.1,0.4,1.8,0.4c0.6,0,1.2-0.1,1.8-0.4c0.6-0.2,1-0.6,1.4-1c0.4-0.4,0.7-0.9,1-1.4c0.2-0.6,0.4-1.1,0.4-1.8
			s-0.1-1.2-0.4-1.8c-0.2-0.6-0.6-1-1-1.4c-0.4-0.4-0.9-0.7-1.4-1C105.2,185,104.6,184.9,104,184.9z"/>
		<path d="M118.6,182.9c0-0.1,0.1-0.1,0.1-0.2c0.1,0,0.1-0.1,0.2-0.1h1.9c0.2,0,0.2,0.1,0.2,0.2l-3.5,8.4v4.7c0,0.2-0.1,0.2-0.2,0.2
			h-1.7c-0.2,0-0.3-0.1-0.3-0.2v-4.7l-3.5-8.4c-0.1-0.2,0-0.2,0.2-0.2h1.9c0.2,0,0.3,0.1,0.4,0.2l2.2,5.6L118.6,182.9z"/>
		<path d="M120.7,196.2c-0.1,0-0.1,0-0.2-0.1c-0.1-0.1-0.1-0.1-0.1-0.2v-1.7c0-0.2,0.1-0.2,0.3-0.3c0.3,0,0.5-0.1,0.8-0.2
			c0.2-0.1,0.5-0.3,0.6-0.5c0.2-0.2,0.3-0.4,0.4-0.7c0.1-0.3,0.2-0.5,0.2-0.8v-4.5c0-0.6,0.1-1.2,0.3-1.7c0.2-0.5,0.5-1,0.9-1.4
			c0.4-0.4,0.8-0.7,1.3-1c0.5-0.2,1.1-0.4,1.7-0.4c0.2,0,0.3,0.1,0.3,0.2v1.7c0,0.1,0,0.1-0.1,0.2c-0.1,0.1-0.1,0.1-0.2,0.1
			c-0.6,0.1-1,0.3-1.4,0.7c-0.4,0.4-0.6,0.9-0.6,1.5v4.5c0,0.6-0.1,1.2-0.3,1.7c-0.2,0.5-0.5,1-0.9,1.4c-0.4,0.4-0.8,0.7-1.3,1
			C121.9,196,121.3,196.2,120.7,196.2z"/>
	</g>
	<g>
		<path d="M31.9,147.5v4.6c0,0.6-0.2,0.8-0.8,0.8h-3.6c-0.6,0-0.7,0.2-0.7,0.7v21.7c0,0.6-0.2,0.8-0.8,0.8h-5.4
			c-0.6,0-0.8-0.2-0.8-0.8v-21.7c0-0.6-0.2-0.7-0.7-0.7h-3.6c-0.6,0-0.8-0.2-0.8-0.8v-4.6c0-0.6,0.2-0.8,0.8-0.8h15.8
			C31.6,146.7,31.9,146.9,31.9,147.5z"/>
		<path d="M39.4,147.5c0.2-0.7,0.4-0.8,1.1-0.8h4.3c0.6,0,0.9,0.1,1.1,0.8l7.1,28c0.2,0.6-0.2,0.8-0.6,0.8h-5.6
			c-0.5,0-0.8-0.2-0.9-0.8l-0.6-2.1c-0.1-0.5-0.3-0.6-0.8-0.6h-3.7c-0.5,0-0.7,0-0.8,0.6l-0.6,2.1c-0.2,0.6-0.4,0.8-0.9,0.8h-5.6
			c-0.4,0-0.7-0.2-0.6-0.8L39.4,147.5z M41.5,166.5h2.2c0.2,0,0.4-0.2,0.3-0.4l-1.2-5.8c0-0.3-0.4-0.3-0.5,0l-1.2,5.8
			C41.1,166.3,41.3,166.5,41.5,166.5z"/>
		<path d="M74.1,147.5v15.6v2.1c0,6.7-2.9,11.4-9.7,11.4s-9.7-4.7-9.7-11.4v-4.1v-13.6c0-0.6,0.2-0.8,0.8-0.8H61
			c0.6,0,0.8,0.2,0.8,0.8V163v2.3c0,2.5,0.3,4.8,2.6,4.8c2.3,0,2.6-2.4,2.6-4.8V161v-13.4c0-0.6,0.2-0.8,0.8-0.8h5.4
			C73.8,146.7,74.1,146.9,74.1,147.5z"/>
		<path d="M94.4,147.5v4.6c0,0.6-0.2,0.8-0.8,0.8H90c-0.6,0-0.7,0.2-0.7,0.7v21.7c0,0.6-0.2,0.8-0.8,0.8H83c-0.6,0-0.8-0.2-0.8-0.8
			v-21.7c0-0.6-0.2-0.7-0.7-0.7h-3.6c-0.6,0-0.8-0.2-0.8-0.8v-4.6c0-0.6,0.2-0.8,0.8-0.8h15.8C94.2,146.7,94.4,146.9,94.4,147.5z"/>
		<path d="M97.4,165.2v-7.5c0-6.7,2.9-11.4,9.7-11.4s9.7,4.7,9.7,11.4v7.5c0,6.7-2.9,11.4-9.7,11.4S97.4,171.9,97.4,165.2z
			 M109.7,165.3v-7.5c0-2.5-0.3-4.9-2.6-4.9c-2.3,0-2.6,2.4-2.6,4.9v7.5c0,2.5,0.3,4.8,2.6,4.8C109.4,170.1,109.7,167.7,109.7,165.3
			z"/>
	</g>
	<path d="M98.5,76.9c-0.7-1.8-0.9-0.2-1.3-1.1c-7-18.6-13.5-22.5-13.5-22.5s2.8-2.6,3.6-3.7c1.1-1.4,3.7-3.3,3.7-6.2
		c0-4.4-2.5-6.5-2.9-8.5c-0.5-2.6,0-6.9-0.2-9.6c-0.2-2.4-0.3-7.4-1.3-9.5c-0.9-1.9-3.3-4.7-5-5.9c-3.7-2.8-8.4-1.4-8.4-1.4
		s1.4-2.3-0.1-3.9c-1.5-1.5-3.9-0.1-3.9-0.1s0.7-4-2.2-4.3c-2.1-0.2-3.7,1.9-4.2,2.8c-0.6-0.9-2.2-2.9-4.4-2.8
		c-3,0.2-2.3,4.3-2.3,4.3s-2.5-1.4-4.1,0.1C50.6,6.2,52,8.5,52,8.5s-4.9-1.4-8.7,1.4c-1.7,1.3-4.2,4-5.2,5.9c-1,2.2-1.1,7.1-1.3,9.5
		c-0.2,2.7,0.4,7-0.2,9.6c-0.4,1.9-3,4-3,8.5c0,2.9,2.7,4.8,3.8,6.2c0.8,1,3.8,3.7,3.8,3.7s-6.7,3.8-14,22.5c-0.4,1-0.6-0.7-1.3,1.1
		c-1.1,2.8-2.2,7.2-1.5,8.6c0.4,0.8,2.6,1.4,2.6,1.4s0.1,3.8,0.2,6.8c0.2,3.3,3.8,5.8,5.6,6c2,0.2,1.4-5.8,1.4-5.8l1,0.1
		c0,0,0.1,2.1,0.4,2.6c0.1,0.3,0.8,0.6,0.8,0.6s-0.3,4.5,0.4,5.6c0.8,1.1,5.1,2,5.1,2s0.6,8.8,2.8,10.7c0.4,0.3,2.1,0.5,2.1,0.5
		l0.5,7.7c0,0-2.7,2.9-3.5,4c-0.4,0.5-1.2,1.8-1,2.4c0.1,0.4,0.7,0.5,1.1,0.6c2.9,0.6,12,0,12,0s0.8-0.4,1.3-1.3
		C57.9,128.2,57,116,57,116s2.8,0,3-0.7c0.5-1.9,0.3-7.8,0.3-7.8h2.5v0l2.6,0c0,0-0.2,5.9,0.3,7.8c0.2,0.7,2.9,0.7,2.9,0.7
		s-0.9,12.2-0.3,13.3c0.5,0.9,1.3,1.3,1.3,1.3s8.8,0.6,11.6,0c0.4-0.1,0.9-0.2,1.1-0.6c0.2-0.7-0.6-1.9-1-2.4c-0.8-1.1-3.4-4-3.4-4
		l0.5-7.7c0,0,1.7-0.2,2.1-0.5c2.1-1.8,2.7-10.7,2.7-10.7s4.2-0.9,4.9-2c0.8-1.1,0.4-5.6,0.4-5.6s0.6-0.3,0.7-0.6
		c0.2-0.5,0.4-2.6,0.4-2.6l1-0.1c0,0-0.6,6,1.4,5.8c1.8-0.2,5.3-2.7,5.4-6c0.2-3.1,0.2-6.8,0.2-6.8s2.2-0.6,2.6-1.4
		C100.6,84.1,99.6,79.7,98.5,76.9z M81.5,44.3c-1.6,2-6.1,4-8.5,4.4c-2.6,0.5-10.5,0.7-10.5,0.7v0c-2.1-0.1-7.9-0.2-10.1-0.6
		c-2.5-0.5-7.2-2.5-8.8-4.4c-0.8-1-1.9-3.3-1.8-4.6c0-3.5,2.1-14.1,2.1-14.1s2.3,0.2,3.9-0.3c2.1-0.7,2.8-3.4,2.8-3.4
		s1.1,2.5,3.4,2.3c3.2-0.2,3.9-3.4,3.9-3.4s0.7,1.5,1.8,2.3c1.2,0.8,3.1,0.8,3.1,0.8s1.8,0,2.9-0.8c1.1-0.7,1.7-2.3,1.7-2.3
		s0.7,3.2,3.8,3.4c2.3,0.2,3.3-2.3,3.3-2.3s0.7,2.8,2.7,3.4c1.6,0.5,3.8,0.3,3.8,0.3s2,10.6,2,14.1C83.3,40.9,82.2,43.3,81.5,44.3z"
		/>
	<ellipse cx="54" cy="32.7" rx="2.1" ry="3.4"/>
	<ellipse cx="71.7" cy="32.7" rx="2.1" ry="3.4"/>
</g>
</svg>
