<?xml version="1.0" encoding="utf-8"?>
<!-- Generator: Adobe Illustrator 22.0.0, SVG Export Plug-In . SVG Version: 6.00 Build 0)  -->
<svg version="1.1" xmlns="http://www.w3.org/2000/svg" xmlns:xlink="http://www.w3.org/1999/xlink" x="0px" y="0px"
	 viewBox="0 0 228.3 89.6" xml:space="preserve">
<style type="text/css">
	.tautologo2st0{fill:url(#SVGID_1_);}
	.tautologo2st1{fill:#FFFFFF;}
	.tautologo2st2{opacity:0.75;}
	.tautologo2st3{fill:#9590FF;}
	.tautologo2st4{opacity:0.75;fill:#9590FF;}
	.tautologo2st5{opacity:0.12;fill:#FFB94D;}
	.tautologo2st6{fill:#FFB94D;}
	.tautologo2st7{fill:url(#SVGID_2_);}
	.tautologo2st8{fill:#FFBD60;}
	.tautologo2st9{opacity:0.75;fill:#FFBD60;}
	.tautologo2st10{opacity:0.12;fill:#0FA972;}
	.tautologo2st11{fill:#0FA972;}
	.tautologo2st12{fill:#004393;}
	.tautologo2st13{fill:#00000C;}
	.tautologo2st14{fill:#003C57;}
</style>
<g>
	<g>
		<path d="M82.3,70.4c0.6,0.1,1.2,0.4,1.7,0.7c0.5,0.3,1,0.7,1.4,1.1c0.4,0.4,0.7,0.9,0.9,1.5c0.2,0.6,0.3,1.2,0.3,1.8
			c0,0.8-0.1,1.5-0.4,2.1c-0.3,0.7-0.7,1.2-1.2,1.7c-0.5,0.5-1.1,0.9-1.7,1.2C82.7,80.9,82,81,81.3,81c-0.7,0-1.4-0.1-2.1-0.4
			c-0.6-0.3-1.2-0.6-1.7-1.1c-0.5-0.5-0.9-1-1.2-1.6c-0.3-0.6-0.5-1.3-0.5-2c0-0.2,0.1-0.3,0.3-0.3h2.1c0.2,0,0.3,0.1,0.3,0.3
			c0,0.3,0.1,0.7,0.3,0.9c0.2,0.3,0.4,0.5,0.6,0.8s0.5,0.4,0.8,0.5c0.3,0.1,0.6,0.2,1,0.2c0.4,0,0.7-0.1,1.1-0.2
			c0.3-0.1,0.6-0.3,0.9-0.6c0.2-0.2,0.4-0.5,0.6-0.9c0.1-0.3,0.2-0.7,0.2-1.1c0-0.4-0.1-0.7-0.2-1.1c-0.1-0.3-0.3-0.6-0.6-0.9
			c-0.2-0.2-0.5-0.4-0.9-0.6c-0.3-0.1-0.7-0.2-1.1-0.2H78c-0.2,0-0.2-0.1-0.1-0.3l3.3-5.2h-3.9c-0.2,0-0.3-0.1-0.3-0.3v-2.1
			c0-0.1,0-0.1,0.1-0.2c0.1-0.1,0.1-0.1,0.2-0.1h8.2c0.1,0,0.1,0,0.2,0.1s0,0.1,0,0.2L82.3,70.4z"/>
		<path d="M91.6,64.6c1.1,0,2.2,0.2,3.2,0.6c1,0.4,1.9,1,2.6,1.8c0.7,0.7,1.3,1.6,1.8,2.6c0.4,1,0.6,2.1,0.6,3.2
			c0,1.1-0.2,2.2-0.6,3.2c-0.4,1-1,1.9-1.8,2.6c-0.7,0.7-1.6,1.3-2.6,1.8c-1,0.4-2.1,0.6-3.2,0.6h-2.4c-0.1,0-0.2,0-0.2-0.1
			c-0.1-0.1-0.1-0.1-0.1-0.2V64.9c0-0.2,0.1-0.3,0.3-0.3H91.6z M91.6,78.3c0.8,0,1.5-0.1,2.1-0.4c0.7-0.3,1.2-0.7,1.7-1.2
			c0.5-0.5,0.9-1.1,1.2-1.7c0.3-0.7,0.4-1.4,0.4-2.1s-0.1-1.5-0.4-2.1c-0.3-0.7-0.7-1.2-1.2-1.7c-0.5-0.5-1.1-0.9-1.7-1.2
			c-0.7-0.3-1.4-0.4-2.1-0.4V78.3z"/>
		<path d="M102,64.6h5.1c0.8,0,1.5,0.1,2.1,0.4c0.7,0.3,1.2,0.7,1.7,1.2c0.5,0.5,0.9,1.1,1.2,1.7c0.3,0.7,0.4,1.4,0.4,2.1
			s-0.1,1.5-0.4,2.1c-0.3,0.7-0.7,1.2-1.2,1.7c-0.5,0.5-1.1,0.9-1.7,1.2c-0.7,0.3-1.4,0.4-2.1,0.4h-2.7v5.1c0,0.1,0,0.1-0.1,0.2
			c-0.1,0.1-0.1,0.1-0.2,0.1H102c-0.1,0-0.2,0-0.2-0.1c-0.1-0.1-0.1-0.1-0.1-0.2V64.9C101.7,64.7,101.8,64.6,102,64.6z M107.2,67.4
			h-2.7v5.5h2.7c0.4,0,0.7-0.1,1.1-0.2c0.3-0.1,0.6-0.3,0.9-0.6c0.2-0.2,0.4-0.5,0.6-0.9c0.1-0.3,0.2-0.7,0.2-1.1
			c0-0.4-0.1-0.7-0.2-1.1c-0.1-0.3-0.3-0.6-0.6-0.9c-0.2-0.2-0.5-0.4-0.9-0.6C107.9,67.4,107.6,67.4,107.2,67.4z"/>
		<path d="M119,64.7c0.8,0,1.5,0.1,2.1,0.4c0.7,0.3,1.2,0.7,1.7,1.2c0.5,0.5,0.9,1.1,1.2,1.7c0.3,0.7,0.4,1.4,0.4,2.1
			c0,1-0.3,2-0.8,2.8s-1.2,1.5-2,2l2.7,5.9c0.1,0.2,0,0.3-0.2,0.3h-2.4c-0.1,0-0.2,0-0.3-0.1c-0.1-0.1-0.2-0.1-0.2-0.2l-1-2.1
			l-2.5-5.5c-0.1-0.2,0-0.3,0.2-0.3h1c0.4,0,0.7-0.1,1.1-0.2c0.3-0.1,0.6-0.3,0.9-0.6c0.2-0.2,0.4-0.5,0.6-0.9
			c0.1-0.3,0.2-0.7,0.2-1.1c0-0.4-0.1-0.7-0.2-1.1c-0.1-0.3-0.3-0.6-0.6-0.9c-0.2-0.2-0.5-0.4-0.9-0.6c-0.3-0.1-0.7-0.2-1.1-0.2
			h-2.7v13.4c0,0.1,0,0.1-0.1,0.2c-0.1,0.1-0.1,0.1-0.2,0.1h-2.1c-0.2,0-0.3-0.1-0.3-0.3V64.9c0-0.2,0.1-0.3,0.3-0.3H119z"/>
		<path d="M127.1,81c-0.2,0-0.3-0.1-0.3-0.3V64.9c0-0.2,0.1-0.3,0.3-0.3h2.1c0.2,0,0.3,0.1,0.3,0.3v15.8c0,0.2-0.1,0.3-0.3,0.3
			H127.1z"/>
		<path d="M132.4,64.7h2.1c0.2,0,0.4,0.1,0.5,0.2l3.9,4v-4c0-0.2,0.1-0.3,0.3-0.3h2.1c0.2,0,0.3,0.1,0.3,0.3v15.8
			c0,0.2-0.1,0.3-0.3,0.3h-2.1c-0.2,0-0.3-0.1-0.3-0.3v-7.9l-4.1-4.3v12.2c0,0.2-0.1,0.3-0.3,0.3h-2.1c-0.2,0-0.3-0.1-0.3-0.3V64.9
			C132.1,64.7,132.2,64.7,132.4,64.7z"/>
		<path d="M143.3,64.6h7.6c0.2,0,0.3,0.1,0.3,0.3V67c0,0.2-0.1,0.3-0.3,0.3h-2.4v13.4c0,0.1,0,0.1-0.1,0.2c-0.1,0.1-0.1,0.1-0.2,0.1
			h-2.1c-0.1,0-0.1,0-0.2-0.1c-0.1-0.1-0.1-0.1-0.1-0.2V67.4h-2.4c-0.2,0-0.3-0.1-0.3-0.3v-2.1C143,64.7,143.1,64.6,143.3,64.6z"/>
		<path d="M168.9,72.3c0-0.2,0.1-0.3,0.3-0.3h1.8c0.2,0,0.3,0.1,0.3,0.3c0,1.1-0.2,2.1-0.4,2.9c-0.2,0.9-0.6,1.7-1,2.4l2.4,3.1
			c0.1,0.1,0.1,0.1,0,0.2c0,0-0.1,0.1-0.2,0.1h-2.5c-0.2,0-0.4-0.1-0.5-0.3l-0.9-1.2c-0.6,0.5-1.4,0.9-2.1,1.2
			c-0.8,0.3-1.6,0.4-2.5,0.4c-0.9,0-1.8-0.1-2.5-0.4c-0.7-0.2-1.4-0.6-1.9-1c-0.5-0.4-0.9-1-1.2-1.6c-0.3-0.6-0.4-1.3-0.4-2
			c0-0.6,0.1-1.2,0.3-1.7c0.2-0.5,0.5-0.9,0.8-1.4c0.4-0.4,0.8-0.8,1.3-1.1c0.5-0.3,1-0.7,1.6-1c-0.5-0.6-0.8-1.2-1-1.7
			c-0.2-0.5-0.3-1-0.3-1.6c0-0.5,0.1-1,0.3-1.4c0.2-0.4,0.4-0.8,0.8-1.2c0.3-0.3,0.7-0.6,1.2-0.8c0.5-0.2,1-0.3,1.6-0.3
			c0.6,0,1.1,0.1,1.6,0.3c0.5,0.2,0.9,0.4,1.2,0.7c0.3,0.3,0.6,0.7,0.7,1.1c0.2,0.4,0.3,0.9,0.3,1.4c0,0.8-0.3,1.5-0.8,2.1
			c-0.5,0.6-1.3,1.2-2.3,1.8l3.2,4.1C168.7,74.7,168.9,73.6,168.9,72.3z M162.9,72.7c-0.9,0.5-1.6,1.1-2,1.6c-0.4,0.6-0.6,1.2-0.6,2
			c0,0.8,0.3,1.4,0.8,1.9c0.6,0.5,1.4,0.7,2.5,0.7c1.3,0,2.3-0.4,3.2-1.2L162.9,72.7z M165.7,67.7c0-0.4-0.1-0.7-0.3-0.9
			c-0.2-0.3-0.6-0.4-1-0.4c-0.5,0-0.8,0.1-1.1,0.4c-0.2,0.3-0.3,0.6-0.3,1c0,0.4,0.1,0.8,0.3,1.1c0.2,0.3,0.4,0.6,0.6,1l0.1,0.1
			c0.6-0.4,1-0.7,1.3-1.1C165.5,68.6,165.7,68.2,165.7,67.7z"/>
		<path d="M181.2,64.6h7.6c0.2,0,0.3,0.1,0.3,0.3V67c0,0.2-0.1,0.3-0.3,0.3h-2.4v13.4c0,0.1,0,0.1-0.1,0.2c-0.1,0.1-0.1,0.1-0.2,0.1
			h-2.1c-0.1,0-0.1,0-0.2-0.1c-0.1-0.1-0.1-0.1-0.1-0.2V67.4h-2.4c-0.2,0-0.3-0.1-0.3-0.3v-2.1C180.9,64.7,181,64.6,181.2,64.6z"/>
		<path d="M197.6,64.6c1.1,0,2.2,0.2,3.2,0.6c1,0.4,1.9,1,2.6,1.8c0.7,0.7,1.3,1.6,1.8,2.6c0.4,1,0.6,2.1,0.6,3.2
			c0,1.1-0.2,2.2-0.6,3.2c-0.4,1-1,1.9-1.8,2.6c-0.7,0.7-1.6,1.3-2.6,1.8c-1,0.4-2.1,0.6-3.2,0.6s-2.2-0.2-3.2-0.6
			c-1-0.4-1.9-1-2.6-1.8c-0.7-0.7-1.3-1.6-1.8-2.6c-0.4-1-0.6-2.1-0.6-3.2c0-1.1,0.2-2.2,0.6-3.2c0.4-1,1-1.9,1.8-2.6
			c0.7-0.7,1.6-1.3,2.6-1.8C195.4,64.8,196.5,64.6,197.6,64.6z M197.6,67.4c-0.8,0-1.5,0.1-2.1,0.4c-0.7,0.3-1.2,0.7-1.7,1.2
			c-0.5,0.5-0.9,1.1-1.2,1.7c-0.3,0.7-0.4,1.4-0.4,2.1s0.1,1.5,0.4,2.1c0.3,0.7,0.7,1.2,1.2,1.7c0.5,0.5,1.1,0.9,1.7,1.2
			c0.7,0.3,1.4,0.4,2.1,0.4c0.8,0,1.5-0.1,2.1-0.4c0.7-0.3,1.2-0.7,1.7-1.2c0.5-0.5,0.9-1.1,1.2-1.7c0.3-0.7,0.4-1.4,0.4-2.1
			s-0.1-1.5-0.4-2.1c-0.3-0.7-0.7-1.2-1.2-1.7c-0.5-0.5-1.1-0.9-1.7-1.2C199.1,67.5,198.4,67.4,197.6,67.4z"/>
		<path d="M215.3,64.9c0-0.1,0.1-0.1,0.2-0.2c0.1-0.1,0.2-0.1,0.2-0.1h2.3c0.2,0,0.3,0.1,0.2,0.3L214,75v5.7c0,0.2-0.1,0.3-0.3,0.3
			h-2.1c-0.2,0-0.3-0.1-0.3-0.3V75L207,64.9c-0.1-0.2,0-0.3,0.2-0.3h2.3c0.2,0,0.4,0.1,0.4,0.3l2.6,6.7L215.3,64.9z"/>
		<path d="M217.9,81c-0.1,0-0.2,0-0.2-0.1c-0.1-0.1-0.1-0.1-0.1-0.2v-2.1c0-0.2,0.1-0.3,0.3-0.3c0.3,0,0.7-0.1,0.9-0.3
			c0.3-0.2,0.5-0.3,0.8-0.6c0.2-0.2,0.4-0.5,0.5-0.8c0.1-0.3,0.2-0.6,0.2-1v-5.5c0-0.7,0.1-1.4,0.4-2.1c0.3-0.6,0.6-1.2,1.1-1.7
			c0.5-0.5,1-0.9,1.6-1.2c0.6-0.3,1.3-0.5,2-0.5c0.2,0,0.3,0.1,0.3,0.3v2.1c0,0.1,0,0.2-0.1,0.2s-0.1,0.1-0.2,0.1
			c-0.7,0.1-1.3,0.4-1.7,0.9c-0.5,0.5-0.7,1.1-0.7,1.8v5.5c0,0.7-0.1,1.4-0.4,2c-0.3,0.6-0.6,1.2-1.1,1.7c-0.5,0.5-1,0.9-1.6,1.2
			C219.3,80.8,218.6,81,217.9,81z"/>
	</g>
	<g>
		<path d="M102.6,16.4v6.4c0,0.8-0.3,1.1-1.1,1.1h-4.9c-0.8,0-1,0.2-1,1v29.6c0,0.8-0.3,1.1-1.1,1.1H87c-0.8,0-1.1-0.3-1.1-1.1V24.9
			c0-0.8-0.2-1-1-1h-4.9c-0.8,0-1.1-0.3-1.1-1.1v-6.4c0-0.8,0.3-1.1,1.1-1.1h21.5C102.3,15.3,102.6,15.6,102.6,16.4z"/>
		<path d="M112.8,16.3c0.2-0.9,0.6-1.1,1.5-1.1h5.9c0.9,0,1.2,0.2,1.5,1.1l9.6,38.2c0.2,0.8-0.2,1.1-0.8,1.1h-7.6
			c-0.7,0-1.1-0.2-1.3-1.1l-0.8-2.9c-0.2-0.7-0.4-0.8-1.1-0.8h-5.1c-0.7,0-0.9,0.1-1.1,0.8l-0.8,2.9c-0.2,0.9-0.6,1.1-1.3,1.1H104
			c-0.6,0-1-0.3-0.8-1.1L112.8,16.3z M115.7,42.3h3c0.3,0,0.5-0.2,0.4-0.6l-1.6-7.9c-0.1-0.4-0.6-0.4-0.6,0l-1.6,7.9
			C115.3,42.1,115.4,42.3,115.7,42.3z"/>
		<path d="M160.3,16.4v21.3v2.9c0,9.2-4,15.6-13.2,15.6s-13.2-6.4-13.2-15.6V35V16.4c0-0.8,0.3-1.1,1.1-1.1h7.4
			c0.8,0,1.1,0.3,1.1,1.1v21.1v3.1c0,3.4,0.4,6.6,3.6,6.6c3.2,0,3.6-3.2,3.6-6.6v-5.9V16.4c0-0.8,0.3-1.1,1.1-1.1h7.4
			C160,15.3,160.3,15.6,160.3,16.4z"/>
		<path d="M188.1,16.4v6.4c0,0.8-0.3,1.1-1.1,1.1h-4.9c-0.8,0-1,0.2-1,1v29.6c0,0.8-0.3,1.1-1.1,1.1h-7.4c-0.8,0-1.1-0.3-1.1-1.1
			V24.9c0-0.8-0.2-1-1-1h-4.9c-0.8,0-1.1-0.3-1.1-1.1v-6.4c0-0.8,0.3-1.1,1.1-1.1H187C187.8,15.3,188.1,15.6,188.1,16.4z"/>
		<path d="M192.2,40.6V30.3c0-9.2,4-15.6,13.2-15.6c9.3,0,13.2,6.4,13.2,15.6v10.2c0,9.2-4,15.6-13.2,15.6
			C196.2,56.2,192.2,49.8,192.2,40.6z M209,40.6V30.3c0-3.4-0.4-6.7-3.6-6.7c-3.2,0-3.6,3.3-3.6,6.7v10.3c0,3.4,0.4,6.6,3.6,6.6
			C208.6,47.2,209,44,209,40.6z"/>
	</g>
	<g>
		<path d="M50.3,52.1c-0.5-1.2-0.6-0.1-0.8-0.7c-4.5-12-8.7-14.4-8.7-14.4s1.8-1.7,2.3-2.4c0.7-0.9,2.4-2.1,2.4-4
			c0-2.9-1.6-4.2-1.8-5.4c-0.3-1.7,0-4.5-0.1-6.2c-0.1-1.5-0.2-4.7-0.8-6.1c-0.6-1.2-2.1-3-3.2-3.8c-2.4-1.8-5.4-0.9-5.4-0.9
			S35,6.7,34,5.7c-0.9-1-2.5-0.1-2.5-0.1s0.4-2.6-1.4-2.7c-1.4-0.1-2.4,1.2-2.7,1.8c-0.4-0.5-1.4-1.9-2.8-1.8C22.6,3,23,5.6,23,5.6
			s-1.6-0.9-2.6,0.1c-1,1-0.1,2.5-0.1,2.5s-3.1-0.9-5.6,0.9c-1.1,0.8-2.7,2.6-3.3,3.8c-0.7,1.4-0.7,4.6-0.8,6.1
			c-0.1,1.7,0.2,4.5-0.1,6.2c-0.3,1.3-1.9,2.6-1.9,5.4c0,1.9,1.7,3.1,2.4,4c0.5,0.7,2.4,2.4,2.4,2.4s-4.3,2.5-9,14.4
			c-0.2,0.6-0.4-0.5-0.8,0.7c-0.7,1.8-1.4,4.6-1,5.5c0.2,0.5,1.7,0.9,1.7,0.9s0,2.4,0.2,4.4C4.6,65,7,66.6,8.1,66.8
			C9.4,66.9,9,63,9,63l0.7,0.1c0,0,0.1,1.3,0.2,1.7c0.1,0.2,0.5,0.4,0.5,0.4s-0.2,2.9,0.3,3.6c0.5,0.7,3.3,1.3,3.3,1.3
			s0.4,5.7,1.8,6.9c0.2,0.2,1.4,0.3,1.4,0.3l0.3,5c0,0-1.7,1.9-2.3,2.6c-0.3,0.4-0.8,1.1-0.7,1.6c0.1,0.3,0.4,0.3,0.7,0.4
			c1.9,0.4,7.7,0,7.7,0s0.5-0.3,0.8-0.8c0.4-0.7-0.2-8.5-0.2-8.5s1.8,0,1.9-0.4c0.3-1.2,0.2-5,0.2-5h1.6v0l1.6,0c0,0-0.1,3.8,0.2,5
			c0.1,0.5,1.8,0.4,1.8,0.4s-0.6,7.9-0.2,8.5c0.3,0.6,0.8,0.8,0.8,0.8s5.6,0.4,7.5,0c0.3-0.1,0.6-0.1,0.7-0.4
			c0.1-0.4-0.4-1.2-0.6-1.6c-0.5-0.7-2.2-2.6-2.2-2.6l0.3-5c0,0,1.1-0.1,1.3-0.3c1.4-1.2,1.7-6.9,1.7-6.9s2.7-0.5,3.2-1.3
			c0.5-0.7,0.3-3.6,0.3-3.6s0.4-0.2,0.5-0.4c0.2-0.3,0.2-1.7,0.2-1.7l0.7-0.1c0,0-0.4,3.9,0.9,3.7c1.1-0.1,3.4-1.8,3.5-3.8
			c0.1-2,0.2-4.4,0.2-4.4s1.4-0.4,1.6-0.9C51.6,56.7,51,53.9,50.3,52.1z M39.3,31.1c-1,1.3-3.9,2.5-5.5,2.8
			c-1.7,0.3-6.7,0.4-6.7,0.4v0c-1.3,0-5.1-0.1-6.5-0.4C19,33.7,16,32.4,15,31.1c-0.5-0.6-1.2-2.1-1.2-3c0-2.2,1.3-9.1,1.3-9.1
			s1.5,0.1,2.5-0.2c1.4-0.4,1.8-2.2,1.8-2.2s0.7,1.6,2.2,1.5c2.1-0.1,2.5-2.2,2.5-2.2s0.4,1,1.2,1.4c0.8,0.5,2,0.5,2,0.5
			s1.1,0,1.9-0.5c0.7-0.5,1.1-1.4,1.1-1.4s0.5,2.1,2.5,2.2c1.5,0.1,2.1-1.5,2.1-1.5s0.4,1.8,1.7,2.2c1,0.3,2.5,0.2,2.5,0.2
			s1.3,6.8,1.3,9.1C40.4,29,39.8,30.5,39.3,31.1z"/>
		<ellipse cx="21.6" cy="23.7" rx="1.3" ry="2.2"/>
		<ellipse cx="33" cy="23.7" rx="1.3" ry="2.2"/>
	</g>
</g>
</svg>
